<svg viewBox="0 0 330 200" xmlns="http://www.w3.org/2000/svg"><g><g><g><g><g><line x1="64.41999912261963" y1="175.61999893188477" x2="59.41999912261963" y2="175.61999893188477" style="visibility: inherit;" fill="rgb(0, 0, 0)" stroke="rgb(204, 204, 204)" stroke-width="1px"></line><line x1="64.41999912261963" y1="163.075713293893" x2="59.41999912261963" y2="163.075713293893" style="visibility: inherit;" fill="rgb(0, 0, 0)" stroke="rgb(204, 204, 204)" stroke-width="1px"></line><line x1="64.41999912261963" y1="150.5314276559012" x2="59.41999912261963" y2="150.5314276559012" style="visibility: inherit;" fill="rgb(0, 0, 0)" stroke="rgb(204, 204, 204)" stroke-width="1px"></line><line x1="64.41999912261963" y1="137.98714201790946" x2="59.41999912261963" y2="137.98714201790946" style="visibility: inherit;" fill="rgb(0, 0, 0)" stroke="rgb(204, 204, 204)" stroke-width="1px"></line><line x1="64.41999912261963" y1="125.44285637991769" x2="59.41999912261963" y2="125.44285637991769" style="visibility: inherit;" fill="rgb(0, 0, 0)" stroke="rgb(204, 204, 204)" stroke-width="1px"></line><line x1="64.41999912261963" y1="112.89857074192591" x2="59.41999912261963" y2="112.89857074192591" style="visibility: inherit;" fill="rgb(0, 0, 0)" stroke="rgb(204, 204, 204)" stroke-width="1px"></line><line x1="64.41999912261963" y1="100.35428510393415" x2="59.41999912261963" y2="100.35428510393415" style="visibility: inherit;" fill="rgb(0, 0, 0)" stroke="rgb(204, 204, 204)" stroke-width="1px"></line><line x1="64.41999912261963" y1="87.80999946594237" x2="59.41999912261963" y2="87.80999946594237" style="visibility: inherit;" fill="rgb(0, 0, 0)" stroke="rgb(204, 204, 204)" stroke-width="1px"></line><line x1="64.41999912261963" y1="75.2657138279506" x2="59.41999912261963" y2="75.2657138279506" style="visibility: inherit;" fill="rgb(0, 0, 0)" stroke="rgb(204, 204, 204)" stroke-width="1px"></line><line x1="64.41999912261963" y1="62.721428189958814" x2="59.41999912261963" y2="62.721428189958814" style="visibility: inherit;" fill="rgb(0, 0, 0)" stroke="rgb(204, 204, 204)" stroke-width="1px"></line><line x1="64.41999912261963" y1="50.17714255196705" x2="59.41999912261963" y2="50.17714255196705" style="visibility: inherit;" fill="rgb(0, 0, 0)" stroke="rgb(204, 204, 204)" stroke-width="1px"></line><line x1="64.41999912261963" y1="37.6328569139753" x2="59.41999912261963" y2="37.6328569139753" style="visibility: inherit;" fill="rgb(0, 0, 0)" stroke="rgb(204, 204, 204)" stroke-width="1px"></line><line x1="64.41999912261963" y1="25.088571275983497" x2="59.41999912261963" y2="25.088571275983497" style="visibility: inherit;" fill="rgb(0, 0, 0)" stroke="rgb(204, 204, 204)" stroke-width="1px"></line><line x1="64.41999912261963" y1="12.544285637991749" x2="59.41999912261963" y2="12.544285637991749" style="visibility: inherit;" fill="rgb(0, 0, 0)" stroke="rgb(204, 204, 204)" stroke-width="1px"></line><line x1="64.41999912261963" y1="0" x2="59.41999912261963" y2="0" style="visibility: inherit;" fill="rgb(0, 0, 0)" stroke="rgb(204, 204, 204)" stroke-width="1px"></line></g><g transform="translate(54.41999912261963, 0)"><text style="text-anchor: end; visibility: hidden; font-family: &quot;Helvetica Neue&quot;, sans-serif; font-size: 12px; font-weight: 200;" x="0" y="175.61999893188477" dx="0em" dy="0.3em" fill="rgb(50, 49, 63)" stroke="none" stroke-width="1px">-0.04</text><text style="text-anchor: end; visibility: inherit; font-family: &quot;Helvetica Neue&quot;, sans-serif; font-size: 12px; font-weight: 200;" x="0" y="163.075713293893" dx="0em" dy="0.3em" fill="rgb(50, 49, 63)" stroke="none" stroke-width="1px">-0.02</text><text style="text-anchor: end; visibility: hidden; font-family: &quot;Helvetica Neue&quot;, sans-serif; font-size: 12px; font-weight: 200;" x="0" y="150.5314276559012" dx="0em" dy="0.3em" fill="rgb(50, 49, 63)" stroke="none" stroke-width="1px">0</text><text style="text-anchor: end; visibility: hidden; font-family: &quot;Helvetica Neue&quot;, sans-serif; font-size: 12px; font-weight: 200;" x="0" y="137.98714201790946" dx="0em" dy="0.3em" fill="rgb(50, 49, 63)" stroke="none" stroke-width="1px">0.02</text><text style="text-anchor: end; visibility: inherit; font-family: &quot;Helvetica Neue&quot;, sans-serif; font-size: 12px; font-weight: 200;" x="0" y="125.44285637991769" dx="0em" dy="0.3em" fill="rgb(50, 49, 63)" stroke="none" stroke-width="1px">0.04</text><text style="text-anchor: end; visibility: hidden; font-family: &quot;Helvetica Neue&quot;, sans-serif; font-size: 12px; font-weight: 200;" x="0" y="112.89857074192591" dx="0em" dy="0.3em" fill="rgb(50, 49, 63)" stroke="none" stroke-width="1px">0.06</text><text style="text-anchor: end; visibility: hidden; font-family: &quot;Helvetica Neue&quot;, sans-serif; font-size: 12px; font-weight: 200;" x="0" y="100.35428510393415" dx="0em" dy="0.3em" fill="rgb(50, 49, 63)" stroke="none" stroke-width="1px">0.08</text><text style="text-anchor: end; visibility: inherit; font-family: &quot;Helvetica Neue&quot;, sans-serif; font-size: 12px; font-weight: 200;" x="0" y="87.80999946594237" dx="0em" dy="0.3em" fill="rgb(50, 49, 63)" stroke="none" stroke-width="1px">0.1</text><text style="text-anchor: end; visibility: hidden; font-family: &quot;Helvetica Neue&quot;, sans-serif; font-size: 12px; font-weight: 200;" x="0" y="75.2657138279506" dx="0em" dy="0.3em" fill="rgb(50, 49, 63)" stroke="none" stroke-width="1px">0.12</text><text style="text-anchor: end; visibility: hidden; font-family: &quot;Helvetica Neue&quot;, sans-serif; font-size: 12px; font-weight: 200;" x="0" y="62.721428189958814" dx="0em" dy="0.3em" fill="rgb(50, 49, 63)" stroke="none" stroke-width="1px">0.14</text><text style="text-anchor: end; visibility: inherit; font-family: &quot;Helvetica Neue&quot;, sans-serif; font-size: 12px; font-weight: 200;" x="0" y="50.17714255196705" dx="0em" dy="0.3em" fill="rgb(50, 49, 63)" stroke="none" stroke-width="1px">0.16</text><text style="text-anchor: end; visibility: hidden; font-family: &quot;Helvetica Neue&quot;, sans-serif; font-size: 12px; font-weight: 200;" x="0" y="37.6328569139753" dx="0em" dy="0.3em" fill="rgb(50, 49, 63)" stroke="none" stroke-width="1px">0.18</text><text style="text-anchor: end; visibility: hidden; font-family: &quot;Helvetica Neue&quot;, sans-serif; font-size: 12px; font-weight: 200;" x="0" y="25.088571275983497" dx="0em" dy="0.3em" fill="rgb(50, 49, 63)" stroke="none" stroke-width="1px">0.2</text><text style="text-anchor: end; visibility: inherit; font-family: &quot;Helvetica Neue&quot;, sans-serif; font-size: 12px; font-weight: 200;" x="0" y="12.544285637991749" dx="0em" dy="0.3em" fill="rgb(50, 49, 63)" stroke="none" stroke-width="1px">0.22</text><text style="text-anchor: end; visibility: hidden; font-family: &quot;Helvetica Neue&quot;, sans-serif; font-size: 12px; font-weight: 200;" x="0" y="0" dx="0em" dy="0.3em" fill="rgb(50, 49, 63)" stroke="none" stroke-width="1px">0.24</text></g><line x1="64.41999912261963" y1="0" x2="64.41999912261963" y2="175.61999893188477" fill="rgb(0, 0, 0)" stroke="rgb(204, 204, 204)" stroke-width="1px"></line></g></g><g transform="translate(64, 0)" clip-path="url(#clip_0)"><clipPath id="clip_0"><rect width="265" height="175"></rect></clipPath><g><g><g><line x1="0" y1="0" x2="0" y2="175.61999893188477" fill="rgb(0, 0, 0)" stroke="rgb(60, 60, 60)" stroke-width="1px" opacity="0.25"></line><line x1="22.131666739781696" y1="0" x2="22.131666739781696" y2="175.61999893188477" fill="rgb(0, 0, 0)" stroke="rgb(60, 60, 60)" stroke-width="1px" opacity="0.25"></line><line x1="44.26333347956339" y1="0" x2="44.26333347956339" y2="175.61999893188477" fill="rgb(0, 0, 0)" stroke="rgb(60, 60, 60)" stroke-width="1px" opacity="0.25"></line><line x1="66.39500021934509" y1="0" x2="66.39500021934509" y2="175.61999893188477" fill="rgb(0, 0, 0)" stroke="rgb(60, 60, 60)" stroke-width="1px" opacity="0.25"></line><line x1="88.52666695912679" y1="0" x2="88.52666695912679" y2="175.61999893188477" fill="rgb(0, 0, 0)" stroke="rgb(60, 60, 60)" stroke-width="1px" opacity="0.25"></line><line x1="110.65833369890849" y1="0" x2="110.65833369890849" y2="175.61999893188477" fill="rgb(0, 0, 0)" stroke="rgb(60, 60, 60)" stroke-width="1px" opacity="0.25"></line><line x1="132.79000043869019" y1="0" x2="132.79000043869019" y2="175.61999893188477" fill="rgb(0, 0, 0)" stroke="rgb(60, 60, 60)" stroke-width="1px" opacity="0.25"></line><line x1="154.9216671784719" y1="0" x2="154.9216671784719" y2="175.61999893188477" fill="rgb(0, 0, 0)" stroke="rgb(60, 60, 60)" stroke-width="1px" opacity="0.25"></line><line x1="177.05333391825357" y1="0" x2="177.05333391825357" y2="175.61999893188477" fill="rgb(0, 0, 0)" stroke="rgb(60, 60, 60)" stroke-width="1px" opacity="0.25"></line><line x1="199.18500065803528" y1="0" x2="199.18500065803528" y2="175.61999893188477" fill="rgb(0, 0, 0)" stroke="rgb(60, 60, 60)" stroke-width="1px" opacity="0.25"></line><line x1="221.31666739781699" y1="0" x2="221.31666739781699" y2="175.61999893188477" fill="rgb(0, 0, 0)" stroke="rgb(60, 60, 60)" stroke-width="1px" opacity="0.25"></line><line x1="243.44833413759866" y1="0" x2="243.44833413759866" y2="175.61999893188477" fill="rgb(0, 0, 0)" stroke="rgb(60, 60, 60)" stroke-width="1px" opacity="0.25"></line><line x1="265.58000087738037" y1="0" x2="265.58000087738037" y2="175.61999893188477" fill="rgb(0, 0, 0)" stroke="rgb(60, 60, 60)" stroke-width="1px" opacity="0.25"></line></g><g><line x1="0" y1="175.61999893188477" x2="265.58000087738037" y2="175.61999893188477" fill="rgb(0, 0, 0)" stroke="rgb(60, 60, 60)" stroke-width="1px" opacity="0.25"></line><line x1="0" y1="163.075713293893" x2="265.58000087738037" y2="163.075713293893" fill="rgb(0, 0, 0)" stroke="rgb(60, 60, 60)" stroke-width="1px" opacity="0.25"></line><line x1="0" y1="150.5314276559012" x2="265.58000087738037" y2="150.5314276559012" fill="rgb(0, 0, 0)" stroke="rgb(60, 60, 60)" stroke-width="1px" opacity="0.25"></line><line x1="0" y1="137.98714201790946" x2="265.58000087738037" y2="137.98714201790946" fill="rgb(0, 0, 0)" stroke="rgb(60, 60, 60)" stroke-width="1px" opacity="0.25"></line><line x1="0" y1="125.44285637991769" x2="265.58000087738037" y2="125.44285637991769" fill="rgb(0, 0, 0)" stroke="rgb(60, 60, 60)" stroke-width="1px" opacity="0.25"></line><line x1="0" y1="112.89857074192591" x2="265.58000087738037" y2="112.89857074192591" fill="rgb(0, 0, 0)" stroke="rgb(60, 60, 60)" stroke-width="1px" opacity="0.25"></line><line x1="0" y1="100.35428510393415" x2="265.58000087738037" y2="100.35428510393415" fill="rgb(0, 0, 0)" stroke="rgb(60, 60, 60)" stroke-width="1px" opacity="0.25"></line><line x1="0" y1="87.80999946594237" x2="265.58000087738037" y2="87.80999946594237" fill="rgb(0, 0, 0)" stroke="rgb(60, 60, 60)" stroke-width="1px" opacity="0.25"></line><line x1="0" y1="75.2657138279506" x2="265.58000087738037" y2="75.2657138279506" fill="rgb(0, 0, 0)" stroke="rgb(60, 60, 60)" stroke-width="1px" opacity="0.25"></line><line x1="0" y1="62.721428189958814" x2="265.58000087738037" y2="62.721428189958814" fill="rgb(0, 0, 0)" stroke="rgb(60, 60, 60)" stroke-width="1px" opacity="0.25"></line><line x1="0" y1="50.17714255196705" x2="265.58000087738037" y2="50.17714255196705" fill="rgb(0, 0, 0)" stroke="rgb(60, 60, 60)" stroke-width="1px" opacity="0.25"></line><line x1="0" y1="37.6328569139753" x2="265.58000087738037" y2="37.6328569139753" fill="rgb(0, 0, 0)" stroke="rgb(60, 60, 60)" stroke-width="1px" opacity="0.25"></line><line x1="0" y1="25.088571275983497" x2="265.58000087738037" y2="25.088571275983497" fill="rgb(0, 0, 0)" stroke="rgb(60, 60, 60)" stroke-width="1px" opacity="0.25"></line><line x1="0" y1="12.544285637991749" x2="265.58000087738037" y2="12.544285637991749" fill="rgb(0, 0, 0)" stroke="rgb(60, 60, 60)" stroke-width="1px" opacity="0.25"></line><line x1="0" y1="0" x2="265.58000087738037" y2="0" fill="rgb(0, 0, 0)" stroke="rgb(60, 60, 60)" stroke-width="1px" opacity="0.25"></line></g></g></g><g><g><line x1="0" y1="150.5314276559012" x2="265.58000087738037" y2="150.5314276559012" fill="rgb(0, 0, 0)" stroke="rgb(153, 153, 153)" stroke-width="1.5px"></line></g></g><g><g><line x1="22.131666739781696" y1="0" x2="22.131666739781696" y2="175.61999893188477" fill="rgb(0, 0, 0)" stroke="rgb(153, 153, 153)" stroke-width="1.5px"></line></g></g><g><g><g><g><g><path style="fill: none;" stroke="rgb(51, 187, 238)" stroke-width="2px" d="M22.131666739781696,135.86071460343442L26.558000087738037,139.68993032372424L30.984333435694378,140.13483381447807L35.41066678365072,141.4693754706207L39.837000131607056,139.95626257724862L44.26333347956339,142.34189427961596L48.68966682751973,141.56485880211406L53.116000175476074,142.03995526018855L57.54233352343242,142.09327369924839L61.968666871388756,142.32422057548246L66.39500021934509,143.4573482458452L70.82133356730144,142.99757550143195L75.24766691525777,143.9922389059364L79.67400026321411,142.8300106078462L84.10033361117044,143.3931864378724L88.52666695912679,143.6679723483977L92.95300030708313,143.3444499837155L97.37933365503946,143.8055989591883L101.80566700299582,143.33081852021536L106.23200035095215,143.8071609463926L110.65833369890849,143.88472874028105L115.08466704686484,143.35864806187087L119.51100039482117,145.08588580174285L123.93733374277751,144.40793779225282L128.36366709073386,144.46323879846724L132.79000043869019,143.26087782689774L137.21633378664654,144.8917782243217L141.64266713460287,144.6454106673823L146.0690004825592,144.16344356850868L150.49533383051553,144.53476133970904L154.9216671784719,144.02221691017135L159.34800052642822,144.08484535374203L163.77433387438458,143.5885586758385L168.20066722234088,144.00374585654873L172.62700057029724,144.25196454940823L177.05333391825357,144.35560070641034L181.47966726620993,145.06259618699525L185.90600061416626,144.71138272155784L190.3323339621226,144.81536936185182L194.75866731007892,145.3815651895767L199.18500065803528,144.77881103381125L203.61133400599164,144.47684397572047L208.03766735394797,144.47337419113055L212.4640007019043,145.50897754896332L216.89033404986063,144.7407590628083L221.31666739781699,145.61536908877866L225.74300074577332,145.09831335513525L230.16933409372967,145.20061417079515L234.59566744168598,144.16388400917887L239.02200078964233,144.64188772615975" fill="none"></path></g><g><path style="fill: none;" stroke="rgb(204, 51, 17)" stroke-width="2px" d="M22.131666739781696,25.08538234533816L26.558000087738037,41.48472922945638L30.984333435694378,98.22282909538006L35.41066678365072,72.0334511107096L39.837000131607056,97.14993898839836L44.26333347956339,129.05553590529368L48.68966682751973,109.38349286905962L53.116000175476074,131.3925713468209L57.54233352343242,88.36075732245283L61.968666871388756,134.03353538459595L66.39500021934509,134.17018181044682L70.82133356730144,133.4175656721701L75.24766691525777,137.50074859544563L79.67400026321411,134.90812905467936L84.10033361117044,135.9306301787828L88.52666695912679,133.77608554596628L92.95300030708313,134.56779342234526L97.37933365503946,128.8155973802056L101.80566700299582,140.35620256648298L106.23200035095215,138.80683392897902L110.65833369890849,136.90705326449847L115.08466704686484,134.5655293002795L119.51100039482117,138.359236389988L123.93733374277751,127.71735798499748L128.36366709073386,140.3663151777323L132.79000043869019,141.1773644745755L137.21633378664654,139.69772740869166L141.64266713460287,139.94150489410382L146.0690004825592,140.6957624624643L150.49533383051553,138.14589370536788L154.9216671784719,137.09600231200147L159.34800052642822,140.76723652018404L163.77433387438458,141.07752171506954L168.20066722234088,143.00772549756573L172.62700057029724,142.3956706835106L177.05333391825357,143.60954386294176L181.47966726620993,142.51928555642934L185.90600061416626,143.47460253830604L190.3323339621226,139.96592773816192L194.75866731007892,143.79385192752102L199.18500065803528,144.10006041758277L203.61133400599164,141.5550183995548L208.03766735394797,139.55092280876352L212.4640007019043,142.9756054562784L216.89033404986063,144.56265280007943L221.31666739781699,143.75392136607343L225.74300074577332,143.15113741922818L230.16933409372967,117.61829408318948L234.59566744168598,144.73369156722688L239.02200078964233,145.9856982050264" fill="none"></path></g><g><path style="fill: none;" stroke="rgb(238, 51, 119)" stroke-width="2px" d="M22.131666739781696,132.6527129938951L26.558000087738037,136.0855543083069L30.984333435694378,139.55662984503348L35.41066678365072,139.55049989225793L39.837000131607056,137.67696808978636L44.26333347956339,135.9446588566804L48.68966682751973,139.85135358175805L53.116000175476074,139.96402811871977L57.54233352343242,141.7369157232245L61.968666871388756,140.32802838292378L66.39500021934509,141.24947758016418L70.82133356730144,142.04929972888976L75.24766691525777,142.5283256888054L79.67400026321411,141.7268562686078L84.10033361117044,140.66353902860587L88.52666695912679,141.30225218598272L92.95300030708313,140.9407730649252L97.37933365503946,141.93160568704906L101.80566700299582,143.58180486280335L106.23200035095215,141.73468022396094L110.65833369890849,141.38300412057822L115.08466704686484,143.45962054585442L119.51100039482117,142.5481525286289L123.93733374277751,142.0488505261373L128.36366709073386,143.14295889161139L132.79000043869019,140.6147237157083L137.21633378664654,142.356476136976L141.64266713460287,142.51644080037664L146.0690004825592,143.47443313804828L150.49533383051553,144.42616233929346L154.9216671784719,141.40471597637338L159.34800052642822,143.00410675757675L163.77433387438458,143.15193768941137L168.20066722234088,142.04337013572942L172.62700057029724,142.69998481137952L177.05333391825357,142.34031885721882L181.47966726620993,143.3207835994291L185.90600061416626,143.92403894630195L190.3323339621226,144.2227097090323L194.75866731007892,144.57205334610737L199.18500065803528,143.80400951745946L203.61133400599164,142.83011575283376L208.03766735394797,143.00167615594734L212.4640007019043,143.93850572831448L216.89033404986063,142.7178103916062L221.31666739781699,143.85095792268882L225.74300074577332,141.6413132274119L230.16933409372967,143.6451973599504L234.59566744168598,142.73225439220474L239.02200078964233,143.4906797910449" fill="none"></path></g><g><path style="fill: none;" stroke="rgb(0, 119, 187)" stroke-width="2px" d="M22.131666739781696,125.07013898873942L26.558000087738037,113.46644330508484L30.984333435694378,124.03159390780986L35.41066678365072,127.0189335733163L39.837000131607056,120.95434593170671L44.26333347956339,116.36277414245797L48.68966682751973,125.1943198921746L53.116000175476074,128.4825845121172L57.54233352343242,125.17031645978915L61.968666871388756,121.55081942688109L66.39500021934509,122.49260308057943L70.82133356730144,120.50904756311066L75.24766691525777,126.24984939343025L79.67400026321411,118.08611450812387L84.10033361117044,129.22408332037443L88.52666695912679,131.30733147367246L92.95300030708313,129.61066639135402L97.37933365503946,126.78170545235234L101.80566700299582,126.7862290233733L106.23200035095215,122.87935204698385L110.65833369890849,127.57113869216683L115.08466704686484,112.21999854505856L119.51100039482117,127.20646550004233L123.93733374277751,120.16697587020397L128.36366709073386,131.04512324021624L132.79000043869019,116.83176284503205L137.21633378664654,121.82695352980264L141.64266713460287,129.56577882788116L146.0690004825592,117.07393745352252L150.49533383051553,128.42646746397142L154.9216671784719,127.69376812289647L159.34800052642822,127.2035377962772L163.77433387438458,127.51449591908317L168.20066722234088,129.1749105145191L172.62700057029724,125.8893609718112" fill="none"></path></g><g><path style="fill: none;" stroke="rgb(255, 112, 67)" stroke-width="2px" d="M22.131666739781696,138.88897319327165L26.558000087738037,139.9157432038706L30.984333435694378,139.65950253259803L35.41066678365072,140.75583705111458L39.837000131607056,140.68282028277162L44.26333347956339,139.76364864278986L48.68966682751973,141.22123797305713L53.116000175476074,141.50761378190717L57.54233352343242,141.11049226247857L61.968666871388756,142.10571760852775L66.39500021934509,141.28185756322634L70.82133356730144,142.75057649042827L75.24766691525777,142.6057270031302L79.67400026321411,141.01109169605925L84.10033361117044,141.93918547237547L88.52666695912679,142.61442891912958L92.95300030708313,141.56733613484909L97.37933365503946,139.5621943514314L101.80566700299582,141.98085968820035L106.23200035095215,142.31691825609545L110.65833369890849,142.56066887112192L115.08466704686484,141.232409043848L119.51100039482117,141.14191016890445L123.93733374277751,143.3591106998162L128.36366709073386,143.3757510623774L132.79000043869019,142.62926838170915L137.21633378664654,141.59739124540823L141.64266713460287,141.83472217480448L146.0690004825592,142.32281338506544L150.49533383051553,142.80892611714353L154.9216671784719,142.54480307663584L159.34800052642822,141.9725029982435L163.77433387438458,143.16016002743964L168.20066722234088,141.75949327275072L172.62700057029724,140.52638089714878L177.05333391825357,142.46280050082706L181.47966726620993,142.57320273777952L185.90600061416626,138.5858144919884L190.3323339621226,143.08345383831048L194.75866731007892,141.83018224789657L199.18500065803528,143.61179104498177L203.61133400599164,140.17004687081655L208.03766735394797,142.5804717612538L212.4640007019043,143.63073817174256L216.89033404986063,142.48595576364607L221.31666739781699,142.86878106959756L225.74300074577332,143.39303923488978L230.16933409372967,143.31573079863733L234.59566744168598,143.09846153287018L239.02200078964233,143.10570193354226" fill="none"></path></g></g></g></g></g></g><g transform="translate(64, 175)" clip-path="url(#clip_1)"><clipPath id="clip_1"><rect width="265" height="24"></rect></clipPath><g><g><line x1="0" y1="0" x2="0" y2="5" style="visibility: inherit;" fill="rgb(0, 0, 0)" stroke="rgb(204, 204, 204)" stroke-width="1px"></line><line x1="22.131666739781696" y1="0" x2="22.131666739781696" y2="5" style="visibility: inherit;" fill="rgb(0, 0, 0)" stroke="rgb(204, 204, 204)" stroke-width="1px"></line><line x1="44.26333347956339" y1="0" x2="44.26333347956339" y2="5" style="visibility: inherit;" fill="rgb(0, 0, 0)" stroke="rgb(204, 204, 204)" stroke-width="1px"></line><line x1="66.39500021934509" y1="0" x2="66.39500021934509" y2="5" style="visibility: inherit;" fill="rgb(0, 0, 0)" stroke="rgb(204, 204, 204)" stroke-width="1px"></line><line x1="88.52666695912679" y1="0" x2="88.52666695912679" y2="5" style="visibility: inherit;" fill="rgb(0, 0, 0)" stroke="rgb(204, 204, 204)" stroke-width="1px"></line><line x1="110.65833369890849" y1="0" x2="110.65833369890849" y2="5" style="visibility: inherit;" fill="rgb(0, 0, 0)" stroke="rgb(204, 204, 204)" stroke-width="1px"></line><line x1="132.79000043869019" y1="0" x2="132.79000043869019" y2="5" style="visibility: inherit;" fill="rgb(0, 0, 0)" stroke="rgb(204, 204, 204)" stroke-width="1px"></line><line x1="154.9216671784719" y1="0" x2="154.9216671784719" y2="5" style="visibility: inherit;" fill="rgb(0, 0, 0)" stroke="rgb(204, 204, 204)" stroke-width="1px"></line><line x1="177.05333391825357" y1="0" x2="177.05333391825357" y2="5" style="visibility: inherit;" fill="rgb(0, 0, 0)" stroke="rgb(204, 204, 204)" stroke-width="1px"></line><line x1="199.18500065803528" y1="0" x2="199.18500065803528" y2="5" style="visibility: inherit;" fill="rgb(0, 0, 0)" stroke="rgb(204, 204, 204)" stroke-width="1px"></line><line x1="221.31666739781699" y1="0" x2="221.31666739781699" y2="5" style="visibility: inherit;" fill="rgb(0, 0, 0)" stroke="rgb(204, 204, 204)" stroke-width="1px"></line><line x1="243.44833413759866" y1="0" x2="243.44833413759866" y2="5" style="visibility: inherit;" fill="rgb(0, 0, 0)" stroke="rgb(204, 204, 204)" stroke-width="1px"></line><line x1="265.58000087738037" y1="0" x2="265.58000087738037" y2="5" style="visibility: inherit;" fill="rgb(0, 0, 0)" stroke="rgb(204, 204, 204)" stroke-width="1px"></line></g><g transform="translate(0, 8)"><text style="text-anchor: middle; visibility: hidden; font-family: &quot;Helvetica Neue&quot;, sans-serif; font-size: 12px; font-weight: 200;" x="0" y="0" dx="0em" dy="0.95em" fill="rgb(50, 49, 63)" stroke="none" stroke-width="1px">-5</text><text style="text-anchor: middle; visibility: inherit; font-family: &quot;Helvetica Neue&quot;, sans-serif; font-size: 12px; font-weight: 200;" x="22.131666739781696" y="0" dx="0em" dy="0.95em" fill="rgb(50, 49, 63)" stroke="none" stroke-width="1px">0</text><text style="text-anchor: middle; visibility: inherit; font-family: &quot;Helvetica Neue&quot;, sans-serif; font-size: 12px; font-weight: 200;" x="44.26333347956339" y="0" dx="0em" dy="0.95em" fill="rgb(50, 49, 63)" stroke="none" stroke-width="1px">5</text><text style="text-anchor: middle; visibility: inherit; font-family: &quot;Helvetica Neue&quot;, sans-serif; font-size: 12px; font-weight: 200;" x="66.39500021934509" y="0" dx="0em" dy="0.95em" fill="rgb(50, 49, 63)" stroke="none" stroke-width="1px">10</text><text style="text-anchor: middle; visibility: inherit; font-family: &quot;Helvetica Neue&quot;, sans-serif; font-size: 12px; font-weight: 200;" x="88.52666695912679" y="0" dx="0em" dy="0.95em" fill="rgb(50, 49, 63)" stroke="none" stroke-width="1px">15</text><text style="text-anchor: middle; visibility: inherit; font-family: &quot;Helvetica Neue&quot;, sans-serif; font-size: 12px; font-weight: 200;" x="110.65833369890849" y="0" dx="0em" dy="0.95em" fill="rgb(50, 49, 63)" stroke="none" stroke-width="1px">20</text><text style="text-anchor: middle; visibility: inherit; font-family: &quot;Helvetica Neue&quot;, sans-serif; font-size: 12px; font-weight: 200;" x="132.79000043869019" y="0" dx="0em" dy="0.95em" fill="rgb(50, 49, 63)" stroke="none" stroke-width="1px">25</text><text style="text-anchor: middle; visibility: inherit; font-family: &quot;Helvetica Neue&quot;, sans-serif; font-size: 12px; font-weight: 200;" x="154.9216671784719" y="0" dx="0em" dy="0.95em" fill="rgb(50, 49, 63)" stroke="none" stroke-width="1px">30</text><text style="text-anchor: middle; visibility: inherit; font-family: &quot;Helvetica Neue&quot;, sans-serif; font-size: 12px; font-weight: 200;" x="177.05333391825357" y="0" dx="0em" dy="0.95em" fill="rgb(50, 49, 63)" stroke="none" stroke-width="1px">35</text><text style="text-anchor: middle; visibility: inherit; font-family: &quot;Helvetica Neue&quot;, sans-serif; font-size: 12px; font-weight: 200;" x="199.18500065803528" y="0" dx="0em" dy="0.95em" fill="rgb(50, 49, 63)" stroke="none" stroke-width="1px">40</text><text style="text-anchor: middle; visibility: inherit; font-family: &quot;Helvetica Neue&quot;, sans-serif; font-size: 12px; font-weight: 200;" x="221.31666739781699" y="0" dx="0em" dy="0.95em" fill="rgb(50, 49, 63)" stroke="none" stroke-width="1px">45</text><text style="text-anchor: middle; visibility: inherit; font-family: &quot;Helvetica Neue&quot;, sans-serif; font-size: 12px; font-weight: 200;" x="243.44833413759866" y="0" dx="0em" dy="0.95em" fill="rgb(50, 49, 63)" stroke="none" stroke-width="1px">50</text><text style="text-anchor: middle; visibility: hidden; font-family: &quot;Helvetica Neue&quot;, sans-serif; font-size: 12px; font-weight: 200;" x="265.58000087738037" y="0" dx="0em" dy="0.95em" fill="rgb(50, 49, 63)" stroke="none" stroke-width="1px">55</text></g><line x1="0" y1="0" x2="265.58000087738037" y2="0" fill="rgb(0, 0, 0)" stroke="rgb(204, 204, 204)" stroke-width="1px"></line></g></g></g></g></svg>