<svg viewBox="0 0 330 200" xmlns="http://www.w3.org/2000/svg"><g><g><g><g><g><line x1="53.5359992980957" y1="175.61999893188477" x2="48.5359992980957" y2="175.61999893188477" style="visibility: inherit;" fill="rgb(0, 0, 0)" stroke="rgb(204, 204, 204)" stroke-width="1px"></line><line x1="53.5359992980957" y1="162.1107682448167" x2="48.5359992980957" y2="162.1107682448167" style="visibility: inherit;" fill="rgb(0, 0, 0)" stroke="rgb(204, 204, 204)" stroke-width="1px"></line><line x1="53.5359992980957" y1="148.60153755774866" x2="48.5359992980957" y2="148.60153755774866" style="visibility: inherit;" fill="rgb(0, 0, 0)" stroke="rgb(204, 204, 204)" stroke-width="1px"></line><line x1="53.5359992980957" y1="135.0923068706806" x2="48.5359992980957" y2="135.0923068706806" style="visibility: inherit;" fill="rgb(0, 0, 0)" stroke="rgb(204, 204, 204)" stroke-width="1px"></line><line x1="53.5359992980957" y1="121.58307618361252" x2="48.5359992980957" y2="121.58307618361252" style="visibility: inherit;" fill="rgb(0, 0, 0)" stroke="rgb(204, 204, 204)" stroke-width="1px"></line><line x1="53.5359992980957" y1="108.07384549654448" x2="48.5359992980957" y2="108.07384549654448" style="visibility: inherit;" fill="rgb(0, 0, 0)" stroke="rgb(204, 204, 204)" stroke-width="1px"></line><line x1="53.5359992980957" y1="94.56461480947642" x2="48.5359992980957" y2="94.56461480947642" style="visibility: inherit;" fill="rgb(0, 0, 0)" stroke="rgb(204, 204, 204)" stroke-width="1px"></line><line x1="53.5359992980957" y1="81.05538412240836" x2="48.5359992980957" y2="81.05538412240836" style="visibility: inherit;" fill="rgb(0, 0, 0)" stroke="rgb(204, 204, 204)" stroke-width="1px"></line><line x1="53.5359992980957" y1="67.5461534353403" x2="48.5359992980957" y2="67.5461534353403" style="visibility: inherit;" fill="rgb(0, 0, 0)" stroke="rgb(204, 204, 204)" stroke-width="1px"></line><line x1="53.5359992980957" y1="54.03692274827223" x2="48.5359992980957" y2="54.03692274827223" style="visibility: inherit;" fill="rgb(0, 0, 0)" stroke="rgb(204, 204, 204)" stroke-width="1px"></line><line x1="53.5359992980957" y1="40.52769206120419" x2="48.5359992980957" y2="40.52769206120419" style="visibility: inherit;" fill="rgb(0, 0, 0)" stroke="rgb(204, 204, 204)" stroke-width="1px"></line><line x1="53.5359992980957" y1="27.01846137413611" x2="48.5359992980957" y2="27.01846137413611" style="visibility: inherit;" fill="rgb(0, 0, 0)" stroke="rgb(204, 204, 204)" stroke-width="1px"></line><line x1="53.5359992980957" y1="13.509230687068055" x2="48.5359992980957" y2="13.509230687068055" style="visibility: inherit;" fill="rgb(0, 0, 0)" stroke="rgb(204, 204, 204)" stroke-width="1px"></line><line x1="53.5359992980957" y1="0" x2="48.5359992980957" y2="0" style="visibility: inherit;" fill="rgb(0, 0, 0)" stroke="rgb(204, 204, 204)" stroke-width="1px"></line></g><g transform="translate(43.5359992980957, 0)"><text style="text-anchor: end; visibility: hidden; font-family: &quot;Helvetica Neue&quot;, sans-serif; font-size: 12px; font-weight: 200;" x="0" y="175.61999893188477" dx="0em" dy="0.3em" fill="rgb(50, 49, 63)" stroke="none" stroke-width="1px">-0.1</text><text style="text-anchor: end; visibility: inherit; font-family: &quot;Helvetica Neue&quot;, sans-serif; font-size: 12px; font-weight: 200;" x="0" y="162.1107682448167" dx="0em" dy="0.3em" fill="rgb(50, 49, 63)" stroke="none" stroke-width="1px">0</text><text style="text-anchor: end; visibility: hidden; font-family: &quot;Helvetica Neue&quot;, sans-serif; font-size: 12px; font-weight: 200;" x="0" y="148.60153755774866" dx="0em" dy="0.3em" fill="rgb(50, 49, 63)" stroke="none" stroke-width="1px">0.1</text><text style="text-anchor: end; visibility: hidden; font-family: &quot;Helvetica Neue&quot;, sans-serif; font-size: 12px; font-weight: 200;" x="0" y="135.0923068706806" dx="0em" dy="0.3em" fill="rgb(50, 49, 63)" stroke="none" stroke-width="1px">0.2</text><text style="text-anchor: end; visibility: inherit; font-family: &quot;Helvetica Neue&quot;, sans-serif; font-size: 12px; font-weight: 200;" x="0" y="121.58307618361252" dx="0em" dy="0.3em" fill="rgb(50, 49, 63)" stroke="none" stroke-width="1px">0.3</text><text style="text-anchor: end; visibility: hidden; font-family: &quot;Helvetica Neue&quot;, sans-serif; font-size: 12px; font-weight: 200;" x="0" y="108.07384549654448" dx="0em" dy="0.3em" fill="rgb(50, 49, 63)" stroke="none" stroke-width="1px">0.4</text><text style="text-anchor: end; visibility: hidden; font-family: &quot;Helvetica Neue&quot;, sans-serif; font-size: 12px; font-weight: 200;" x="0" y="94.56461480947642" dx="0em" dy="0.3em" fill="rgb(50, 49, 63)" stroke="none" stroke-width="1px">0.5</text><text style="text-anchor: end; visibility: inherit; font-family: &quot;Helvetica Neue&quot;, sans-serif; font-size: 12px; font-weight: 200;" x="0" y="81.05538412240836" dx="0em" dy="0.3em" fill="rgb(50, 49, 63)" stroke="none" stroke-width="1px">0.6</text><text style="text-anchor: end; visibility: hidden; font-family: &quot;Helvetica Neue&quot;, sans-serif; font-size: 12px; font-weight: 200;" x="0" y="67.5461534353403" dx="0em" dy="0.3em" fill="rgb(50, 49, 63)" stroke="none" stroke-width="1px">0.7</text><text style="text-anchor: end; visibility: hidden; font-family: &quot;Helvetica Neue&quot;, sans-serif; font-size: 12px; font-weight: 200;" x="0" y="54.03692274827223" dx="0em" dy="0.3em" fill="rgb(50, 49, 63)" stroke="none" stroke-width="1px">0.8</text><text style="text-anchor: end; visibility: inherit; font-family: &quot;Helvetica Neue&quot;, sans-serif; font-size: 12px; font-weight: 200;" x="0" y="40.52769206120419" dx="0em" dy="0.3em" fill="rgb(50, 49, 63)" stroke="none" stroke-width="1px">0.9</text><text style="text-anchor: end; visibility: hidden; font-family: &quot;Helvetica Neue&quot;, sans-serif; font-size: 12px; font-weight: 200;" x="0" y="27.01846137413611" dx="0em" dy="0.3em" fill="rgb(50, 49, 63)" stroke="none" stroke-width="1px">1</text><text style="text-anchor: end; visibility: hidden; font-family: &quot;Helvetica Neue&quot;, sans-serif; font-size: 12px; font-weight: 200;" x="0" y="13.509230687068055" dx="0em" dy="0.3em" fill="rgb(50, 49, 63)" stroke="none" stroke-width="1px">1.1</text><text style="text-anchor: end; visibility: hidden; font-family: &quot;Helvetica Neue&quot;, sans-serif; font-size: 12px; font-weight: 200;" x="0" y="0" dx="0em" dy="0.3em" fill="rgb(50, 49, 63)" stroke="none" stroke-width="1px">1.2</text></g><line x1="53.5359992980957" y1="0" x2="53.5359992980957" y2="175.61999893188477" fill="rgb(0, 0, 0)" stroke="rgb(204, 204, 204)" stroke-width="1px"></line></g></g><g transform="translate(53, 0)" clip-path="url(#clip_0)"><clipPath id="clip_0"><rect width="276" height="175"></rect></clipPath><g><g><g><line x1="0" y1="0" x2="0" y2="175.61999893188477" fill="rgb(0, 0, 0)" stroke="rgb(60, 60, 60)" stroke-width="1px" opacity="0.25"></line><line x1="23.03866672515869" y1="0" x2="23.03866672515869" y2="175.61999893188477" fill="rgb(0, 0, 0)" stroke="rgb(60, 60, 60)" stroke-width="1px" opacity="0.25"></line><line x1="46.07733345031738" y1="0" x2="46.07733345031738" y2="175.61999893188477" fill="rgb(0, 0, 0)" stroke="rgb(60, 60, 60)" stroke-width="1px" opacity="0.25"></line><line x1="69.11600017547607" y1="0" x2="69.11600017547607" y2="175.61999893188477" fill="rgb(0, 0, 0)" stroke="rgb(60, 60, 60)" stroke-width="1px" opacity="0.25"></line><line x1="92.15466690063477" y1="0" x2="92.15466690063477" y2="175.61999893188477" fill="rgb(0, 0, 0)" stroke="rgb(60, 60, 60)" stroke-width="1px" opacity="0.25"></line><line x1="115.19333362579346" y1="0" x2="115.19333362579346" y2="175.61999893188477" fill="rgb(0, 0, 0)" stroke="rgb(60, 60, 60)" stroke-width="1px" opacity="0.25"></line><line x1="138.23200035095215" y1="0" x2="138.23200035095215" y2="175.61999893188477" fill="rgb(0, 0, 0)" stroke="rgb(60, 60, 60)" stroke-width="1px" opacity="0.25"></line><line x1="161.27066707611084" y1="0" x2="161.27066707611084" y2="175.61999893188477" fill="rgb(0, 0, 0)" stroke="rgb(60, 60, 60)" stroke-width="1px" opacity="0.25"></line><line x1="184.30933380126953" y1="0" x2="184.30933380126953" y2="175.61999893188477" fill="rgb(0, 0, 0)" stroke="rgb(60, 60, 60)" stroke-width="1px" opacity="0.25"></line><line x1="207.34800052642822" y1="0" x2="207.34800052642822" y2="175.61999893188477" fill="rgb(0, 0, 0)" stroke="rgb(60, 60, 60)" stroke-width="1px" opacity="0.25"></line><line x1="230.3866672515869" y1="0" x2="230.3866672515869" y2="175.61999893188477" fill="rgb(0, 0, 0)" stroke="rgb(60, 60, 60)" stroke-width="1px" opacity="0.25"></line><line x1="253.4253339767456" y1="0" x2="253.4253339767456" y2="175.61999893188477" fill="rgb(0, 0, 0)" stroke="rgb(60, 60, 60)" stroke-width="1px" opacity="0.25"></line><line x1="276.4640007019043" y1="0" x2="276.4640007019043" y2="175.61999893188477" fill="rgb(0, 0, 0)" stroke="rgb(60, 60, 60)" stroke-width="1px" opacity="0.25"></line></g><g><line x1="0" y1="175.61999893188477" x2="276.4640007019043" y2="175.61999893188477" fill="rgb(0, 0, 0)" stroke="rgb(60, 60, 60)" stroke-width="1px" opacity="0.25"></line><line x1="0" y1="162.1107682448167" x2="276.4640007019043" y2="162.1107682448167" fill="rgb(0, 0, 0)" stroke="rgb(60, 60, 60)" stroke-width="1px" opacity="0.25"></line><line x1="0" y1="148.60153755774866" x2="276.4640007019043" y2="148.60153755774866" fill="rgb(0, 0, 0)" stroke="rgb(60, 60, 60)" stroke-width="1px" opacity="0.25"></line><line x1="0" y1="135.0923068706806" x2="276.4640007019043" y2="135.0923068706806" fill="rgb(0, 0, 0)" stroke="rgb(60, 60, 60)" stroke-width="1px" opacity="0.25"></line><line x1="0" y1="121.58307618361252" x2="276.4640007019043" y2="121.58307618361252" fill="rgb(0, 0, 0)" stroke="rgb(60, 60, 60)" stroke-width="1px" opacity="0.25"></line><line x1="0" y1="108.07384549654448" x2="276.4640007019043" y2="108.07384549654448" fill="rgb(0, 0, 0)" stroke="rgb(60, 60, 60)" stroke-width="1px" opacity="0.25"></line><line x1="0" y1="94.56461480947642" x2="276.4640007019043" y2="94.56461480947642" fill="rgb(0, 0, 0)" stroke="rgb(60, 60, 60)" stroke-width="1px" opacity="0.25"></line><line x1="0" y1="81.05538412240836" x2="276.4640007019043" y2="81.05538412240836" fill="rgb(0, 0, 0)" stroke="rgb(60, 60, 60)" stroke-width="1px" opacity="0.25"></line><line x1="0" y1="67.5461534353403" x2="276.4640007019043" y2="67.5461534353403" fill="rgb(0, 0, 0)" stroke="rgb(60, 60, 60)" stroke-width="1px" opacity="0.25"></line><line x1="0" y1="54.03692274827223" x2="276.4640007019043" y2="54.03692274827223" fill="rgb(0, 0, 0)" stroke="rgb(60, 60, 60)" stroke-width="1px" opacity="0.25"></line><line x1="0" y1="40.52769206120419" x2="276.4640007019043" y2="40.52769206120419" fill="rgb(0, 0, 0)" stroke="rgb(60, 60, 60)" stroke-width="1px" opacity="0.25"></line><line x1="0" y1="27.01846137413611" x2="276.4640007019043" y2="27.01846137413611" fill="rgb(0, 0, 0)" stroke="rgb(60, 60, 60)" stroke-width="1px" opacity="0.25"></line><line x1="0" y1="13.509230687068055" x2="276.4640007019043" y2="13.509230687068055" fill="rgb(0, 0, 0)" stroke="rgb(60, 60, 60)" stroke-width="1px" opacity="0.25"></line><line x1="0" y1="0" x2="276.4640007019043" y2="0" fill="rgb(0, 0, 0)" stroke="rgb(60, 60, 60)" stroke-width="1px" opacity="0.25"></line></g></g></g><g><g><line x1="0" y1="162.1107682448167" x2="276.4640007019043" y2="162.1107682448167" fill="rgb(0, 0, 0)" stroke="rgb(153, 153, 153)" stroke-width="1.5px"></line></g></g><g><g><line x1="23.03866672515869" y1="0" x2="23.03866672515869" y2="175.61999893188477" fill="rgb(0, 0, 0)" stroke="rgb(153, 153, 153)" stroke-width="1.5px"></line></g></g><g><g><g><g><g><path style="fill: none;" stroke="rgb(51, 187, 238)" stroke-width="2px" d="M23.03866672515869,52.51692880564596L27.64640007019043,47.4407056648451L32.25413341522217,47.00095474579342L36.8618667602539,44.594809516966194L41.46960010528564,46.819540280258934L46.07733345031738,42.43651686974647L50.685066795349115,44.35698988804651L55.29280014038086,43.10090608260555L59.9005334854126,42.42418906030423L64.50826683044434,42.848423526844385L69.11600017547607,40.406164499618484L73.7237335205078,41.592822849141186L78.33146686553955,39.40618670797198L82.93920021057129,41.137273653064284L87.54693355560302,40.758735018388705L92.15466690063477,40.31070651076311L96.7624002456665,40.8840583535675L101.37013359069823,39.978153584594736L105.97786693572999,40.293764831425165L110.58560028076172,39.562905293977224L115.19333362579346,40.02230340769839L119.8010669708252,40.81117853432417L124.40880031585694,37.31669950274036L129.01653366088868,38.89771086822182L133.62426700592042,38.28934031655774L138.23200035095215,40.26030018345526L142.8397336959839,37.92973223707398L147.4474670410156,38.09356085295346L152.05520038604737,39.024717098353904L156.6629337310791,38.069678238449455L161.27066707611084,39.41208086637286L165.87840042114257,38.84926120825196L170.48613376617433,40.13854394140705L175.09386711120604,39.00519068561883L179.7016004562378,38.62091893512164L184.30933380126953,38.9366912245313L188.91706714630126,37.695004625676034L193.524800491333,38.15452352133167L198.13253383636476,37.82785670143517L202.74026718139646,36.89374532470535L207.34800052642822,37.76414825708059L211.95573387145998,38.1581228229781L216.5634672164917,38.5938718339352L221.17120056152345,36.69833625903331L225.77893390655518,37.71714798032406L230.3866672515869,36.54024075897544L234.99440059661865,37.05899916741123L239.6021339416504,37.428116811200226L244.2098672866821,39.2450152946503L248.81760063171387,38.05452413174123" fill="none"></path></g><g><path style="fill: none;" stroke="rgb(204, 51, 17)" stroke-width="2px" d="M23.03866672515869,156.72871216129477L27.64640007019043,115.51435406854594L32.25413341522217,65.29091476583287L36.8618667602539,90.7794136616866L41.46960010528564,65.91719325231047L46.07733345031738,44.90334294243823L50.685066795349115,54.301924754144935L55.29280014038086,43.09646935954697L59.9005334854126,69.37859413811458L64.50826683044434,41.26905479567134L69.11600017547607,41.11672461995093L73.7237335205078,41.05559285686448L78.33146686553955,38.4001295589585L82.93920021057129,40.72783094742903L87.54693355560302,39.90004793365446L92.15466690063477,40.344630130083885L96.7624002456665,40.98066779686454L101.37013359069823,43.57450815181733L105.97786693572999,35.925130575369394L110.58560028076172,37.2361782131112L115.19333362579346,38.73202221055192L119.8010669708252,40.788197758264005L124.40880031585694,37.44335143919807L129.01653366088868,44.266636948953646L133.62426700592042,35.772083760171284L138.23200035095215,35.30278152782569L142.8397336959839,36.43943615648871L147.4474670410156,36.21097310142392L152.05520038604737,35.3795585774871L156.6629337310791,37.764889052945165L161.27066707611084,37.63868803570941L165.87840042114257,35.31875695168813L170.48613376617433,34.981678729042585L175.09386711120604,33.31764186182451L179.7016004562378,33.99146011769915L184.30933380126953,32.83539180610657L188.91706714630126,33.923669243960376L193.524800491333,33.16048846085528L198.13253383636476,35.94725782575949L202.74026718139646,32.93245216862553L207.34800052642822,32.50490022495268L211.95573387145998,34.3917878133484L216.5634672164917,36.4476412759019L221.17120056152345,33.30133630067459L225.77893390655518,32.10373510789128L230.3866672515869,32.571434966573236L234.99440059661865,33.284225526628404L239.6021339416504,47.59136099774125L244.2098672866821,31.98406436724443L248.81760063171387,30.924420299982756" fill="none"></path></g><g><path style="fill: none;" stroke="rgb(238, 51, 119)" stroke-width="2px" d="M23.03866672515869,42.54271639863836L27.64640007019043,39.50180573940659L32.25413341522217,36.50388539670789L36.8618667602539,36.55948534719681L41.46960010528564,38.111919706988886L46.07733345031738,39.69521787709584L50.685066795349115,36.31009480895739L55.29280014038086,35.842934442915976L59.9005334854126,34.60855917715901L64.50826683044434,35.8664627637456L69.11600017547607,34.97400505014093L73.7237335205078,34.377261772699285L78.33146686553955,33.80638998561551L82.93920021057129,34.607697599359994L87.54693355560302,35.681714716820466L92.15466690063477,34.883901727045895L96.7624002456665,35.31346670295949L101.37013359069823,34.183495341335714L105.97786693572999,32.92489121952937L110.58560028076172,34.57310565333532L115.19333362579346,34.64805486972213L119.8010669708252,33.14200882488538L124.40880031585694,34.00363493669107L129.01653366088868,34.37117436320332L133.62426700592042,33.31860006517107L138.23200035095215,35.96042305661388L142.8397336959839,33.931302662217206L147.4474670410156,33.82362154159614L152.05520038604737,33.10308483347865L156.6629337310791,32.398451080062955L161.27066707611084,34.75660562027119L165.87840042114257,33.55108918471731L170.48613376617433,32.963444813003775L175.09386711120604,34.372390234676715L179.7016004562378,33.87605700540266L184.30933380126953,33.856450071377935L188.91706714630126,32.95522358933266L193.524800491333,32.55846298681399L198.13253383636476,32.35109650963204L202.74026718139646,32.228059979078694L207.34800052642822,33.0081099723611L211.95573387145998,33.57008415694085L216.5634672164917,33.345357289714855L221.17120056152345,32.73187363615932L225.77893390655518,33.642424483543664L230.3866672515869,32.82560846941661L234.99440059661865,33.868874506367746L239.6021339416504,33.01536494055665L244.2098672866821,33.43824664943102L248.81760063171387,32.87855121734776" fill="none"></path></g><g><path style="fill: none;" stroke="rgb(0, 119, 187)" stroke-width="2px" d="M23.03866672515869,52.415745753097966L27.64640007019043,45.02386720875512L32.25413341522217,49.5057466065453L36.8618667602539,48.96092345665656L41.46960010528564,44.25107218366833L46.07733345031738,41.06050465553187L50.685066795349115,48.40915937160176L55.29280014038086,47.82300464374636L59.9005334854126,45.79957710452652L64.50826683044434,43.0470453919726L69.11600017547607,44.38573598844411L73.7237335205078,41.96286648776092L78.33146686553955,46.06431500056922L82.93920021057129,39.668066098232885L87.54693355560302,51.54153416372324L92.15466690063477,49.48814465263237L96.7624002456665,48.984443725357224L101.37013359069823,45.87054051707668L105.97786693572999,44.220892804315326L110.58560028076172,43.32169545876866L115.19333362579346,44.97569132116999L119.8010669708252,37.92751790160918L124.40880031585694,45.93102005771712L129.01653366088868,45.73838092440835L133.62426700592042,49.480366296054186L138.23200035095215,40.57052455600953L142.8397336959839,42.26581978786163L147.4474670410156,46.387825385912265L152.05520038604737,39.858378166271365L156.6629337310791,44.748548815255134L161.27066707611084,44.881505568690784L165.87840042114257,46.99830559536463L170.48613376617433,44.11798659616926L175.09386711120604,46.7806404452391L179.7016004562378,42.04447481480008" fill="none"></path></g><g><path style="fill: none;" stroke="rgb(255, 112, 67)" stroke-width="2px" d="M23.03866672515869,37.090829233201646L27.64640007019043,36.20524803773128L32.25413341522217,36.40547227652314L36.8618667602539,35.13024050840838L41.46960010528564,35.69801222584144L46.07733345031738,36.32479799644369L50.685066795349115,35.153817142011775L55.29280014038086,34.87329707320174L59.9005334854126,35.09196873944762L64.50826683044434,34.340012624116866L69.11600017547607,35.00259816008824L73.7237335205078,33.801776115719775L78.33146686553955,33.84713375816784L82.93920021057129,35.03077255932948L87.54693355560302,34.250392428759596L92.15466690063477,33.877876786548285L96.7624002456665,34.770133196928896L101.37013359069823,35.770392813089074L105.97786693572999,34.38306735768154L110.58560028076172,33.84721427945749L115.19333362579346,34.10755571308644L119.8010669708252,34.655857382687174L124.40880031585694,35.09252433634606L129.01653366088868,33.10066114266081L133.62426700592042,33.27283176414588L138.23200035095215,33.79316838985841L142.8397336959839,34.58677011618536L147.4474670410156,34.44277389394156L152.05520038604737,34.0997773565083L156.6629337310791,33.724290478709634L161.27066707611084,33.747834903797184L165.87840042114257,34.46565804445416L170.48613376617433,33.43603231396625L175.09386711120604,34.58693115876463L179.7016004562378,35.21145428112834L184.30933380126953,33.857118398081866L188.91706714630126,33.8083224965666L193.524800491333,35.94844148871704L198.13253383636476,33.477065963161266L202.74026718139646,34.40375327698729L207.34800052642822,32.82551989599801L211.95573387145998,35.4986093042038L216.5634672164917,33.93183410272877L221.17120056152345,32.995838527821604L225.77893390655518,33.78853841570472L230.3866672515869,33.50210003210694L234.99440059661865,33.177043638003056L239.6021339416504,33.263169209390384L244.2098672866821,33.4165220054891L248.81760063171387,33.232812683200194" fill="none"></path></g></g></g></g></g></g><g transform="translate(53, 175)" clip-path="url(#clip_1)"><clipPath id="clip_1"><rect width="276" height="24"></rect></clipPath><g><g><line x1="0" y1="0" x2="0" y2="5" style="visibility: inherit;" fill="rgb(0, 0, 0)" stroke="rgb(204, 204, 204)" stroke-width="1px"></line><line x1="23.03866672515869" y1="0" x2="23.03866672515869" y2="5" style="visibility: inherit;" fill="rgb(0, 0, 0)" stroke="rgb(204, 204, 204)" stroke-width="1px"></line><line x1="46.07733345031738" y1="0" x2="46.07733345031738" y2="5" style="visibility: inherit;" fill="rgb(0, 0, 0)" stroke="rgb(204, 204, 204)" stroke-width="1px"></line><line x1="69.11600017547607" y1="0" x2="69.11600017547607" y2="5" style="visibility: inherit;" fill="rgb(0, 0, 0)" stroke="rgb(204, 204, 204)" stroke-width="1px"></line><line x1="92.15466690063477" y1="0" x2="92.15466690063477" y2="5" style="visibility: inherit;" fill="rgb(0, 0, 0)" stroke="rgb(204, 204, 204)" stroke-width="1px"></line><line x1="115.19333362579346" y1="0" x2="115.19333362579346" y2="5" style="visibility: inherit;" fill="rgb(0, 0, 0)" stroke="rgb(204, 204, 204)" stroke-width="1px"></line><line x1="138.23200035095215" y1="0" x2="138.23200035095215" y2="5" style="visibility: inherit;" fill="rgb(0, 0, 0)" stroke="rgb(204, 204, 204)" stroke-width="1px"></line><line x1="161.27066707611084" y1="0" x2="161.27066707611084" y2="5" style="visibility: inherit;" fill="rgb(0, 0, 0)" stroke="rgb(204, 204, 204)" stroke-width="1px"></line><line x1="184.30933380126953" y1="0" x2="184.30933380126953" y2="5" style="visibility: inherit;" fill="rgb(0, 0, 0)" stroke="rgb(204, 204, 204)" stroke-width="1px"></line><line x1="207.34800052642822" y1="0" x2="207.34800052642822" y2="5" style="visibility: inherit;" fill="rgb(0, 0, 0)" stroke="rgb(204, 204, 204)" stroke-width="1px"></line><line x1="230.3866672515869" y1="0" x2="230.3866672515869" y2="5" style="visibility: inherit;" fill="rgb(0, 0, 0)" stroke="rgb(204, 204, 204)" stroke-width="1px"></line><line x1="253.4253339767456" y1="0" x2="253.4253339767456" y2="5" style="visibility: inherit;" fill="rgb(0, 0, 0)" stroke="rgb(204, 204, 204)" stroke-width="1px"></line><line x1="276.4640007019043" y1="0" x2="276.4640007019043" y2="5" style="visibility: inherit;" fill="rgb(0, 0, 0)" stroke="rgb(204, 204, 204)" stroke-width="1px"></line></g><g transform="translate(0, 8)"><text style="text-anchor: middle; visibility: hidden; font-family: &quot;Helvetica Neue&quot;, sans-serif; font-size: 12px; font-weight: 200;" x="0" y="0" dx="0em" dy="0.95em" fill="rgb(50, 49, 63)" stroke="none" stroke-width="1px">-5</text><text style="text-anchor: middle; visibility: inherit; font-family: &quot;Helvetica Neue&quot;, sans-serif; font-size: 12px; font-weight: 200;" x="23.03866672515869" y="0" dx="0em" dy="0.95em" fill="rgb(50, 49, 63)" stroke="none" stroke-width="1px">0</text><text style="text-anchor: middle; visibility: inherit; font-family: &quot;Helvetica Neue&quot;, sans-serif; font-size: 12px; font-weight: 200;" x="46.07733345031738" y="0" dx="0em" dy="0.95em" fill="rgb(50, 49, 63)" stroke="none" stroke-width="1px">5</text><text style="text-anchor: middle; visibility: inherit; font-family: &quot;Helvetica Neue&quot;, sans-serif; font-size: 12px; font-weight: 200;" x="69.11600017547607" y="0" dx="0em" dy="0.95em" fill="rgb(50, 49, 63)" stroke="none" stroke-width="1px">10</text><text style="text-anchor: middle; visibility: inherit; font-family: &quot;Helvetica Neue&quot;, sans-serif; font-size: 12px; font-weight: 200;" x="92.15466690063477" y="0" dx="0em" dy="0.95em" fill="rgb(50, 49, 63)" stroke="none" stroke-width="1px">15</text><text style="text-anchor: middle; visibility: inherit; font-family: &quot;Helvetica Neue&quot;, sans-serif; font-size: 12px; font-weight: 200;" x="115.19333362579346" y="0" dx="0em" dy="0.95em" fill="rgb(50, 49, 63)" stroke="none" stroke-width="1px">20</text><text style="text-anchor: middle; visibility: inherit; font-family: &quot;Helvetica Neue&quot;, sans-serif; font-size: 12px; font-weight: 200;" x="138.23200035095215" y="0" dx="0em" dy="0.95em" fill="rgb(50, 49, 63)" stroke="none" stroke-width="1px">25</text><text style="text-anchor: middle; visibility: inherit; font-family: &quot;Helvetica Neue&quot;, sans-serif; font-size: 12px; font-weight: 200;" x="161.27066707611084" y="0" dx="0em" dy="0.95em" fill="rgb(50, 49, 63)" stroke="none" stroke-width="1px">30</text><text style="text-anchor: middle; visibility: inherit; font-family: &quot;Helvetica Neue&quot;, sans-serif; font-size: 12px; font-weight: 200;" x="184.30933380126953" y="0" dx="0em" dy="0.95em" fill="rgb(50, 49, 63)" stroke="none" stroke-width="1px">35</text><text style="text-anchor: middle; visibility: inherit; font-family: &quot;Helvetica Neue&quot;, sans-serif; font-size: 12px; font-weight: 200;" x="207.34800052642822" y="0" dx="0em" dy="0.95em" fill="rgb(50, 49, 63)" stroke="none" stroke-width="1px">40</text><text style="text-anchor: middle; visibility: inherit; font-family: &quot;Helvetica Neue&quot;, sans-serif; font-size: 12px; font-weight: 200;" x="230.3866672515869" y="0" dx="0em" dy="0.95em" fill="rgb(50, 49, 63)" stroke="none" stroke-width="1px">45</text><text style="text-anchor: middle; visibility: inherit; font-family: &quot;Helvetica Neue&quot;, sans-serif; font-size: 12px; font-weight: 200;" x="253.4253339767456" y="0" dx="0em" dy="0.95em" fill="rgb(50, 49, 63)" stroke="none" stroke-width="1px">50</text><text style="text-anchor: middle; visibility: hidden; font-family: &quot;Helvetica Neue&quot;, sans-serif; font-size: 12px; font-weight: 200;" x="276.4640007019043" y="0" dx="0em" dy="0.95em" fill="rgb(50, 49, 63)" stroke="none" stroke-width="1px">55</text></g><line x1="0" y1="0" x2="276.4640007019043" y2="0" fill="rgb(0, 0, 0)" stroke="rgb(204, 204, 204)" stroke-width="1px"></line></g></g></g></g></svg>