<svg viewBox="0 0 330 200" xmlns="http://www.w3.org/2000/svg"><g><g><g><g><g><line x1="53.5359992980957" y1="175.61999893188477" x2="48.5359992980957" y2="175.61999893188477" style="visibility: inherit;" fill="rgb(0, 0, 0)" stroke="rgb(204, 204, 204)" stroke-width="1px"></line><line x1="53.5359992980957" y1="163.075713293893" x2="48.5359992980957" y2="163.075713293893" style="visibility: inherit;" fill="rgb(0, 0, 0)" stroke="rgb(204, 204, 204)" stroke-width="1px"></line><line x1="53.5359992980957" y1="150.53142765590124" x2="48.5359992980957" y2="150.53142765590124" style="visibility: inherit;" fill="rgb(0, 0, 0)" stroke="rgb(204, 204, 204)" stroke-width="1px"></line><line x1="53.5359992980957" y1="137.98714201790946" x2="48.5359992980957" y2="137.98714201790946" style="visibility: inherit;" fill="rgb(0, 0, 0)" stroke="rgb(204, 204, 204)" stroke-width="1px"></line><line x1="53.5359992980957" y1="125.4428563799177" x2="48.5359992980957" y2="125.4428563799177" style="visibility: inherit;" fill="rgb(0, 0, 0)" stroke="rgb(204, 204, 204)" stroke-width="1px"></line><line x1="53.5359992980957" y1="112.89857074192594" x2="48.5359992980957" y2="112.89857074192594" style="visibility: inherit;" fill="rgb(0, 0, 0)" stroke="rgb(204, 204, 204)" stroke-width="1px"></line><line x1="53.5359992980957" y1="100.35428510393417" x2="48.5359992980957" y2="100.35428510393417" style="visibility: inherit;" fill="rgb(0, 0, 0)" stroke="rgb(204, 204, 204)" stroke-width="1px"></line><line x1="53.5359992980957" y1="87.8099994659424" x2="48.5359992980957" y2="87.8099994659424" style="visibility: inherit;" fill="rgb(0, 0, 0)" stroke="rgb(204, 204, 204)" stroke-width="1px"></line><line x1="53.5359992980957" y1="75.26571382795062" x2="48.5359992980957" y2="75.26571382795062" style="visibility: inherit;" fill="rgb(0, 0, 0)" stroke="rgb(204, 204, 204)" stroke-width="1px"></line><line x1="53.5359992980957" y1="62.72142818995887" x2="48.5359992980957" y2="62.72142818995887" style="visibility: inherit;" fill="rgb(0, 0, 0)" stroke="rgb(204, 204, 204)" stroke-width="1px"></line><line x1="53.5359992980957" y1="50.177142551967094" x2="48.5359992980957" y2="50.177142551967094" style="visibility: inherit;" fill="rgb(0, 0, 0)" stroke="rgb(204, 204, 204)" stroke-width="1px"></line><line x1="53.5359992980957" y1="37.63285691397533" x2="48.5359992980957" y2="37.63285691397533" style="visibility: inherit;" fill="rgb(0, 0, 0)" stroke="rgb(204, 204, 204)" stroke-width="1px"></line><line x1="53.5359992980957" y1="25.088571275983554" x2="48.5359992980957" y2="25.088571275983554" style="visibility: inherit;" fill="rgb(0, 0, 0)" stroke="rgb(204, 204, 204)" stroke-width="1px"></line><line x1="53.5359992980957" y1="12.544285637991777" x2="48.5359992980957" y2="12.544285637991777" style="visibility: inherit;" fill="rgb(0, 0, 0)" stroke="rgb(204, 204, 204)" stroke-width="1px"></line><line x1="53.5359992980957" y1="0" x2="48.5359992980957" y2="0" style="visibility: inherit;" fill="rgb(0, 0, 0)" stroke="rgb(204, 204, 204)" stroke-width="1px"></line></g><g transform="translate(43.5359992980957, 0)"><text style="text-anchor: end; visibility: hidden; font-family: &quot;Helvetica Neue&quot;, sans-serif; font-size: 12px; font-weight: 200;" x="0" y="175.61999893188477" dx="0em" dy="0.3em" fill="rgb(50, 49, 63)" stroke="none" stroke-width="1px">0.4</text><text style="text-anchor: end; visibility: inherit; font-family: &quot;Helvetica Neue&quot;, sans-serif; font-size: 12px; font-weight: 200;" x="0" y="163.075713293893" dx="0em" dy="0.3em" fill="rgb(50, 49, 63)" stroke="none" stroke-width="1px">0.45</text><text style="text-anchor: end; visibility: hidden; font-family: &quot;Helvetica Neue&quot;, sans-serif; font-size: 12px; font-weight: 200;" x="0" y="150.53142765590124" dx="0em" dy="0.3em" fill="rgb(50, 49, 63)" stroke="none" stroke-width="1px">0.5</text><text style="text-anchor: end; visibility: hidden; font-family: &quot;Helvetica Neue&quot;, sans-serif; font-size: 12px; font-weight: 200;" x="0" y="137.98714201790946" dx="0em" dy="0.3em" fill="rgb(50, 49, 63)" stroke="none" stroke-width="1px">0.55</text><text style="text-anchor: end; visibility: inherit; font-family: &quot;Helvetica Neue&quot;, sans-serif; font-size: 12px; font-weight: 200;" x="0" y="125.4428563799177" dx="0em" dy="0.3em" fill="rgb(50, 49, 63)" stroke="none" stroke-width="1px">0.6</text><text style="text-anchor: end; visibility: hidden; font-family: &quot;Helvetica Neue&quot;, sans-serif; font-size: 12px; font-weight: 200;" x="0" y="112.89857074192594" dx="0em" dy="0.3em" fill="rgb(50, 49, 63)" stroke="none" stroke-width="1px">0.65</text><text style="text-anchor: end; visibility: hidden; font-family: &quot;Helvetica Neue&quot;, sans-serif; font-size: 12px; font-weight: 200;" x="0" y="100.35428510393417" dx="0em" dy="0.3em" fill="rgb(50, 49, 63)" stroke="none" stroke-width="1px">0.7</text><text style="text-anchor: end; visibility: inherit; font-family: &quot;Helvetica Neue&quot;, sans-serif; font-size: 12px; font-weight: 200;" x="0" y="87.8099994659424" dx="0em" dy="0.3em" fill="rgb(50, 49, 63)" stroke="none" stroke-width="1px">0.75</text><text style="text-anchor: end; visibility: hidden; font-family: &quot;Helvetica Neue&quot;, sans-serif; font-size: 12px; font-weight: 200;" x="0" y="75.26571382795062" dx="0em" dy="0.3em" fill="rgb(50, 49, 63)" stroke="none" stroke-width="1px">0.8</text><text style="text-anchor: end; visibility: hidden; font-family: &quot;Helvetica Neue&quot;, sans-serif; font-size: 12px; font-weight: 200;" x="0" y="62.72142818995887" dx="0em" dy="0.3em" fill="rgb(50, 49, 63)" stroke="none" stroke-width="1px">0.85</text><text style="text-anchor: end; visibility: inherit; font-family: &quot;Helvetica Neue&quot;, sans-serif; font-size: 12px; font-weight: 200;" x="0" y="50.177142551967094" dx="0em" dy="0.3em" fill="rgb(50, 49, 63)" stroke="none" stroke-width="1px">0.9</text><text style="text-anchor: end; visibility: hidden; font-family: &quot;Helvetica Neue&quot;, sans-serif; font-size: 12px; font-weight: 200;" x="0" y="37.63285691397533" dx="0em" dy="0.3em" fill="rgb(50, 49, 63)" stroke="none" stroke-width="1px">0.95</text><text style="text-anchor: end; visibility: hidden; font-family: &quot;Helvetica Neue&quot;, sans-serif; font-size: 12px; font-weight: 200;" x="0" y="25.088571275983554" dx="0em" dy="0.3em" fill="rgb(50, 49, 63)" stroke="none" stroke-width="1px">1</text><text style="text-anchor: end; visibility: inherit; font-family: &quot;Helvetica Neue&quot;, sans-serif; font-size: 12px; font-weight: 200;" x="0" y="12.544285637991777" dx="0em" dy="0.3em" fill="rgb(50, 49, 63)" stroke="none" stroke-width="1px">1.05</text><text style="text-anchor: end; visibility: hidden; font-family: &quot;Helvetica Neue&quot;, sans-serif; font-size: 12px; font-weight: 200;" x="0" y="0" dx="0em" dy="0.3em" fill="rgb(50, 49, 63)" stroke="none" stroke-width="1px">1.1</text></g><line x1="53.5359992980957" y1="0" x2="53.5359992980957" y2="175.61999893188477" fill="rgb(0, 0, 0)" stroke="rgb(204, 204, 204)" stroke-width="1px"></line></g></g><g transform="translate(53, 0)" clip-path="url(#clip_0)"><clipPath id="clip_0"><rect width="276" height="175"></rect></clipPath><g><g><g><line x1="0" y1="0" x2="0" y2="175.61999893188477" fill="rgb(0, 0, 0)" stroke="rgb(60, 60, 60)" stroke-width="1px" opacity="0.25"></line><line x1="23.03866672515869" y1="0" x2="23.03866672515869" y2="175.61999893188477" fill="rgb(0, 0, 0)" stroke="rgb(60, 60, 60)" stroke-width="1px" opacity="0.25"></line><line x1="46.07733345031738" y1="0" x2="46.07733345031738" y2="175.61999893188477" fill="rgb(0, 0, 0)" stroke="rgb(60, 60, 60)" stroke-width="1px" opacity="0.25"></line><line x1="69.11600017547607" y1="0" x2="69.11600017547607" y2="175.61999893188477" fill="rgb(0, 0, 0)" stroke="rgb(60, 60, 60)" stroke-width="1px" opacity="0.25"></line><line x1="92.15466690063477" y1="0" x2="92.15466690063477" y2="175.61999893188477" fill="rgb(0, 0, 0)" stroke="rgb(60, 60, 60)" stroke-width="1px" opacity="0.25"></line><line x1="115.19333362579346" y1="0" x2="115.19333362579346" y2="175.61999893188477" fill="rgb(0, 0, 0)" stroke="rgb(60, 60, 60)" stroke-width="1px" opacity="0.25"></line><line x1="138.23200035095215" y1="0" x2="138.23200035095215" y2="175.61999893188477" fill="rgb(0, 0, 0)" stroke="rgb(60, 60, 60)" stroke-width="1px" opacity="0.25"></line><line x1="161.27066707611084" y1="0" x2="161.27066707611084" y2="175.61999893188477" fill="rgb(0, 0, 0)" stroke="rgb(60, 60, 60)" stroke-width="1px" opacity="0.25"></line><line x1="184.30933380126953" y1="0" x2="184.30933380126953" y2="175.61999893188477" fill="rgb(0, 0, 0)" stroke="rgb(60, 60, 60)" stroke-width="1px" opacity="0.25"></line><line x1="207.34800052642822" y1="0" x2="207.34800052642822" y2="175.61999893188477" fill="rgb(0, 0, 0)" stroke="rgb(60, 60, 60)" stroke-width="1px" opacity="0.25"></line><line x1="230.3866672515869" y1="0" x2="230.3866672515869" y2="175.61999893188477" fill="rgb(0, 0, 0)" stroke="rgb(60, 60, 60)" stroke-width="1px" opacity="0.25"></line><line x1="253.4253339767456" y1="0" x2="253.4253339767456" y2="175.61999893188477" fill="rgb(0, 0, 0)" stroke="rgb(60, 60, 60)" stroke-width="1px" opacity="0.25"></line><line x1="276.4640007019043" y1="0" x2="276.4640007019043" y2="175.61999893188477" fill="rgb(0, 0, 0)" stroke="rgb(60, 60, 60)" stroke-width="1px" opacity="0.25"></line></g><g><line x1="0" y1="175.61999893188477" x2="276.4640007019043" y2="175.61999893188477" fill="rgb(0, 0, 0)" stroke="rgb(60, 60, 60)" stroke-width="1px" opacity="0.25"></line><line x1="0" y1="163.075713293893" x2="276.4640007019043" y2="163.075713293893" fill="rgb(0, 0, 0)" stroke="rgb(60, 60, 60)" stroke-width="1px" opacity="0.25"></line><line x1="0" y1="150.53142765590124" x2="276.4640007019043" y2="150.53142765590124" fill="rgb(0, 0, 0)" stroke="rgb(60, 60, 60)" stroke-width="1px" opacity="0.25"></line><line x1="0" y1="137.98714201790946" x2="276.4640007019043" y2="137.98714201790946" fill="rgb(0, 0, 0)" stroke="rgb(60, 60, 60)" stroke-width="1px" opacity="0.25"></line><line x1="0" y1="125.4428563799177" x2="276.4640007019043" y2="125.4428563799177" fill="rgb(0, 0, 0)" stroke="rgb(60, 60, 60)" stroke-width="1px" opacity="0.25"></line><line x1="0" y1="112.89857074192594" x2="276.4640007019043" y2="112.89857074192594" fill="rgb(0, 0, 0)" stroke="rgb(60, 60, 60)" stroke-width="1px" opacity="0.25"></line><line x1="0" y1="100.35428510393417" x2="276.4640007019043" y2="100.35428510393417" fill="rgb(0, 0, 0)" stroke="rgb(60, 60, 60)" stroke-width="1px" opacity="0.25"></line><line x1="0" y1="87.8099994659424" x2="276.4640007019043" y2="87.8099994659424" fill="rgb(0, 0, 0)" stroke="rgb(60, 60, 60)" stroke-width="1px" opacity="0.25"></line><line x1="0" y1="75.26571382795062" x2="276.4640007019043" y2="75.26571382795062" fill="rgb(0, 0, 0)" stroke="rgb(60, 60, 60)" stroke-width="1px" opacity="0.25"></line><line x1="0" y1="62.72142818995887" x2="276.4640007019043" y2="62.72142818995887" fill="rgb(0, 0, 0)" stroke="rgb(60, 60, 60)" stroke-width="1px" opacity="0.25"></line><line x1="0" y1="50.177142551967094" x2="276.4640007019043" y2="50.177142551967094" fill="rgb(0, 0, 0)" stroke="rgb(60, 60, 60)" stroke-width="1px" opacity="0.25"></line><line x1="0" y1="37.63285691397533" x2="276.4640007019043" y2="37.63285691397533" fill="rgb(0, 0, 0)" stroke="rgb(60, 60, 60)" stroke-width="1px" opacity="0.25"></line><line x1="0" y1="25.088571275983554" x2="276.4640007019043" y2="25.088571275983554" fill="rgb(0, 0, 0)" stroke="rgb(60, 60, 60)" stroke-width="1px" opacity="0.25"></line><line x1="0" y1="12.544285637991777" x2="276.4640007019043" y2="12.544285637991777" fill="rgb(0, 0, 0)" stroke="rgb(60, 60, 60)" stroke-width="1px" opacity="0.25"></line><line x1="0" y1="0" x2="276.4640007019043" y2="0" fill="rgb(0, 0, 0)" stroke="rgb(60, 60, 60)" stroke-width="1px" opacity="0.25"></line></g></g></g><g><g><line x1="0" y1="275.9742840358189" x2="276.4640007019043" y2="275.9742840358189" fill="rgb(0, 0, 0)" stroke="rgb(153, 153, 153)" stroke-width="1.5px"></line></g></g><g><g><line x1="23.03866672515869" y1="0" x2="23.03866672515869" y2="175.61999893188477" fill="rgb(0, 0, 0)" stroke="rgb(153, 153, 153)" stroke-width="1.5px"></line></g></g><g><g><g><g><g><path style="fill: none;" stroke="rgb(51, 187, 238)" stroke-width="2px" d="M23.03866672515869,36.252983818953396L27.64640007019043,31.611605550057533L32.25413341522217,31.36070811339792L36.8618667602539,29.729949544879418L41.46960010528564,31.23527434902192L46.07733345031738,28.600970895726363L50.685066795349115,29.98084698153903L55.29280014038086,28.35008841302053L59.9005334854126,29.102735861138L64.50826683044434,27.722874729279113L69.11600017547607,28.099205930314724L73.7237335205078,27.597426010949306L78.33146686553955,27.84830849365511L82.93920021057129,28.22463969469075L87.54693355560302,27.346543528243473L92.15466690063477,28.977302096761974L96.7624002456665,27.47199224657328L101.37013359069823,27.095661045537668L105.97786693572999,27.597426010949306L110.58560028076172,28.099205930314724L115.19333362579346,27.221094809913694L119.8010669708252,27.597426010949306L124.40880031585694,27.722874729279113L129.01653366088868,27.095661045537668L133.62426700592042,28.099205930314724L138.23200035095215,28.600970895726363L142.8397336959839,26.97021232720786L147.4474670410156,26.59388112617225L152.05520038604737,26.217549925136638L156.6629337310791,27.346543528243473L161.27066707611084,28.22463969469075L165.87840042114257,27.47199224657328L170.48613376617433,27.84830849365511L175.09386711120604,27.221094809913694L179.7016004562378,26.719329844502056L184.30933380126953,26.09211616076061L188.91706714630126,27.346543528243473L193.524800491333,26.59388112617225L198.13253383636476,27.095661045537668L202.74026718139646,27.095661045537668L207.34800052642822,26.59388112617225L211.95573387145998,26.97021232720786L216.5634672164917,28.977302096761974L221.17120056152345,25.966667442430804L225.77893390655518,26.468447361796223L230.3866672515869,25.966667442430804L234.99440059661865,27.346543528243473L239.6021339416504,25.841233678054806L244.2098672866821,27.346543528243473L248.81760063171387,27.095661045537668" fill="none"></path></g><g><path style="fill: none;" stroke="rgb(204, 51, 17)" stroke-width="2px" d="M23.03866672515869,147.77169043822968L27.64640007019043,59.45992002529414L32.25413341522217,30.106280745915058L36.8618667602539,46.91563139651163L41.46960010528564,30.85894314798628L46.07733345031738,27.597426010949306L50.685066795349115,31.109825630692114L55.29280014038086,26.59388112617225L59.9005334854126,39.89083215702601L64.50826683044434,26.59388112617225L69.11600017547607,26.09211616076061L73.7237335205078,25.590336241395192L78.33146686553955,25.841233678054806L82.93920021057129,25.33945375868936L87.54693355560302,25.590336241395192L92.15466690063477,25.590336241395192L96.7624002456665,26.342998643466416L101.37013359069823,25.088571275983554L105.97786693572999,25.841233678054806L110.58560028076172,25.33945375868936L115.19333362579346,25.33945375868936L119.8010669708252,26.09211616076061L124.40880031585694,25.841233678054806L129.01653366088868,25.841233678054806L133.62426700592042,25.33945375868936L138.23200035095215,25.088571275983554L142.8397336959839,25.088571275983554L147.4474670410156,25.088571275983554L152.05520038604737,25.590336241395192L156.6629337310791,25.33945375868936L161.27066707611084,25.088571275983554L165.87840042114257,25.33945375868936L170.48613376617433,25.088571275983554L175.09386711120604,25.088571275983554L179.7016004562378,25.088571275983554L184.30933380126953,25.088571275983554L188.91706714630126,25.33945375868936L193.524800491333,25.088571275983554L198.13253383636476,25.33945375868936L202.74026718139646,25.088571275983554L207.34800052642822,25.33945375868936L211.95573387145998,25.33945375868936L216.5634672164917,25.088571275983554L221.17120056152345,25.590336241395192L225.77893390655518,25.088571275983554L230.3866672515869,25.088571275983554L234.99440059661865,25.088571275983554L239.6021339416504,25.841233678054806L244.2098672866821,25.088571275983554L248.81760063171387,25.088571275983554" fill="none"></path></g><g><path style="fill: none;" stroke="rgb(238, 51, 119)" stroke-width="2px" d="M23.03866672515869,27.095661045537668L27.64640007019043,26.844778562831863L32.25413341522217,25.33945375868936L36.8618667602539,25.590336241395192L41.46960010528564,25.841233678054806L46.07733345031738,26.342998643466416L50.685066795349115,25.590336241395192L55.29280014038086,25.590336241395192L59.9005334854126,25.33945375868936L64.50826683044434,25.33945375868936L69.11600017547607,25.590336241395192L73.7237335205078,25.088571275983554L78.33146686553955,25.088571275983554L82.93920021057129,25.088571275983554L87.54693355560302,25.088571275983554L92.15466690063477,25.088571275983554L96.7624002456665,25.590336241395192L101.37013359069823,25.088571275983554L105.97786693572999,25.088571275983554L110.58560028076172,25.33945375868936L115.19333362579346,25.088571275983554L119.8010669708252,25.088571275983554L124.40880031585694,25.33945375868936L129.01653366088868,25.088571275983554L133.62426700592042,25.33945375868936L138.23200035095215,25.33945375868936L142.8397336959839,25.088571275983554L147.4474670410156,25.33945375868936L152.05520038604737,25.33945375868936L156.6629337310791,25.088571275983554L161.27066707611084,25.088571275983554L165.87840042114257,25.088571275983554L170.48613376617433,25.088571275983554L175.09386711120604,25.33945375868936L179.7016004562378,25.088571275983554L184.30933380126953,25.088571275983554L188.91706714630126,25.088571275983554L193.524800491333,25.088571275983554L198.13253383636476,25.088571275983554L202.74026718139646,25.088571275983554L207.34800052642822,25.33945375868936L211.95573387145998,25.088571275983554L216.5634672164917,25.088571275983554L221.17120056152345,25.088571275983554L225.77893390655518,25.088571275983554L230.3866672515869,25.088571275983554L234.99440059661865,25.088571275983554L239.6021339416504,25.088571275983554L244.2098672866821,25.088571275983554L248.81760063171387,25.33945375868936" fill="none"></path></g><g><path style="fill: none;" stroke="rgb(0, 119, 187)" stroke-width="2px" d="M23.03866672515869,25.174616326081264L27.64640007019043,25.24836922616501L32.25413341522217,25.1623241760673L36.8618667602539,25.137739876039376L41.46960010528564,25.137739876039376L46.07733345031738,25.137739876039376L50.685066795349115,25.11315557601148L55.29280014038086,25.125447726025442L59.9005334854126,25.11315557601148L64.50826683044434,25.100863425997517L69.11600017547607,25.11315557601148L73.7237335205078,25.088571275983554L78.33146686553955,25.1623241760673L82.93920021057129,25.125447726025442L87.54693355560302,25.15003202605334L92.15466690063477,25.137739876039376L96.7624002456665,25.125447726025442L101.37013359069823,25.125447726025442L105.97786693572999,25.125447726025442L110.58560028076172,25.137739876039376L115.19333362579346,25.11315557601148L119.8010669708252,25.125447726025442L124.40880031585694,25.100863425997517L129.01653366088868,25.11315557601148L133.62426700592042,25.15003202605334L138.23200035095215,25.100863425997517L142.8397336959839,25.11315557601148L147.4474670410156,25.1623241760673L152.05520038604737,25.11315557601148L156.6629337310791,25.100863425997517L161.27066707611084,25.100863425997517L165.87840042114257,25.11315557601148L170.48613376617433,25.125447726025442L175.09386711120604,25.15003202605334L179.7016004562378,25.125447726025442" fill="none"></path></g><g><path style="fill: none;" stroke="rgb(255, 112, 67)" stroke-width="2px" d="M23.03866672515869,25.89330334514554L27.64640007019043,25.798629863712023L32.25413341522217,25.987976826579086L36.8618667602539,25.325262456544294L41.46960010528564,25.23058897511075L46.07733345031738,25.37259172028419L50.685066795349115,25.325262456544294L55.29280014038086,25.277918238850646L59.9005334854126,25.325262456544294L64.50826683044434,25.1832447574171L69.11600017547607,25.41993593797784L73.7237335205078,25.1832447574171L78.33146686553955,25.088571275983554L82.93920021057129,25.13591549367723L87.54693355560302,25.41993593797784L92.15466690063477,25.1832447574171L96.7624002456665,25.13591549367723L101.37013359069823,25.13591549367723L105.97786693572999,25.088571275983554L110.58560028076172,25.23058897511075L115.19333362579346,25.088571275983554L119.8010669708252,25.277918238850646L124.40880031585694,25.088571275983554L129.01653366088868,25.13591549367723L133.62426700592042,25.088571275983554L138.23200035095215,25.088571275983554L142.8397336959839,25.13591549367723L147.4474670410156,25.088571275983554L152.05520038604737,25.088571275983554L156.6629337310791,25.088571275983554L161.27066707611084,25.088571275983554L165.87840042114257,25.1832447574171L170.48613376617433,25.088571275983554L175.09386711120604,25.088571275983554L179.7016004562378,25.088571275983554L184.30933380126953,25.088571275983554L188.91706714630126,25.088571275983554L193.524800491333,25.13591549367723L198.13253383636476,25.13591549367723L202.74026718139646,25.088571275983554L207.34800052642822,25.13591549367723L211.95573387145998,25.1832447574171L216.5634672164917,25.088571275983554L221.17120056152345,25.088571275983554L225.77893390655518,25.088571275983554L230.3866672515869,25.13591549367723L234.99440059661865,25.13591549367723L239.6021339416504,25.088571275983554L244.2098672866821,25.088571275983554L248.81760063171387,25.088571275983554" fill="none"></path></g></g></g></g></g></g><g transform="translate(53, 175)" clip-path="url(#clip_1)"><clipPath id="clip_1"><rect width="276" height="24"></rect></clipPath><g><g><line x1="0" y1="0" x2="0" y2="5" style="visibility: inherit;" fill="rgb(0, 0, 0)" stroke="rgb(204, 204, 204)" stroke-width="1px"></line><line x1="23.03866672515869" y1="0" x2="23.03866672515869" y2="5" style="visibility: inherit;" fill="rgb(0, 0, 0)" stroke="rgb(204, 204, 204)" stroke-width="1px"></line><line x1="46.07733345031738" y1="0" x2="46.07733345031738" y2="5" style="visibility: inherit;" fill="rgb(0, 0, 0)" stroke="rgb(204, 204, 204)" stroke-width="1px"></line><line x1="69.11600017547607" y1="0" x2="69.11600017547607" y2="5" style="visibility: inherit;" fill="rgb(0, 0, 0)" stroke="rgb(204, 204, 204)" stroke-width="1px"></line><line x1="92.15466690063477" y1="0" x2="92.15466690063477" y2="5" style="visibility: inherit;" fill="rgb(0, 0, 0)" stroke="rgb(204, 204, 204)" stroke-width="1px"></line><line x1="115.19333362579346" y1="0" x2="115.19333362579346" y2="5" style="visibility: inherit;" fill="rgb(0, 0, 0)" stroke="rgb(204, 204, 204)" stroke-width="1px"></line><line x1="138.23200035095215" y1="0" x2="138.23200035095215" y2="5" style="visibility: inherit;" fill="rgb(0, 0, 0)" stroke="rgb(204, 204, 204)" stroke-width="1px"></line><line x1="161.27066707611084" y1="0" x2="161.27066707611084" y2="5" style="visibility: inherit;" fill="rgb(0, 0, 0)" stroke="rgb(204, 204, 204)" stroke-width="1px"></line><line x1="184.30933380126953" y1="0" x2="184.30933380126953" y2="5" style="visibility: inherit;" fill="rgb(0, 0, 0)" stroke="rgb(204, 204, 204)" stroke-width="1px"></line><line x1="207.34800052642822" y1="0" x2="207.34800052642822" y2="5" style="visibility: inherit;" fill="rgb(0, 0, 0)" stroke="rgb(204, 204, 204)" stroke-width="1px"></line><line x1="230.3866672515869" y1="0" x2="230.3866672515869" y2="5" style="visibility: inherit;" fill="rgb(0, 0, 0)" stroke="rgb(204, 204, 204)" stroke-width="1px"></line><line x1="253.4253339767456" y1="0" x2="253.4253339767456" y2="5" style="visibility: inherit;" fill="rgb(0, 0, 0)" stroke="rgb(204, 204, 204)" stroke-width="1px"></line><line x1="276.4640007019043" y1="0" x2="276.4640007019043" y2="5" style="visibility: inherit;" fill="rgb(0, 0, 0)" stroke="rgb(204, 204, 204)" stroke-width="1px"></line></g><g transform="translate(0, 8)"><text style="text-anchor: middle; visibility: hidden; font-family: &quot;Helvetica Neue&quot;, sans-serif; font-size: 12px; font-weight: 200;" x="0" y="0" dx="0em" dy="0.95em" fill="rgb(50, 49, 63)" stroke="none" stroke-width="1px">-5</text><text style="text-anchor: middle; visibility: inherit; font-family: &quot;Helvetica Neue&quot;, sans-serif; font-size: 12px; font-weight: 200;" x="23.03866672515869" y="0" dx="0em" dy="0.95em" fill="rgb(50, 49, 63)" stroke="none" stroke-width="1px">0</text><text style="text-anchor: middle; visibility: inherit; font-family: &quot;Helvetica Neue&quot;, sans-serif; font-size: 12px; font-weight: 200;" x="46.07733345031738" y="0" dx="0em" dy="0.95em" fill="rgb(50, 49, 63)" stroke="none" stroke-width="1px">5</text><text style="text-anchor: middle; visibility: inherit; font-family: &quot;Helvetica Neue&quot;, sans-serif; font-size: 12px; font-weight: 200;" x="69.11600017547607" y="0" dx="0em" dy="0.95em" fill="rgb(50, 49, 63)" stroke="none" stroke-width="1px">10</text><text style="text-anchor: middle; visibility: inherit; font-family: &quot;Helvetica Neue&quot;, sans-serif; font-size: 12px; font-weight: 200;" x="92.15466690063477" y="0" dx="0em" dy="0.95em" fill="rgb(50, 49, 63)" stroke="none" stroke-width="1px">15</text><text style="text-anchor: middle; visibility: inherit; font-family: &quot;Helvetica Neue&quot;, sans-serif; font-size: 12px; font-weight: 200;" x="115.19333362579346" y="0" dx="0em" dy="0.95em" fill="rgb(50, 49, 63)" stroke="none" stroke-width="1px">20</text><text style="text-anchor: middle; visibility: inherit; font-family: &quot;Helvetica Neue&quot;, sans-serif; font-size: 12px; font-weight: 200;" x="138.23200035095215" y="0" dx="0em" dy="0.95em" fill="rgb(50, 49, 63)" stroke="none" stroke-width="1px">25</text><text style="text-anchor: middle; visibility: inherit; font-family: &quot;Helvetica Neue&quot;, sans-serif; font-size: 12px; font-weight: 200;" x="161.27066707611084" y="0" dx="0em" dy="0.95em" fill="rgb(50, 49, 63)" stroke="none" stroke-width="1px">30</text><text style="text-anchor: middle; visibility: inherit; font-family: &quot;Helvetica Neue&quot;, sans-serif; font-size: 12px; font-weight: 200;" x="184.30933380126953" y="0" dx="0em" dy="0.95em" fill="rgb(50, 49, 63)" stroke="none" stroke-width="1px">35</text><text style="text-anchor: middle; visibility: inherit; font-family: &quot;Helvetica Neue&quot;, sans-serif; font-size: 12px; font-weight: 200;" x="207.34800052642822" y="0" dx="0em" dy="0.95em" fill="rgb(50, 49, 63)" stroke="none" stroke-width="1px">40</text><text style="text-anchor: middle; visibility: inherit; font-family: &quot;Helvetica Neue&quot;, sans-serif; font-size: 12px; font-weight: 200;" x="230.3866672515869" y="0" dx="0em" dy="0.95em" fill="rgb(50, 49, 63)" stroke="none" stroke-width="1px">45</text><text style="text-anchor: middle; visibility: inherit; font-family: &quot;Helvetica Neue&quot;, sans-serif; font-size: 12px; font-weight: 200;" x="253.4253339767456" y="0" dx="0em" dy="0.95em" fill="rgb(50, 49, 63)" stroke="none" stroke-width="1px">50</text><text style="text-anchor: middle; visibility: hidden; font-family: &quot;Helvetica Neue&quot;, sans-serif; font-size: 12px; font-weight: 200;" x="276.4640007019043" y="0" dx="0em" dy="0.95em" fill="rgb(50, 49, 63)" stroke="none" stroke-width="1px">55</text></g><line x1="0" y1="0" x2="276.4640007019043" y2="0" fill="rgb(0, 0, 0)" stroke="rgb(204, 204, 204)" stroke-width="1px"></line></g></g></g></g></svg>