<svg viewBox="0 0 330 200" xmlns="http://www.w3.org/2000/svg"><g><g><g><g><g><line x1="53.5359992980957" y1="175.61999893188477" x2="48.5359992980957" y2="175.61999893188477" style="visibility: inherit;" fill="rgb(0, 0, 0)" stroke="rgb(204, 204, 204)" stroke-width="1px"></line><line x1="53.5359992980957" y1="162.1107682448167" x2="48.5359992980957" y2="162.1107682448167" style="visibility: inherit;" fill="rgb(0, 0, 0)" stroke="rgb(204, 204, 204)" stroke-width="1px"></line><line x1="53.5359992980957" y1="148.60153755774866" x2="48.5359992980957" y2="148.60153755774866" style="visibility: inherit;" fill="rgb(0, 0, 0)" stroke="rgb(204, 204, 204)" stroke-width="1px"></line><line x1="53.5359992980957" y1="135.0923068706806" x2="48.5359992980957" y2="135.0923068706806" style="visibility: inherit;" fill="rgb(0, 0, 0)" stroke="rgb(204, 204, 204)" stroke-width="1px"></line><line x1="53.5359992980957" y1="121.58307618361252" x2="48.5359992980957" y2="121.58307618361252" style="visibility: inherit;" fill="rgb(0, 0, 0)" stroke="rgb(204, 204, 204)" stroke-width="1px"></line><line x1="53.5359992980957" y1="108.07384549654448" x2="48.5359992980957" y2="108.07384549654448" style="visibility: inherit;" fill="rgb(0, 0, 0)" stroke="rgb(204, 204, 204)" stroke-width="1px"></line><line x1="53.5359992980957" y1="94.56461480947642" x2="48.5359992980957" y2="94.56461480947642" style="visibility: inherit;" fill="rgb(0, 0, 0)" stroke="rgb(204, 204, 204)" stroke-width="1px"></line><line x1="53.5359992980957" y1="81.05538412240836" x2="48.5359992980957" y2="81.05538412240836" style="visibility: inherit;" fill="rgb(0, 0, 0)" stroke="rgb(204, 204, 204)" stroke-width="1px"></line><line x1="53.5359992980957" y1="67.5461534353403" x2="48.5359992980957" y2="67.5461534353403" style="visibility: inherit;" fill="rgb(0, 0, 0)" stroke="rgb(204, 204, 204)" stroke-width="1px"></line><line x1="53.5359992980957" y1="54.03692274827223" x2="48.5359992980957" y2="54.03692274827223" style="visibility: inherit;" fill="rgb(0, 0, 0)" stroke="rgb(204, 204, 204)" stroke-width="1px"></line><line x1="53.5359992980957" y1="40.52769206120419" x2="48.5359992980957" y2="40.52769206120419" style="visibility: inherit;" fill="rgb(0, 0, 0)" stroke="rgb(204, 204, 204)" stroke-width="1px"></line><line x1="53.5359992980957" y1="27.01846137413611" x2="48.5359992980957" y2="27.01846137413611" style="visibility: inherit;" fill="rgb(0, 0, 0)" stroke="rgb(204, 204, 204)" stroke-width="1px"></line><line x1="53.5359992980957" y1="13.509230687068055" x2="48.5359992980957" y2="13.509230687068055" style="visibility: inherit;" fill="rgb(0, 0, 0)" stroke="rgb(204, 204, 204)" stroke-width="1px"></line><line x1="53.5359992980957" y1="0" x2="48.5359992980957" y2="0" style="visibility: inherit;" fill="rgb(0, 0, 0)" stroke="rgb(204, 204, 204)" stroke-width="1px"></line></g><g transform="translate(43.5359992980957, 0)"><text style="text-anchor: end; visibility: hidden; font-family: &quot;Helvetica Neue&quot;, sans-serif; font-size: 12px; font-weight: 200;" x="0" y="175.61999893188477" dx="0em" dy="0.3em" fill="rgb(50, 49, 63)" stroke="none" stroke-width="1px">-0.1</text><text style="text-anchor: end; visibility: inherit; font-family: &quot;Helvetica Neue&quot;, sans-serif; font-size: 12px; font-weight: 200;" x="0" y="162.1107682448167" dx="0em" dy="0.3em" fill="rgb(50, 49, 63)" stroke="none" stroke-width="1px">0</text><text style="text-anchor: end; visibility: hidden; font-family: &quot;Helvetica Neue&quot;, sans-serif; font-size: 12px; font-weight: 200;" x="0" y="148.60153755774866" dx="0em" dy="0.3em" fill="rgb(50, 49, 63)" stroke="none" stroke-width="1px">0.1</text><text style="text-anchor: end; visibility: hidden; font-family: &quot;Helvetica Neue&quot;, sans-serif; font-size: 12px; font-weight: 200;" x="0" y="135.0923068706806" dx="0em" dy="0.3em" fill="rgb(50, 49, 63)" stroke="none" stroke-width="1px">0.2</text><text style="text-anchor: end; visibility: inherit; font-family: &quot;Helvetica Neue&quot;, sans-serif; font-size: 12px; font-weight: 200;" x="0" y="121.58307618361252" dx="0em" dy="0.3em" fill="rgb(50, 49, 63)" stroke="none" stroke-width="1px">0.3</text><text style="text-anchor: end; visibility: hidden; font-family: &quot;Helvetica Neue&quot;, sans-serif; font-size: 12px; font-weight: 200;" x="0" y="108.07384549654448" dx="0em" dy="0.3em" fill="rgb(50, 49, 63)" stroke="none" stroke-width="1px">0.4</text><text style="text-anchor: end; visibility: hidden; font-family: &quot;Helvetica Neue&quot;, sans-serif; font-size: 12px; font-weight: 200;" x="0" y="94.56461480947642" dx="0em" dy="0.3em" fill="rgb(50, 49, 63)" stroke="none" stroke-width="1px">0.5</text><text style="text-anchor: end; visibility: inherit; font-family: &quot;Helvetica Neue&quot;, sans-serif; font-size: 12px; font-weight: 200;" x="0" y="81.05538412240836" dx="0em" dy="0.3em" fill="rgb(50, 49, 63)" stroke="none" stroke-width="1px">0.6</text><text style="text-anchor: end; visibility: hidden; font-family: &quot;Helvetica Neue&quot;, sans-serif; font-size: 12px; font-weight: 200;" x="0" y="67.5461534353403" dx="0em" dy="0.3em" fill="rgb(50, 49, 63)" stroke="none" stroke-width="1px">0.7</text><text style="text-anchor: end; visibility: hidden; font-family: &quot;Helvetica Neue&quot;, sans-serif; font-size: 12px; font-weight: 200;" x="0" y="54.03692274827223" dx="0em" dy="0.3em" fill="rgb(50, 49, 63)" stroke="none" stroke-width="1px">0.8</text><text style="text-anchor: end; visibility: inherit; font-family: &quot;Helvetica Neue&quot;, sans-serif; font-size: 12px; font-weight: 200;" x="0" y="40.52769206120419" dx="0em" dy="0.3em" fill="rgb(50, 49, 63)" stroke="none" stroke-width="1px">0.9</text><text style="text-anchor: end; visibility: hidden; font-family: &quot;Helvetica Neue&quot;, sans-serif; font-size: 12px; font-weight: 200;" x="0" y="27.01846137413611" dx="0em" dy="0.3em" fill="rgb(50, 49, 63)" stroke="none" stroke-width="1px">1</text><text style="text-anchor: end; visibility: hidden; font-family: &quot;Helvetica Neue&quot;, sans-serif; font-size: 12px; font-weight: 200;" x="0" y="13.509230687068055" dx="0em" dy="0.3em" fill="rgb(50, 49, 63)" stroke="none" stroke-width="1px">1.1</text><text style="text-anchor: end; visibility: hidden; font-family: &quot;Helvetica Neue&quot;, sans-serif; font-size: 12px; font-weight: 200;" x="0" y="0" dx="0em" dy="0.3em" fill="rgb(50, 49, 63)" stroke="none" stroke-width="1px">1.2</text></g><line x1="53.5359992980957" y1="0" x2="53.5359992980957" y2="175.61999893188477" fill="rgb(0, 0, 0)" stroke="rgb(204, 204, 204)" stroke-width="1px"></line></g></g><g transform="translate(53, 0)" clip-path="url(#clip_0)"><clipPath id="clip_0"><rect width="276" height="175"></rect></clipPath><g><g><g><line x1="0" y1="0" x2="0" y2="175.61999893188477" fill="rgb(0, 0, 0)" stroke="rgb(60, 60, 60)" stroke-width="1px" opacity="0.25"></line><line x1="23.03866672515869" y1="0" x2="23.03866672515869" y2="175.61999893188477" fill="rgb(0, 0, 0)" stroke="rgb(60, 60, 60)" stroke-width="1px" opacity="0.25"></line><line x1="46.07733345031738" y1="0" x2="46.07733345031738" y2="175.61999893188477" fill="rgb(0, 0, 0)" stroke="rgb(60, 60, 60)" stroke-width="1px" opacity="0.25"></line><line x1="69.11600017547607" y1="0" x2="69.11600017547607" y2="175.61999893188477" fill="rgb(0, 0, 0)" stroke="rgb(60, 60, 60)" stroke-width="1px" opacity="0.25"></line><line x1="92.15466690063477" y1="0" x2="92.15466690063477" y2="175.61999893188477" fill="rgb(0, 0, 0)" stroke="rgb(60, 60, 60)" stroke-width="1px" opacity="0.25"></line><line x1="115.19333362579346" y1="0" x2="115.19333362579346" y2="175.61999893188477" fill="rgb(0, 0, 0)" stroke="rgb(60, 60, 60)" stroke-width="1px" opacity="0.25"></line><line x1="138.23200035095215" y1="0" x2="138.23200035095215" y2="175.61999893188477" fill="rgb(0, 0, 0)" stroke="rgb(60, 60, 60)" stroke-width="1px" opacity="0.25"></line><line x1="161.27066707611084" y1="0" x2="161.27066707611084" y2="175.61999893188477" fill="rgb(0, 0, 0)" stroke="rgb(60, 60, 60)" stroke-width="1px" opacity="0.25"></line><line x1="184.30933380126953" y1="0" x2="184.30933380126953" y2="175.61999893188477" fill="rgb(0, 0, 0)" stroke="rgb(60, 60, 60)" stroke-width="1px" opacity="0.25"></line><line x1="207.34800052642822" y1="0" x2="207.34800052642822" y2="175.61999893188477" fill="rgb(0, 0, 0)" stroke="rgb(60, 60, 60)" stroke-width="1px" opacity="0.25"></line><line x1="230.3866672515869" y1="0" x2="230.3866672515869" y2="175.61999893188477" fill="rgb(0, 0, 0)" stroke="rgb(60, 60, 60)" stroke-width="1px" opacity="0.25"></line><line x1="253.4253339767456" y1="0" x2="253.4253339767456" y2="175.61999893188477" fill="rgb(0, 0, 0)" stroke="rgb(60, 60, 60)" stroke-width="1px" opacity="0.25"></line><line x1="276.4640007019043" y1="0" x2="276.4640007019043" y2="175.61999893188477" fill="rgb(0, 0, 0)" stroke="rgb(60, 60, 60)" stroke-width="1px" opacity="0.25"></line></g><g><line x1="0" y1="175.61999893188477" x2="276.4640007019043" y2="175.61999893188477" fill="rgb(0, 0, 0)" stroke="rgb(60, 60, 60)" stroke-width="1px" opacity="0.25"></line><line x1="0" y1="162.1107682448167" x2="276.4640007019043" y2="162.1107682448167" fill="rgb(0, 0, 0)" stroke="rgb(60, 60, 60)" stroke-width="1px" opacity="0.25"></line><line x1="0" y1="148.60153755774866" x2="276.4640007019043" y2="148.60153755774866" fill="rgb(0, 0, 0)" stroke="rgb(60, 60, 60)" stroke-width="1px" opacity="0.25"></line><line x1="0" y1="135.0923068706806" x2="276.4640007019043" y2="135.0923068706806" fill="rgb(0, 0, 0)" stroke="rgb(60, 60, 60)" stroke-width="1px" opacity="0.25"></line><line x1="0" y1="121.58307618361252" x2="276.4640007019043" y2="121.58307618361252" fill="rgb(0, 0, 0)" stroke="rgb(60, 60, 60)" stroke-width="1px" opacity="0.25"></line><line x1="0" y1="108.07384549654448" x2="276.4640007019043" y2="108.07384549654448" fill="rgb(0, 0, 0)" stroke="rgb(60, 60, 60)" stroke-width="1px" opacity="0.25"></line><line x1="0" y1="94.56461480947642" x2="276.4640007019043" y2="94.56461480947642" fill="rgb(0, 0, 0)" stroke="rgb(60, 60, 60)" stroke-width="1px" opacity="0.25"></line><line x1="0" y1="81.05538412240836" x2="276.4640007019043" y2="81.05538412240836" fill="rgb(0, 0, 0)" stroke="rgb(60, 60, 60)" stroke-width="1px" opacity="0.25"></line><line x1="0" y1="67.5461534353403" x2="276.4640007019043" y2="67.5461534353403" fill="rgb(0, 0, 0)" stroke="rgb(60, 60, 60)" stroke-width="1px" opacity="0.25"></line><line x1="0" y1="54.03692274827223" x2="276.4640007019043" y2="54.03692274827223" fill="rgb(0, 0, 0)" stroke="rgb(60, 60, 60)" stroke-width="1px" opacity="0.25"></line><line x1="0" y1="40.52769206120419" x2="276.4640007019043" y2="40.52769206120419" fill="rgb(0, 0, 0)" stroke="rgb(60, 60, 60)" stroke-width="1px" opacity="0.25"></line><line x1="0" y1="27.01846137413611" x2="276.4640007019043" y2="27.01846137413611" fill="rgb(0, 0, 0)" stroke="rgb(60, 60, 60)" stroke-width="1px" opacity="0.25"></line><line x1="0" y1="13.509230687068055" x2="276.4640007019043" y2="13.509230687068055" fill="rgb(0, 0, 0)" stroke="rgb(60, 60, 60)" stroke-width="1px" opacity="0.25"></line><line x1="0" y1="0" x2="276.4640007019043" y2="0" fill="rgb(0, 0, 0)" stroke="rgb(60, 60, 60)" stroke-width="1px" opacity="0.25"></line></g></g></g><g><g><line x1="0" y1="162.1107682448167" x2="276.4640007019043" y2="162.1107682448167" fill="rgb(0, 0, 0)" stroke="rgb(153, 153, 153)" stroke-width="1.5px"></line></g></g><g><g><line x1="23.03866672515869" y1="0" x2="23.03866672515869" y2="175.61999893188477" fill="rgb(0, 0, 0)" stroke="rgb(153, 153, 153)" stroke-width="1.5px"></line></g></g><g><g><g><g><g><path style="fill: none;" stroke="rgb(51, 187, 238)" stroke-width="2px" d="M23.03866672515869,56.387369790637194L27.64640007019043,48.31015844600273L32.25413341522217,47.2396279003832L36.8618667602539,44.91385902286379L41.46960010528564,47.93505807039429L46.07733345031738,42.9215046493118L50.685066795349115,45.06465929408125L55.29280014038086,43.83837641793204L59.9005334854126,43.64107510195373L64.50826683044434,43.39393110769498L69.11600017547607,40.924584718637846L73.7237335205078,42.04383064448302L78.33146686553955,40.043786487771456L82.93920021057129,42.18279428612502L87.54693355560302,41.09520127923304L92.15466690063477,40.40411120673295L96.7624002456665,40.80680622829729L101.37013359069823,40.047788395866036L105.97786693572999,40.932813994437964L110.58560028076172,40.24025843446657L115.19333362579346,40.04208748856027L119.8010669708252,40.910018417343935L124.40880031585694,37.547578196494015L129.01653366088868,39.156280833478945L133.62426700592042,39.029636949150245L138.23200035095215,41.56898854741098L142.8397336959839,38.30538015745188L147.4474670410156,38.67014159947192L152.05520038604737,39.424601926910185L156.6629337310791,38.785850692669015L161.27066707611084,39.867976303995164L165.87840042114257,39.65734066245429L170.48613376617433,40.71013236796853L175.09386711120604,39.482754402280335L179.7016004562378,39.33814621823535L184.30933380126953,39.017454078029346L188.91706714630126,37.7574166772676L193.524800491333,38.47660062771931L198.13253383636476,38.34047133547227L202.74026718139646,37.29661749310685L207.34800052642822,38.45611601163765L211.95573387145998,38.89024654467323L216.5634672164917,39.09803173256125L221.17120056152345,36.749217661949956L225.77893390655518,38.45960258347861L230.3866672515869,36.536134173204346L234.99440059661865,37.95547489336843L239.6021339416504,37.757006018690504L244.2098672866821,39.522974786450106L248.81760063171387,38.41386649096924" fill="none"></path></g><g><path style="fill: none;" stroke="rgb(204, 51, 17)" stroke-width="2px" d="M23.03866672515869,153.1346846593425L27.64640007019043,130.29552239777004L32.25413341522217,73.46165158837158L36.8618667602539,98.53455595206239L41.46960010528564,77.29117970610224L46.07733345031738,45.74237478037395L50.685066795349115,64.36752882488163L55.29280014038086,44.52101175502108L59.9005334854126,81.71661367986239L64.50826683044434,41.2250338066311L69.11600017547607,42.33663020996153L73.7237335205078,42.04481300421651L78.33146686553955,38.723350067658885L82.93920021057129,40.72526231828985L87.54693355560302,39.988597195859626L92.15466690063477,41.67238593542376L96.7624002456665,41.01583949617455L101.37013359069823,45.985452449506425L105.97786693572999,35.95076855398733L110.58560028076172,37.67341686792645L115.19333362579346,38.76778171527624L119.8010669708252,40.91376265731171L124.40880031585694,37.491591743814865L129.01653366088868,46.49493480537694L133.62426700592042,36.030742298847L138.23200035095215,35.28447903869301L142.8397336959839,36.40702633741296L147.4474670410156,36.56719928674329L152.05520038604737,35.713882972027335L156.6629337310791,37.7393476998748L161.27066707611084,39.005391988842916L165.87840042114257,35.296766587490424L170.48613376617433,34.98762925234618L175.09386711120604,33.97915646464381L179.7016004562378,33.99877145079748L184.30933380126953,33.06937056951094L188.91706714630126,34.01897424236543L193.524800491333,33.21674063379021L198.13253383636476,36.41219580420716L202.74026718139646,32.938507369605645L207.34800052642822,32.94701846991944L211.95573387145998,34.60549131602417L216.5634672164917,36.84287197391765L221.17120056152345,33.990767634608346L225.77893390655518,32.10908977365162L230.3866672515869,33.252596764062076L234.99440059661865,33.37547225203616L239.6021339416504,54.61354214500976L244.2098672866821,32.13370513189125L248.81760063171387,31.029581104238446" fill="none"></path></g><g><path style="fill: none;" stroke="rgb(238, 51, 119)" stroke-width="2px" d="M23.03866672515869,42.68157536260381L27.64640007019043,39.487746722237375L32.25413341522217,36.49737122437688L36.8618667602539,36.52147929849184L41.46960010528564,38.55602682780952L46.07733345031738,39.67874322123771L50.685066795349115,36.25393926157005L55.29280014038086,36.30091538193969L59.9005334854126,34.579925806566905L64.50826683044434,35.8194141742153L69.11600017547607,34.96790153638702L73.7237335205078,34.383848414190965L78.33146686553955,34.05249525523803L82.93920021057129,34.520436677788894L87.54693355560302,35.7475408710923L92.15466690063477,35.34625497209649L96.7624002456665,35.27007377997836L101.37013359069823,34.528537119525595L105.97786693572999,33.0021352926706L110.58560028076172,34.74125826246788L115.19333362579346,35.077072300866234L119.8010669708252,33.092021208283626L124.40880031585694,34.1810877547758L129.01653366088868,34.33983547727965L133.62426700592042,33.13588920687357L138.23200035095215,35.89119890391967L142.8397336959839,34.15701188917669L147.4474670410156,34.30072628690678L152.05520038604737,33.09544336309284L156.6629337310791,32.58706414889025L161.27066707611084,34.77912742498046L165.87840042114257,33.6801728641218L170.48613376617433,33.473217045516975L175.09386711120604,34.25963627280905L179.7016004562378,33.800882329404885L184.30933380126953,33.86158732965629L188.91706714630126,33.51156128363837L193.524800491333,32.87491970718551L198.13253383636476,32.62410394211966L202.74026718139646,32.402976376540096L207.34800052642822,33.029544739660366L211.95573387145998,33.79699315111577L216.5634672164917,33.79464998158758L221.17120056152345,32.94070560081252L225.77893390655518,33.884785513198466L230.3866672515869,32.84382238513072L234.99440059661865,34.96829609070622L239.6021339416504,33.08003158825784L244.2098672866821,33.96371248129296L248.81760063171387,33.05141432192363" fill="none"></path></g><g><path style="fill: none;" stroke="rgb(0, 119, 187)" stroke-width="2px" d="M23.03866672515869,48.901144451235865L27.64640007019043,53.339107537662315L32.25413341522217,48.89719890804405L36.8618667602539,46.91205118991388L41.46960010528564,48.003477010192185L46.07733345031738,49.494674929221304L50.685066795349115,47.66937807526291L55.29280014038086,45.616093241848574L59.9005334854126,47.011044063383935L64.50826683044434,46.92718919236415L69.11600017547607,47.69859119914037L73.7237335205078,47.210157108378894L78.33146686553955,46.09492919488622L82.93920021057129,48.07161412547636L87.54693355560302,47.26503236726117L92.15466690063477,45.53376827533171L96.7624002456665,45.633300641442304L101.37013359069823,45.95169792489389L105.97786693572999,44.86879125705835L110.58560028076172,47.08307840908617L115.19333362579346,45.00796425405338L119.8010669708252,52.16512323912724L124.40880031585694,45.633598570213934L129.01653366088868,50.48060175582749L133.62426700592042,45.28027920345019L138.23200035095215,49.313389297750234L142.8397336959839,46.76921447424073L147.4474670410156,44.52016628147999L152.05520038604737,50.47873366190811L156.6629337310791,44.557238283225246L161.27066707611084,44.73476357047062L165.87840042114257,45.87286758234697L170.48613376617433,44.646794061550764L175.09386711120604,44.952807170657394L179.7016004562378,44.51220272593565" fill="none"></path></g><g><path style="fill: none;" stroke="rgb(255, 112, 67)" stroke-width="2px" d="M23.03866672515869,37.2144696734272L27.64640007019043,36.47707985939033L32.25413341522217,36.770620220733406L36.8618667602539,35.75558494792628L41.46960010528564,35.79411438501381L46.07733345031738,36.465033874461824L50.685066795349115,35.294753555249684L55.29280014038086,34.905578058214076L59.9005334854126,35.38463141873373L64.50826683044434,34.481206705481554L69.11600017547607,35.21836300777852L73.7237335205078,33.77103308733933L78.33146686553955,34.10775701631053L82.93920021057129,35.46020064905068L87.54693355560302,34.775359028625815L92.15466690063477,34.09243381489409L96.7624002456665,34.88096269997445L101.37013359069823,36.19924114952494L105.97786693572999,34.54255587605002L110.58560028076172,34.453934144684155L115.19333362579346,34.17359122271134L119.8010669708252,35.553532875859844L124.40880031585694,35.09436827387856L129.01653366088868,33.39507113393188L133.62426700592042,33.27379801962141L138.23200035095215,34.03419276610532L142.8397336959839,35.116197595497056L147.4474670410156,34.72297187759307L152.05520038604737,34.24750171446192L156.6629337310791,33.798370065168456L161.27066707611084,34.11608291765819L165.87840042114257,34.44432795483141L170.48613376617433,33.460414160465945L175.09386711120604,34.68485309908263L179.7016004562378,35.52467404565675L184.30933380126953,34.30112084122595L188.91706714630126,34.17610348694777L193.524800491333,37.005758490708445L198.13253383636476,33.584916178490516L202.74026718139646,34.56544002656261L207.34800052642822,33.020196217934426L211.95573387145998,35.99616645708022L216.5634672164917,34.05851019557335L221.17120056152345,32.97293022092211L225.77893390655518,34.238660476860645L230.3866672515869,33.88356158959607L234.99440059661865,33.17654440600734L239.6021339416504,33.51350184671844L244.2098672866821,33.507945877734045L248.81760063171387,33.65409201841092" fill="none"></path></g></g></g></g></g></g><g transform="translate(53, 175)" clip-path="url(#clip_1)"><clipPath id="clip_1"><rect width="276" height="24"></rect></clipPath><g><g><line x1="0" y1="0" x2="0" y2="5" style="visibility: inherit;" fill="rgb(0, 0, 0)" stroke="rgb(204, 204, 204)" stroke-width="1px"></line><line x1="23.03866672515869" y1="0" x2="23.03866672515869" y2="5" style="visibility: inherit;" fill="rgb(0, 0, 0)" stroke="rgb(204, 204, 204)" stroke-width="1px"></line><line x1="46.07733345031738" y1="0" x2="46.07733345031738" y2="5" style="visibility: inherit;" fill="rgb(0, 0, 0)" stroke="rgb(204, 204, 204)" stroke-width="1px"></line><line x1="69.11600017547607" y1="0" x2="69.11600017547607" y2="5" style="visibility: inherit;" fill="rgb(0, 0, 0)" stroke="rgb(204, 204, 204)" stroke-width="1px"></line><line x1="92.15466690063477" y1="0" x2="92.15466690063477" y2="5" style="visibility: inherit;" fill="rgb(0, 0, 0)" stroke="rgb(204, 204, 204)" stroke-width="1px"></line><line x1="115.19333362579346" y1="0" x2="115.19333362579346" y2="5" style="visibility: inherit;" fill="rgb(0, 0, 0)" stroke="rgb(204, 204, 204)" stroke-width="1px"></line><line x1="138.23200035095215" y1="0" x2="138.23200035095215" y2="5" style="visibility: inherit;" fill="rgb(0, 0, 0)" stroke="rgb(204, 204, 204)" stroke-width="1px"></line><line x1="161.27066707611084" y1="0" x2="161.27066707611084" y2="5" style="visibility: inherit;" fill="rgb(0, 0, 0)" stroke="rgb(204, 204, 204)" stroke-width="1px"></line><line x1="184.30933380126953" y1="0" x2="184.30933380126953" y2="5" style="visibility: inherit;" fill="rgb(0, 0, 0)" stroke="rgb(204, 204, 204)" stroke-width="1px"></line><line x1="207.34800052642822" y1="0" x2="207.34800052642822" y2="5" style="visibility: inherit;" fill="rgb(0, 0, 0)" stroke="rgb(204, 204, 204)" stroke-width="1px"></line><line x1="230.3866672515869" y1="0" x2="230.3866672515869" y2="5" style="visibility: inherit;" fill="rgb(0, 0, 0)" stroke="rgb(204, 204, 204)" stroke-width="1px"></line><line x1="253.4253339767456" y1="0" x2="253.4253339767456" y2="5" style="visibility: inherit;" fill="rgb(0, 0, 0)" stroke="rgb(204, 204, 204)" stroke-width="1px"></line><line x1="276.4640007019043" y1="0" x2="276.4640007019043" y2="5" style="visibility: inherit;" fill="rgb(0, 0, 0)" stroke="rgb(204, 204, 204)" stroke-width="1px"></line></g><g transform="translate(0, 8)"><text style="text-anchor: middle; visibility: hidden; font-family: &quot;Helvetica Neue&quot;, sans-serif; font-size: 12px; font-weight: 200;" x="0" y="0" dx="0em" dy="0.95em" fill="rgb(50, 49, 63)" stroke="none" stroke-width="1px">-5</text><text style="text-anchor: middle; visibility: inherit; font-family: &quot;Helvetica Neue&quot;, sans-serif; font-size: 12px; font-weight: 200;" x="23.03866672515869" y="0" dx="0em" dy="0.95em" fill="rgb(50, 49, 63)" stroke="none" stroke-width="1px">0</text><text style="text-anchor: middle; visibility: inherit; font-family: &quot;Helvetica Neue&quot;, sans-serif; font-size: 12px; font-weight: 200;" x="46.07733345031738" y="0" dx="0em" dy="0.95em" fill="rgb(50, 49, 63)" stroke="none" stroke-width="1px">5</text><text style="text-anchor: middle; visibility: inherit; font-family: &quot;Helvetica Neue&quot;, sans-serif; font-size: 12px; font-weight: 200;" x="69.11600017547607" y="0" dx="0em" dy="0.95em" fill="rgb(50, 49, 63)" stroke="none" stroke-width="1px">10</text><text style="text-anchor: middle; visibility: inherit; font-family: &quot;Helvetica Neue&quot;, sans-serif; font-size: 12px; font-weight: 200;" x="92.15466690063477" y="0" dx="0em" dy="0.95em" fill="rgb(50, 49, 63)" stroke="none" stroke-width="1px">15</text><text style="text-anchor: middle; visibility: inherit; font-family: &quot;Helvetica Neue&quot;, sans-serif; font-size: 12px; font-weight: 200;" x="115.19333362579346" y="0" dx="0em" dy="0.95em" fill="rgb(50, 49, 63)" stroke="none" stroke-width="1px">20</text><text style="text-anchor: middle; visibility: inherit; font-family: &quot;Helvetica Neue&quot;, sans-serif; font-size: 12px; font-weight: 200;" x="138.23200035095215" y="0" dx="0em" dy="0.95em" fill="rgb(50, 49, 63)" stroke="none" stroke-width="1px">25</text><text style="text-anchor: middle; visibility: inherit; font-family: &quot;Helvetica Neue&quot;, sans-serif; font-size: 12px; font-weight: 200;" x="161.27066707611084" y="0" dx="0em" dy="0.95em" fill="rgb(50, 49, 63)" stroke="none" stroke-width="1px">30</text><text style="text-anchor: middle; visibility: inherit; font-family: &quot;Helvetica Neue&quot;, sans-serif; font-size: 12px; font-weight: 200;" x="184.30933380126953" y="0" dx="0em" dy="0.95em" fill="rgb(50, 49, 63)" stroke="none" stroke-width="1px">35</text><text style="text-anchor: middle; visibility: inherit; font-family: &quot;Helvetica Neue&quot;, sans-serif; font-size: 12px; font-weight: 200;" x="207.34800052642822" y="0" dx="0em" dy="0.95em" fill="rgb(50, 49, 63)" stroke="none" stroke-width="1px">40</text><text style="text-anchor: middle; visibility: inherit; font-family: &quot;Helvetica Neue&quot;, sans-serif; font-size: 12px; font-weight: 200;" x="230.3866672515869" y="0" dx="0em" dy="0.95em" fill="rgb(50, 49, 63)" stroke="none" stroke-width="1px">45</text><text style="text-anchor: middle; visibility: inherit; font-family: &quot;Helvetica Neue&quot;, sans-serif; font-size: 12px; font-weight: 200;" x="253.4253339767456" y="0" dx="0em" dy="0.95em" fill="rgb(50, 49, 63)" stroke="none" stroke-width="1px">50</text><text style="text-anchor: middle; visibility: hidden; font-family: &quot;Helvetica Neue&quot;, sans-serif; font-size: 12px; font-weight: 200;" x="276.4640007019043" y="0" dx="0em" dy="0.95em" fill="rgb(50, 49, 63)" stroke="none" stroke-width="1px">55</text></g><line x1="0" y1="0" x2="276.4640007019043" y2="0" fill="rgb(0, 0, 0)" stroke="rgb(204, 204, 204)" stroke-width="1px"></line></g></g></g></g></svg>