<svg viewBox="0 0 330 200" xmlns="http://www.w3.org/2000/svg"><g><g><g><g><g><line x1="53.5359992980957" y1="175.61999893188477" x2="48.5359992980957" y2="175.61999893188477" style="visibility: inherit;" fill="rgb(0, 0, 0)" stroke="rgb(204, 204, 204)" stroke-width="1px"></line><line x1="53.5359992980957" y1="162.1107682448167" x2="48.5359992980957" y2="162.1107682448167" style="visibility: inherit;" fill="rgb(0, 0, 0)" stroke="rgb(204, 204, 204)" stroke-width="1px"></line><line x1="53.5359992980957" y1="148.60153755774866" x2="48.5359992980957" y2="148.60153755774866" style="visibility: inherit;" fill="rgb(0, 0, 0)" stroke="rgb(204, 204, 204)" stroke-width="1px"></line><line x1="53.5359992980957" y1="135.0923068706806" x2="48.5359992980957" y2="135.0923068706806" style="visibility: inherit;" fill="rgb(0, 0, 0)" stroke="rgb(204, 204, 204)" stroke-width="1px"></line><line x1="53.5359992980957" y1="121.58307618361252" x2="48.5359992980957" y2="121.58307618361252" style="visibility: inherit;" fill="rgb(0, 0, 0)" stroke="rgb(204, 204, 204)" stroke-width="1px"></line><line x1="53.5359992980957" y1="108.07384549654448" x2="48.5359992980957" y2="108.07384549654448" style="visibility: inherit;" fill="rgb(0, 0, 0)" stroke="rgb(204, 204, 204)" stroke-width="1px"></line><line x1="53.5359992980957" y1="94.56461480947642" x2="48.5359992980957" y2="94.56461480947642" style="visibility: inherit;" fill="rgb(0, 0, 0)" stroke="rgb(204, 204, 204)" stroke-width="1px"></line><line x1="53.5359992980957" y1="81.05538412240836" x2="48.5359992980957" y2="81.05538412240836" style="visibility: inherit;" fill="rgb(0, 0, 0)" stroke="rgb(204, 204, 204)" stroke-width="1px"></line><line x1="53.5359992980957" y1="67.5461534353403" x2="48.5359992980957" y2="67.5461534353403" style="visibility: inherit;" fill="rgb(0, 0, 0)" stroke="rgb(204, 204, 204)" stroke-width="1px"></line><line x1="53.5359992980957" y1="54.03692274827223" x2="48.5359992980957" y2="54.03692274827223" style="visibility: inherit;" fill="rgb(0, 0, 0)" stroke="rgb(204, 204, 204)" stroke-width="1px"></line><line x1="53.5359992980957" y1="40.52769206120419" x2="48.5359992980957" y2="40.52769206120419" style="visibility: inherit;" fill="rgb(0, 0, 0)" stroke="rgb(204, 204, 204)" stroke-width="1px"></line><line x1="53.5359992980957" y1="27.01846137413611" x2="48.5359992980957" y2="27.01846137413611" style="visibility: inherit;" fill="rgb(0, 0, 0)" stroke="rgb(204, 204, 204)" stroke-width="1px"></line><line x1="53.5359992980957" y1="13.509230687068055" x2="48.5359992980957" y2="13.509230687068055" style="visibility: inherit;" fill="rgb(0, 0, 0)" stroke="rgb(204, 204, 204)" stroke-width="1px"></line><line x1="53.5359992980957" y1="0" x2="48.5359992980957" y2="0" style="visibility: inherit;" fill="rgb(0, 0, 0)" stroke="rgb(204, 204, 204)" stroke-width="1px"></line></g><g transform="translate(43.5359992980957, 0)"><text style="text-anchor: end; visibility: hidden; font-family: &quot;Helvetica Neue&quot;, sans-serif; font-size: 12px; font-weight: 200;" x="0" y="175.61999893188477" dx="0em" dy="0.3em" fill="rgb(50, 49, 63)" stroke="none" stroke-width="1px">-0.1</text><text style="text-anchor: end; visibility: inherit; font-family: &quot;Helvetica Neue&quot;, sans-serif; font-size: 12px; font-weight: 200;" x="0" y="162.1107682448167" dx="0em" dy="0.3em" fill="rgb(50, 49, 63)" stroke="none" stroke-width="1px">0</text><text style="text-anchor: end; visibility: hidden; font-family: &quot;Helvetica Neue&quot;, sans-serif; font-size: 12px; font-weight: 200;" x="0" y="148.60153755774866" dx="0em" dy="0.3em" fill="rgb(50, 49, 63)" stroke="none" stroke-width="1px">0.1</text><text style="text-anchor: end; visibility: hidden; font-family: &quot;Helvetica Neue&quot;, sans-serif; font-size: 12px; font-weight: 200;" x="0" y="135.0923068706806" dx="0em" dy="0.3em" fill="rgb(50, 49, 63)" stroke="none" stroke-width="1px">0.2</text><text style="text-anchor: end; visibility: inherit; font-family: &quot;Helvetica Neue&quot;, sans-serif; font-size: 12px; font-weight: 200;" x="0" y="121.58307618361252" dx="0em" dy="0.3em" fill="rgb(50, 49, 63)" stroke="none" stroke-width="1px">0.3</text><text style="text-anchor: end; visibility: hidden; font-family: &quot;Helvetica Neue&quot;, sans-serif; font-size: 12px; font-weight: 200;" x="0" y="108.07384549654448" dx="0em" dy="0.3em" fill="rgb(50, 49, 63)" stroke="none" stroke-width="1px">0.4</text><text style="text-anchor: end; visibility: hidden; font-family: &quot;Helvetica Neue&quot;, sans-serif; font-size: 12px; font-weight: 200;" x="0" y="94.56461480947642" dx="0em" dy="0.3em" fill="rgb(50, 49, 63)" stroke="none" stroke-width="1px">0.5</text><text style="text-anchor: end; visibility: inherit; font-family: &quot;Helvetica Neue&quot;, sans-serif; font-size: 12px; font-weight: 200;" x="0" y="81.05538412240836" dx="0em" dy="0.3em" fill="rgb(50, 49, 63)" stroke="none" stroke-width="1px">0.6</text><text style="text-anchor: end; visibility: hidden; font-family: &quot;Helvetica Neue&quot;, sans-serif; font-size: 12px; font-weight: 200;" x="0" y="67.5461534353403" dx="0em" dy="0.3em" fill="rgb(50, 49, 63)" stroke="none" stroke-width="1px">0.7</text><text style="text-anchor: end; visibility: hidden; font-family: &quot;Helvetica Neue&quot;, sans-serif; font-size: 12px; font-weight: 200;" x="0" y="54.03692274827223" dx="0em" dy="0.3em" fill="rgb(50, 49, 63)" stroke="none" stroke-width="1px">0.8</text><text style="text-anchor: end; visibility: inherit; font-family: &quot;Helvetica Neue&quot;, sans-serif; font-size: 12px; font-weight: 200;" x="0" y="40.52769206120419" dx="0em" dy="0.3em" fill="rgb(50, 49, 63)" stroke="none" stroke-width="1px">0.9</text><text style="text-anchor: end; visibility: hidden; font-family: &quot;Helvetica Neue&quot;, sans-serif; font-size: 12px; font-weight: 200;" x="0" y="27.01846137413611" dx="0em" dy="0.3em" fill="rgb(50, 49, 63)" stroke="none" stroke-width="1px">1</text><text style="text-anchor: end; visibility: hidden; font-family: &quot;Helvetica Neue&quot;, sans-serif; font-size: 12px; font-weight: 200;" x="0" y="13.509230687068055" dx="0em" dy="0.3em" fill="rgb(50, 49, 63)" stroke="none" stroke-width="1px">1.1</text><text style="text-anchor: end; visibility: hidden; font-family: &quot;Helvetica Neue&quot;, sans-serif; font-size: 12px; font-weight: 200;" x="0" y="0" dx="0em" dy="0.3em" fill="rgb(50, 49, 63)" stroke="none" stroke-width="1px">1.2</text></g><line x1="53.5359992980957" y1="0" x2="53.5359992980957" y2="175.61999893188477" fill="rgb(0, 0, 0)" stroke="rgb(204, 204, 204)" stroke-width="1px"></line></g></g><g transform="translate(53, 0)" clip-path="url(#clip_0)"><clipPath id="clip_0"><rect width="276" height="175"></rect></clipPath><g><g><g><line x1="0" y1="0" x2="0" y2="175.61999893188477" fill="rgb(0, 0, 0)" stroke="rgb(60, 60, 60)" stroke-width="1px" opacity="0.25"></line><line x1="23.03866672515869" y1="0" x2="23.03866672515869" y2="175.61999893188477" fill="rgb(0, 0, 0)" stroke="rgb(60, 60, 60)" stroke-width="1px" opacity="0.25"></line><line x1="46.07733345031738" y1="0" x2="46.07733345031738" y2="175.61999893188477" fill="rgb(0, 0, 0)" stroke="rgb(60, 60, 60)" stroke-width="1px" opacity="0.25"></line><line x1="69.11600017547607" y1="0" x2="69.11600017547607" y2="175.61999893188477" fill="rgb(0, 0, 0)" stroke="rgb(60, 60, 60)" stroke-width="1px" opacity="0.25"></line><line x1="92.15466690063477" y1="0" x2="92.15466690063477" y2="175.61999893188477" fill="rgb(0, 0, 0)" stroke="rgb(60, 60, 60)" stroke-width="1px" opacity="0.25"></line><line x1="115.19333362579346" y1="0" x2="115.19333362579346" y2="175.61999893188477" fill="rgb(0, 0, 0)" stroke="rgb(60, 60, 60)" stroke-width="1px" opacity="0.25"></line><line x1="138.23200035095215" y1="0" x2="138.23200035095215" y2="175.61999893188477" fill="rgb(0, 0, 0)" stroke="rgb(60, 60, 60)" stroke-width="1px" opacity="0.25"></line><line x1="161.27066707611084" y1="0" x2="161.27066707611084" y2="175.61999893188477" fill="rgb(0, 0, 0)" stroke="rgb(60, 60, 60)" stroke-width="1px" opacity="0.25"></line><line x1="184.30933380126953" y1="0" x2="184.30933380126953" y2="175.61999893188477" fill="rgb(0, 0, 0)" stroke="rgb(60, 60, 60)" stroke-width="1px" opacity="0.25"></line><line x1="207.34800052642822" y1="0" x2="207.34800052642822" y2="175.61999893188477" fill="rgb(0, 0, 0)" stroke="rgb(60, 60, 60)" stroke-width="1px" opacity="0.25"></line><line x1="230.3866672515869" y1="0" x2="230.3866672515869" y2="175.61999893188477" fill="rgb(0, 0, 0)" stroke="rgb(60, 60, 60)" stroke-width="1px" opacity="0.25"></line><line x1="253.4253339767456" y1="0" x2="253.4253339767456" y2="175.61999893188477" fill="rgb(0, 0, 0)" stroke="rgb(60, 60, 60)" stroke-width="1px" opacity="0.25"></line><line x1="276.4640007019043" y1="0" x2="276.4640007019043" y2="175.61999893188477" fill="rgb(0, 0, 0)" stroke="rgb(60, 60, 60)" stroke-width="1px" opacity="0.25"></line></g><g><line x1="0" y1="175.61999893188477" x2="276.4640007019043" y2="175.61999893188477" fill="rgb(0, 0, 0)" stroke="rgb(60, 60, 60)" stroke-width="1px" opacity="0.25"></line><line x1="0" y1="162.1107682448167" x2="276.4640007019043" y2="162.1107682448167" fill="rgb(0, 0, 0)" stroke="rgb(60, 60, 60)" stroke-width="1px" opacity="0.25"></line><line x1="0" y1="148.60153755774866" x2="276.4640007019043" y2="148.60153755774866" fill="rgb(0, 0, 0)" stroke="rgb(60, 60, 60)" stroke-width="1px" opacity="0.25"></line><line x1="0" y1="135.0923068706806" x2="276.4640007019043" y2="135.0923068706806" fill="rgb(0, 0, 0)" stroke="rgb(60, 60, 60)" stroke-width="1px" opacity="0.25"></line><line x1="0" y1="121.58307618361252" x2="276.4640007019043" y2="121.58307618361252" fill="rgb(0, 0, 0)" stroke="rgb(60, 60, 60)" stroke-width="1px" opacity="0.25"></line><line x1="0" y1="108.07384549654448" x2="276.4640007019043" y2="108.07384549654448" fill="rgb(0, 0, 0)" stroke="rgb(60, 60, 60)" stroke-width="1px" opacity="0.25"></line><line x1="0" y1="94.56461480947642" x2="276.4640007019043" y2="94.56461480947642" fill="rgb(0, 0, 0)" stroke="rgb(60, 60, 60)" stroke-width="1px" opacity="0.25"></line><line x1="0" y1="81.05538412240836" x2="276.4640007019043" y2="81.05538412240836" fill="rgb(0, 0, 0)" stroke="rgb(60, 60, 60)" stroke-width="1px" opacity="0.25"></line><line x1="0" y1="67.5461534353403" x2="276.4640007019043" y2="67.5461534353403" fill="rgb(0, 0, 0)" stroke="rgb(60, 60, 60)" stroke-width="1px" opacity="0.25"></line><line x1="0" y1="54.03692274827223" x2="276.4640007019043" y2="54.03692274827223" fill="rgb(0, 0, 0)" stroke="rgb(60, 60, 60)" stroke-width="1px" opacity="0.25"></line><line x1="0" y1="40.52769206120419" x2="276.4640007019043" y2="40.52769206120419" fill="rgb(0, 0, 0)" stroke="rgb(60, 60, 60)" stroke-width="1px" opacity="0.25"></line><line x1="0" y1="27.01846137413611" x2="276.4640007019043" y2="27.01846137413611" fill="rgb(0, 0, 0)" stroke="rgb(60, 60, 60)" stroke-width="1px" opacity="0.25"></line><line x1="0" y1="13.509230687068055" x2="276.4640007019043" y2="13.509230687068055" fill="rgb(0, 0, 0)" stroke="rgb(60, 60, 60)" stroke-width="1px" opacity="0.25"></line><line x1="0" y1="0" x2="276.4640007019043" y2="0" fill="rgb(0, 0, 0)" stroke="rgb(60, 60, 60)" stroke-width="1px" opacity="0.25"></line></g></g></g><g><g><line x1="0" y1="162.1107682448167" x2="276.4640007019043" y2="162.1107682448167" fill="rgb(0, 0, 0)" stroke="rgb(153, 153, 153)" stroke-width="1.5px"></line></g></g><g><g><line x1="23.03866672515869" y1="0" x2="23.03866672515869" y2="175.61999893188477" fill="rgb(0, 0, 0)" stroke="rgb(153, 153, 153)" stroke-width="1.5px"></line></g></g><g><g><g><g><g><path style="fill: none;" stroke="rgb(51, 187, 238)" stroke-width="2px" d="M23.03866672515869,55.38784291821263L27.64640007019043,48.025314383939616L32.25413341522217,47.14721361627582L36.8618667602539,44.580460623154295L41.46960010528564,47.55249337123723L46.07733345031738,42.891808397696565L50.685066795349115,44.445370055543464L55.29280014038086,43.49971997800978L59.9005334854126,43.36462941039895L64.50826683044434,42.95934965543751L69.11600017547607,40.73032710740753L73.7237335205078,41.60842787507133L78.33146686553955,39.71713577213288L82.93920021057129,41.94615832016288L87.54693355560302,40.86542572714731L92.15466690063477,40.32505540457504L96.7624002456665,40.93296698488825L101.37013359069823,40.05486621722443L105.97786693572999,40.93296698488825L110.58560028076172,40.05486621722443L115.19333362579346,39.9197756496136L119.8010669708252,40.93296698488825L124.40880031585694,37.55566253397279L129.01653366088868,38.90658431433897L133.62426700592042,38.77149374672814L138.23200035095215,41.135606862368945L142.8397336959839,37.960934236805286L147.4474670410156,38.43376330163662L152.05520038604737,39.379405327041354L156.6629337310791,38.63640317911734L161.27066707611084,39.649594514391964L165.87840042114257,39.51449589465216L170.48613376617433,40.46014597218584L175.09386711120604,39.649594514391964L179.7016004562378,39.176765449560634L184.30933380126953,38.97413362420886L188.91706714630126,37.623203791713735L193.524800491333,38.298672734025786L198.13253383636476,38.096032856545065L202.74026718139646,37.01529221140052L207.34800052642822,38.16357411428601L211.95573387145998,38.77149374672814L216.5634672164917,38.77149374672814L221.17120056152345,36.74511107617889L225.77893390655518,38.23112342415587L230.3866672515869,36.542471198698166L234.99440059661865,37.55566253397279L239.6021339416504,37.35302265649207L244.2098672866821,39.379405327041354L248.81760063171387,38.43376330163662" fill="none"></path></g><g><path style="fill: none;" stroke="rgb(204, 51, 17)" stroke-width="2px" d="M23.03866672515869,135.22739904871722L27.64640007019043,121.58307457318674L32.25413341522217,72.13929070943686L36.8618667602539,94.15933505451498L41.46960010528564,72.94984216723078L46.07733345031738,45.52611070068798L50.685066795349115,62.54773962713388L55.29280014038086,43.49971997800978L59.9005334854126,80.10973887615204L64.50826683044434,41.20315617223886L69.11600017547607,41.20315617223886L73.7237335205078,41.743526494811135L78.33146686553955,38.23112342415587L82.93920021057129,40.52769528205579L87.54693355560302,39.582045204522046L92.15466690063477,41.4733373074605L96.7624002456665,40.79787641727742L101.37013359069823,45.66120126829881L105.97786693572999,35.79946099864517L110.58560028076172,37.15038277901135L115.19333362579346,38.77149374672814L119.8010669708252,40.79787641727742L124.40880031585694,37.55566253397279L129.01653366088868,46.60684329370355L133.62426700592042,35.79946099864517L138.23200035095215,35.1240001084621L142.8397336959839,36.339831321217446L147.4474670410156,36.20474075360664L152.05520038604737,35.52927986342354L156.6629337310791,37.690753101583624L161.27066707611084,38.63640317911734L165.87840042114257,35.39418124368376L170.48613376617433,35.1240001084621L175.09386711120604,33.50288914074531L179.7016004562378,34.04325946331758L184.30933380126953,32.962526870302014L188.91706714630126,33.90816889570675L193.524800491333,33.097617437912845L198.13253383636476,36.20474075360664L202.74026718139646,32.827428250562235L207.34800052642822,32.5572471153406L211.95573387145998,34.71872035350066L216.5634672164917,36.61001245643911L221.17120056152345,33.50288914074531L225.77893390655518,32.15196736037913L230.3866672515869,32.827428250562235L234.99440059661865,33.36779857313448L239.6021339416504,54.98257121538015L244.2098672866821,32.01687679276833L248.81760063171387,30.936136147623785" fill="none"></path></g><g><path style="fill: none;" stroke="rgb(238, 51, 119)" stroke-width="2px" d="M23.03866672515869,42.41898738499421L27.64640007019043,39.446954636911215L32.25413341522217,36.47492188882828L36.8618667602539,36.47492188882828L41.46960010528564,38.096032856545065L46.07733345031738,39.582045204522046L50.685066795349115,36.20474075360664L55.29280014038086,36.069642133866836L59.9005334854126,34.583629785889826L64.50826683044434,35.79946099864517L69.11600017547607,34.988909540851296L73.7237335205078,34.31344865066819L78.33146686553955,33.90816889570675L82.93920021057129,34.583629785889826L87.54693355560302,35.52927986342354L92.15466690063477,34.988909540851296L96.7624002456665,35.25909067607293L101.37013359069823,34.44853921827902L105.97786693572999,32.962526870302014L110.58560028076172,34.583629785889826L115.19333362579346,34.853818973240436L119.8010669708252,33.097617437912845L124.40880031585694,33.90816889570675L129.01653366088868,34.31344865066819L133.62426700592042,33.36779857313448L138.23200035095215,35.66437043103437L142.8397336959839,34.04325946331758L147.4474670410156,33.90816889570675L152.05520038604737,33.097617437912845L156.6629337310791,32.28705792798996L161.27066707611084,34.853818973240436L165.87840042114257,33.50288914074531L170.48613376617433,33.36779857313448L175.09386711120604,34.31344865066819L179.7016004562378,33.77307832809595L184.30933380126953,34.04325946331758L188.91706714630126,33.232708005523676L193.524800491333,32.692337682951404L198.13253383636476,32.42215654772974L202.74026718139646,32.15196736037913L207.34800052642822,32.827428250562235L211.95573387145998,33.63798776048509L216.5634672164917,33.50288914074531L221.17120056152345,32.692337682951404L225.77893390655518,33.77307832809595L230.3866672515869,32.827428250562235L234.99440059661865,34.583629785889826L239.6021339416504,32.962526870302014L244.2098672866821,33.77307832809595L248.81760063171387,33.097617437912845" fill="none"></path></g><g><path style="fill: none;" stroke="rgb(0, 119, 187)" stroke-width="2px" d="M23.03866672515869,39.64014131498948L27.64640007019043,39.27611261670506L32.25413341522217,38.61425177234034L36.8618667602539,38.23037457616235L41.46960010528564,37.72735807984904L46.07733345031738,37.833259679969274L50.685066795349115,37.853116229991855L55.29280014038086,37.33686203366349L59.9005334854126,37.237587335679734L64.50826683044434,37.47585788382136L69.11600017547607,37.69427188194041L73.7237335205078,37.05887838547679L78.33146686553955,37.330243183655995L82.93920021057129,37.29053008361089L87.54693355560302,38.14432952606464L92.15466690063477,37.621464531857754L96.7624002456665,37.70088267981896L101.37013359069823,37.01917333756066L105.97786693572999,36.536013391269904L110.58560028076172,37.36333743369357L115.19333362579346,37.07873493549934L119.8010669708252,38.0715302281109L124.40880031585694,36.741189689373954L129.01653366088868,38.35612467417616L133.62426700592042,37.535419481760044L138.23200035095215,37.588370281820175L142.8397336959839,37.1912553856271L147.4474670410156,36.97946023751558L152.05520038604737,37.40966938374618L156.6629337310791,36.562488791299984L161.27066707611084,36.57572649131501L165.87840042114257,37.05887838547679L170.48613376617433,36.628669239246165L175.09386711120604,37.178017685612076L179.7016004562378,36.27788629310575" fill="none"></path></g><g><path style="fill: none;" stroke="rgb(255, 112, 67)" stroke-width="2px" d="M23.03866672515869,37.03568020193464L27.64640007019043,36.16905371804299L32.25413341522217,36.39845887219644L36.8618667602539,35.42986827924739L41.46960010528564,35.5063393480082L46.07733345031738,36.29650281526801L50.685066795349115,35.04752903970132L55.29280014038086,34.79263889738024L59.9005334854126,35.149485096629746L64.50826683044434,34.282858612738096L69.11600017547607,34.9965510112371L73.7237335205078,33.722100299631734L78.33146686553955,33.849541344727754L82.93920021057129,35.22595616539053L87.54693355560302,34.41030770996309L92.15466690063477,33.849541344727754L96.7624002456665,34.767153909212595L101.37013359069823,36.42394386036406L105.97786693572999,34.384814669666525L110.58560028076172,34.10443148704883L115.19333362579346,33.90051937319197L119.8010669708252,35.04752903970132L124.40880031585694,35.09850706816553L129.01653366088868,33.18682697469296L133.62426700592042,33.18682697469296L138.23200035095215,33.82405635656016L142.8397336959839,34.71617588074838L147.4474670410156,34.51226376689152L152.05520038604737,34.10443148704883L156.6629337310791,33.67112227116752L161.27066707611084,33.90051937319197L165.87840042114257,34.384814669666525L170.48613376617433,33.36525410038223L175.09386711120604,34.588726783523384L179.7016004562378,35.633780393104246L184.30933380126953,33.97699044195281L188.91706714630126,33.87503438502438L193.524800491333,37.31606338455231L198.13253383636476,33.441717117014036L202.74026718139646,34.56324179535574L207.34800052642822,32.95742182053954L211.95573387145998,35.96514160418613L216.5634672164917,33.87503438502438L221.17120056152345,32.95742182053954L225.77893390655518,33.951497401656184L230.3866672515869,33.620144242703304L234.99440059661865,33.16134198652537L239.6021339416504,33.23780500315718L244.2098672866821,33.416232128846445L248.81760063171387,33.416232128846445" fill="none"></path></g></g></g></g></g></g><g transform="translate(53, 175)" clip-path="url(#clip_1)"><clipPath id="clip_1"><rect width="276" height="24"></rect></clipPath><g><g><line x1="0" y1="0" x2="0" y2="5" style="visibility: inherit;" fill="rgb(0, 0, 0)" stroke="rgb(204, 204, 204)" stroke-width="1px"></line><line x1="23.03866672515869" y1="0" x2="23.03866672515869" y2="5" style="visibility: inherit;" fill="rgb(0, 0, 0)" stroke="rgb(204, 204, 204)" stroke-width="1px"></line><line x1="46.07733345031738" y1="0" x2="46.07733345031738" y2="5" style="visibility: inherit;" fill="rgb(0, 0, 0)" stroke="rgb(204, 204, 204)" stroke-width="1px"></line><line x1="69.11600017547607" y1="0" x2="69.11600017547607" y2="5" style="visibility: inherit;" fill="rgb(0, 0, 0)" stroke="rgb(204, 204, 204)" stroke-width="1px"></line><line x1="92.15466690063477" y1="0" x2="92.15466690063477" y2="5" style="visibility: inherit;" fill="rgb(0, 0, 0)" stroke="rgb(204, 204, 204)" stroke-width="1px"></line><line x1="115.19333362579346" y1="0" x2="115.19333362579346" y2="5" style="visibility: inherit;" fill="rgb(0, 0, 0)" stroke="rgb(204, 204, 204)" stroke-width="1px"></line><line x1="138.23200035095215" y1="0" x2="138.23200035095215" y2="5" style="visibility: inherit;" fill="rgb(0, 0, 0)" stroke="rgb(204, 204, 204)" stroke-width="1px"></line><line x1="161.27066707611084" y1="0" x2="161.27066707611084" y2="5" style="visibility: inherit;" fill="rgb(0, 0, 0)" stroke="rgb(204, 204, 204)" stroke-width="1px"></line><line x1="184.30933380126953" y1="0" x2="184.30933380126953" y2="5" style="visibility: inherit;" fill="rgb(0, 0, 0)" stroke="rgb(204, 204, 204)" stroke-width="1px"></line><line x1="207.34800052642822" y1="0" x2="207.34800052642822" y2="5" style="visibility: inherit;" fill="rgb(0, 0, 0)" stroke="rgb(204, 204, 204)" stroke-width="1px"></line><line x1="230.3866672515869" y1="0" x2="230.3866672515869" y2="5" style="visibility: inherit;" fill="rgb(0, 0, 0)" stroke="rgb(204, 204, 204)" stroke-width="1px"></line><line x1="253.4253339767456" y1="0" x2="253.4253339767456" y2="5" style="visibility: inherit;" fill="rgb(0, 0, 0)" stroke="rgb(204, 204, 204)" stroke-width="1px"></line><line x1="276.4640007019043" y1="0" x2="276.4640007019043" y2="5" style="visibility: inherit;" fill="rgb(0, 0, 0)" stroke="rgb(204, 204, 204)" stroke-width="1px"></line></g><g transform="translate(0, 8)"><text style="text-anchor: middle; visibility: hidden; font-family: &quot;Helvetica Neue&quot;, sans-serif; font-size: 12px; font-weight: 200;" x="0" y="0" dx="0em" dy="0.95em" fill="rgb(50, 49, 63)" stroke="none" stroke-width="1px">-5</text><text style="text-anchor: middle; visibility: inherit; font-family: &quot;Helvetica Neue&quot;, sans-serif; font-size: 12px; font-weight: 200;" x="23.03866672515869" y="0" dx="0em" dy="0.95em" fill="rgb(50, 49, 63)" stroke="none" stroke-width="1px">0</text><text style="text-anchor: middle; visibility: inherit; font-family: &quot;Helvetica Neue&quot;, sans-serif; font-size: 12px; font-weight: 200;" x="46.07733345031738" y="0" dx="0em" dy="0.95em" fill="rgb(50, 49, 63)" stroke="none" stroke-width="1px">5</text><text style="text-anchor: middle; visibility: inherit; font-family: &quot;Helvetica Neue&quot;, sans-serif; font-size: 12px; font-weight: 200;" x="69.11600017547607" y="0" dx="0em" dy="0.95em" fill="rgb(50, 49, 63)" stroke="none" stroke-width="1px">10</text><text style="text-anchor: middle; visibility: inherit; font-family: &quot;Helvetica Neue&quot;, sans-serif; font-size: 12px; font-weight: 200;" x="92.15466690063477" y="0" dx="0em" dy="0.95em" fill="rgb(50, 49, 63)" stroke="none" stroke-width="1px">15</text><text style="text-anchor: middle; visibility: inherit; font-family: &quot;Helvetica Neue&quot;, sans-serif; font-size: 12px; font-weight: 200;" x="115.19333362579346" y="0" dx="0em" dy="0.95em" fill="rgb(50, 49, 63)" stroke="none" stroke-width="1px">20</text><text style="text-anchor: middle; visibility: inherit; font-family: &quot;Helvetica Neue&quot;, sans-serif; font-size: 12px; font-weight: 200;" x="138.23200035095215" y="0" dx="0em" dy="0.95em" fill="rgb(50, 49, 63)" stroke="none" stroke-width="1px">25</text><text style="text-anchor: middle; visibility: inherit; font-family: &quot;Helvetica Neue&quot;, sans-serif; font-size: 12px; font-weight: 200;" x="161.27066707611084" y="0" dx="0em" dy="0.95em" fill="rgb(50, 49, 63)" stroke="none" stroke-width="1px">30</text><text style="text-anchor: middle; visibility: inherit; font-family: &quot;Helvetica Neue&quot;, sans-serif; font-size: 12px; font-weight: 200;" x="184.30933380126953" y="0" dx="0em" dy="0.95em" fill="rgb(50, 49, 63)" stroke="none" stroke-width="1px">35</text><text style="text-anchor: middle; visibility: inherit; font-family: &quot;Helvetica Neue&quot;, sans-serif; font-size: 12px; font-weight: 200;" x="207.34800052642822" y="0" dx="0em" dy="0.95em" fill="rgb(50, 49, 63)" stroke="none" stroke-width="1px">40</text><text style="text-anchor: middle; visibility: inherit; font-family: &quot;Helvetica Neue&quot;, sans-serif; font-size: 12px; font-weight: 200;" x="230.3866672515869" y="0" dx="0em" dy="0.95em" fill="rgb(50, 49, 63)" stroke="none" stroke-width="1px">45</text><text style="text-anchor: middle; visibility: inherit; font-family: &quot;Helvetica Neue&quot;, sans-serif; font-size: 12px; font-weight: 200;" x="253.4253339767456" y="0" dx="0em" dy="0.95em" fill="rgb(50, 49, 63)" stroke="none" stroke-width="1px">50</text><text style="text-anchor: middle; visibility: hidden; font-family: &quot;Helvetica Neue&quot;, sans-serif; font-size: 12px; font-weight: 200;" x="276.4640007019043" y="0" dx="0em" dy="0.95em" fill="rgb(50, 49, 63)" stroke="none" stroke-width="1px">55</text></g><line x1="0" y1="0" x2="276.4640007019043" y2="0" fill="rgb(0, 0, 0)" stroke="rgb(204, 204, 204)" stroke-width="1px"></line></g></g></g></g></svg>