<svg viewBox="0 0 330 200" xmlns="http://www.w3.org/2000/svg"><g><g><g><g><g><line x1="53.5359992980957" y1="175.61999893188477" x2="48.5359992980957" y2="175.61999893188477" style="visibility: inherit;" fill="rgb(0, 0, 0)" stroke="rgb(204, 204, 204)" stroke-width="1px"></line><line x1="53.5359992980957" y1="162.1107682448167" x2="48.5359992980957" y2="162.1107682448167" style="visibility: inherit;" fill="rgb(0, 0, 0)" stroke="rgb(204, 204, 204)" stroke-width="1px"></line><line x1="53.5359992980957" y1="148.60153755774866" x2="48.5359992980957" y2="148.60153755774866" style="visibility: inherit;" fill="rgb(0, 0, 0)" stroke="rgb(204, 204, 204)" stroke-width="1px"></line><line x1="53.5359992980957" y1="135.0923068706806" x2="48.5359992980957" y2="135.0923068706806" style="visibility: inherit;" fill="rgb(0, 0, 0)" stroke="rgb(204, 204, 204)" stroke-width="1px"></line><line x1="53.5359992980957" y1="121.58307618361252" x2="48.5359992980957" y2="121.58307618361252" style="visibility: inherit;" fill="rgb(0, 0, 0)" stroke="rgb(204, 204, 204)" stroke-width="1px"></line><line x1="53.5359992980957" y1="108.07384549654448" x2="48.5359992980957" y2="108.07384549654448" style="visibility: inherit;" fill="rgb(0, 0, 0)" stroke="rgb(204, 204, 204)" stroke-width="1px"></line><line x1="53.5359992980957" y1="94.56461480947642" x2="48.5359992980957" y2="94.56461480947642" style="visibility: inherit;" fill="rgb(0, 0, 0)" stroke="rgb(204, 204, 204)" stroke-width="1px"></line><line x1="53.5359992980957" y1="81.05538412240836" x2="48.5359992980957" y2="81.05538412240836" style="visibility: inherit;" fill="rgb(0, 0, 0)" stroke="rgb(204, 204, 204)" stroke-width="1px"></line><line x1="53.5359992980957" y1="67.5461534353403" x2="48.5359992980957" y2="67.5461534353403" style="visibility: inherit;" fill="rgb(0, 0, 0)" stroke="rgb(204, 204, 204)" stroke-width="1px"></line><line x1="53.5359992980957" y1="54.03692274827223" x2="48.5359992980957" y2="54.03692274827223" style="visibility: inherit;" fill="rgb(0, 0, 0)" stroke="rgb(204, 204, 204)" stroke-width="1px"></line><line x1="53.5359992980957" y1="40.52769206120419" x2="48.5359992980957" y2="40.52769206120419" style="visibility: inherit;" fill="rgb(0, 0, 0)" stroke="rgb(204, 204, 204)" stroke-width="1px"></line><line x1="53.5359992980957" y1="27.01846137413611" x2="48.5359992980957" y2="27.01846137413611" style="visibility: inherit;" fill="rgb(0, 0, 0)" stroke="rgb(204, 204, 204)" stroke-width="1px"></line><line x1="53.5359992980957" y1="13.509230687068055" x2="48.5359992980957" y2="13.509230687068055" style="visibility: inherit;" fill="rgb(0, 0, 0)" stroke="rgb(204, 204, 204)" stroke-width="1px"></line><line x1="53.5359992980957" y1="0" x2="48.5359992980957" y2="0" style="visibility: inherit;" fill="rgb(0, 0, 0)" stroke="rgb(204, 204, 204)" stroke-width="1px"></line></g><g transform="translate(43.5359992980957, 0)"><text style="text-anchor: end; visibility: hidden; font-family: &quot;Helvetica Neue&quot;, sans-serif; font-size: 12px; font-weight: 200;" x="0" y="175.61999893188477" dx="0em" dy="0.3em" fill="rgb(50, 49, 63)" stroke="none" stroke-width="1px">-0.1</text><text style="text-anchor: end; visibility: inherit; font-family: &quot;Helvetica Neue&quot;, sans-serif; font-size: 12px; font-weight: 200;" x="0" y="162.1107682448167" dx="0em" dy="0.3em" fill="rgb(50, 49, 63)" stroke="none" stroke-width="1px">0</text><text style="text-anchor: end; visibility: hidden; font-family: &quot;Helvetica Neue&quot;, sans-serif; font-size: 12px; font-weight: 200;" x="0" y="148.60153755774866" dx="0em" dy="0.3em" fill="rgb(50, 49, 63)" stroke="none" stroke-width="1px">0.1</text><text style="text-anchor: end; visibility: hidden; font-family: &quot;Helvetica Neue&quot;, sans-serif; font-size: 12px; font-weight: 200;" x="0" y="135.0923068706806" dx="0em" dy="0.3em" fill="rgb(50, 49, 63)" stroke="none" stroke-width="1px">0.2</text><text style="text-anchor: end; visibility: inherit; font-family: &quot;Helvetica Neue&quot;, sans-serif; font-size: 12px; font-weight: 200;" x="0" y="121.58307618361252" dx="0em" dy="0.3em" fill="rgb(50, 49, 63)" stroke="none" stroke-width="1px">0.3</text><text style="text-anchor: end; visibility: hidden; font-family: &quot;Helvetica Neue&quot;, sans-serif; font-size: 12px; font-weight: 200;" x="0" y="108.07384549654448" dx="0em" dy="0.3em" fill="rgb(50, 49, 63)" stroke="none" stroke-width="1px">0.4</text><text style="text-anchor: end; visibility: hidden; font-family: &quot;Helvetica Neue&quot;, sans-serif; font-size: 12px; font-weight: 200;" x="0" y="94.56461480947642" dx="0em" dy="0.3em" fill="rgb(50, 49, 63)" stroke="none" stroke-width="1px">0.5</text><text style="text-anchor: end; visibility: inherit; font-family: &quot;Helvetica Neue&quot;, sans-serif; font-size: 12px; font-weight: 200;" x="0" y="81.05538412240836" dx="0em" dy="0.3em" fill="rgb(50, 49, 63)" stroke="none" stroke-width="1px">0.6</text><text style="text-anchor: end; visibility: hidden; font-family: &quot;Helvetica Neue&quot;, sans-serif; font-size: 12px; font-weight: 200;" x="0" y="67.5461534353403" dx="0em" dy="0.3em" fill="rgb(50, 49, 63)" stroke="none" stroke-width="1px">0.7</text><text style="text-anchor: end; visibility: hidden; font-family: &quot;Helvetica Neue&quot;, sans-serif; font-size: 12px; font-weight: 200;" x="0" y="54.03692274827223" dx="0em" dy="0.3em" fill="rgb(50, 49, 63)" stroke="none" stroke-width="1px">0.8</text><text style="text-anchor: end; visibility: inherit; font-family: &quot;Helvetica Neue&quot;, sans-serif; font-size: 12px; font-weight: 200;" x="0" y="40.52769206120419" dx="0em" dy="0.3em" fill="rgb(50, 49, 63)" stroke="none" stroke-width="1px">0.9</text><text style="text-anchor: end; visibility: hidden; font-family: &quot;Helvetica Neue&quot;, sans-serif; font-size: 12px; font-weight: 200;" x="0" y="27.01846137413611" dx="0em" dy="0.3em" fill="rgb(50, 49, 63)" stroke="none" stroke-width="1px">1</text><text style="text-anchor: end; visibility: hidden; font-family: &quot;Helvetica Neue&quot;, sans-serif; font-size: 12px; font-weight: 200;" x="0" y="13.509230687068055" dx="0em" dy="0.3em" fill="rgb(50, 49, 63)" stroke="none" stroke-width="1px">1.1</text><text style="text-anchor: end; visibility: hidden; font-family: &quot;Helvetica Neue&quot;, sans-serif; font-size: 12px; font-weight: 200;" x="0" y="0" dx="0em" dy="0.3em" fill="rgb(50, 49, 63)" stroke="none" stroke-width="1px">1.2</text></g><line x1="53.5359992980957" y1="0" x2="53.5359992980957" y2="175.61999893188477" fill="rgb(0, 0, 0)" stroke="rgb(204, 204, 204)" stroke-width="1px"></line></g></g><g transform="translate(53, 0)" clip-path="url(#clip_0)"><clipPath id="clip_0"><rect width="276" height="175"></rect></clipPath><g><g><g><line x1="0" y1="0" x2="0" y2="175.61999893188477" fill="rgb(0, 0, 0)" stroke="rgb(60, 60, 60)" stroke-width="1px" opacity="0.25"></line><line x1="23.03866672515869" y1="0" x2="23.03866672515869" y2="175.61999893188477" fill="rgb(0, 0, 0)" stroke="rgb(60, 60, 60)" stroke-width="1px" opacity="0.25"></line><line x1="46.07733345031738" y1="0" x2="46.07733345031738" y2="175.61999893188477" fill="rgb(0, 0, 0)" stroke="rgb(60, 60, 60)" stroke-width="1px" opacity="0.25"></line><line x1="69.11600017547607" y1="0" x2="69.11600017547607" y2="175.61999893188477" fill="rgb(0, 0, 0)" stroke="rgb(60, 60, 60)" stroke-width="1px" opacity="0.25"></line><line x1="92.15466690063477" y1="0" x2="92.15466690063477" y2="175.61999893188477" fill="rgb(0, 0, 0)" stroke="rgb(60, 60, 60)" stroke-width="1px" opacity="0.25"></line><line x1="115.19333362579346" y1="0" x2="115.19333362579346" y2="175.61999893188477" fill="rgb(0, 0, 0)" stroke="rgb(60, 60, 60)" stroke-width="1px" opacity="0.25"></line><line x1="138.23200035095215" y1="0" x2="138.23200035095215" y2="175.61999893188477" fill="rgb(0, 0, 0)" stroke="rgb(60, 60, 60)" stroke-width="1px" opacity="0.25"></line><line x1="161.27066707611084" y1="0" x2="161.27066707611084" y2="175.61999893188477" fill="rgb(0, 0, 0)" stroke="rgb(60, 60, 60)" stroke-width="1px" opacity="0.25"></line><line x1="184.30933380126953" y1="0" x2="184.30933380126953" y2="175.61999893188477" fill="rgb(0, 0, 0)" stroke="rgb(60, 60, 60)" stroke-width="1px" opacity="0.25"></line><line x1="207.34800052642822" y1="0" x2="207.34800052642822" y2="175.61999893188477" fill="rgb(0, 0, 0)" stroke="rgb(60, 60, 60)" stroke-width="1px" opacity="0.25"></line><line x1="230.3866672515869" y1="0" x2="230.3866672515869" y2="175.61999893188477" fill="rgb(0, 0, 0)" stroke="rgb(60, 60, 60)" stroke-width="1px" opacity="0.25"></line><line x1="253.4253339767456" y1="0" x2="253.4253339767456" y2="175.61999893188477" fill="rgb(0, 0, 0)" stroke="rgb(60, 60, 60)" stroke-width="1px" opacity="0.25"></line><line x1="276.4640007019043" y1="0" x2="276.4640007019043" y2="175.61999893188477" fill="rgb(0, 0, 0)" stroke="rgb(60, 60, 60)" stroke-width="1px" opacity="0.25"></line></g><g><line x1="0" y1="175.61999893188477" x2="276.4640007019043" y2="175.61999893188477" fill="rgb(0, 0, 0)" stroke="rgb(60, 60, 60)" stroke-width="1px" opacity="0.25"></line><line x1="0" y1="162.1107682448167" x2="276.4640007019043" y2="162.1107682448167" fill="rgb(0, 0, 0)" stroke="rgb(60, 60, 60)" stroke-width="1px" opacity="0.25"></line><line x1="0" y1="148.60153755774866" x2="276.4640007019043" y2="148.60153755774866" fill="rgb(0, 0, 0)" stroke="rgb(60, 60, 60)" stroke-width="1px" opacity="0.25"></line><line x1="0" y1="135.0923068706806" x2="276.4640007019043" y2="135.0923068706806" fill="rgb(0, 0, 0)" stroke="rgb(60, 60, 60)" stroke-width="1px" opacity="0.25"></line><line x1="0" y1="121.58307618361252" x2="276.4640007019043" y2="121.58307618361252" fill="rgb(0, 0, 0)" stroke="rgb(60, 60, 60)" stroke-width="1px" opacity="0.25"></line><line x1="0" y1="108.07384549654448" x2="276.4640007019043" y2="108.07384549654448" fill="rgb(0, 0, 0)" stroke="rgb(60, 60, 60)" stroke-width="1px" opacity="0.25"></line><line x1="0" y1="94.56461480947642" x2="276.4640007019043" y2="94.56461480947642" fill="rgb(0, 0, 0)" stroke="rgb(60, 60, 60)" stroke-width="1px" opacity="0.25"></line><line x1="0" y1="81.05538412240836" x2="276.4640007019043" y2="81.05538412240836" fill="rgb(0, 0, 0)" stroke="rgb(60, 60, 60)" stroke-width="1px" opacity="0.25"></line><line x1="0" y1="67.5461534353403" x2="276.4640007019043" y2="67.5461534353403" fill="rgb(0, 0, 0)" stroke="rgb(60, 60, 60)" stroke-width="1px" opacity="0.25"></line><line x1="0" y1="54.03692274827223" x2="276.4640007019043" y2="54.03692274827223" fill="rgb(0, 0, 0)" stroke="rgb(60, 60, 60)" stroke-width="1px" opacity="0.25"></line><line x1="0" y1="40.52769206120419" x2="276.4640007019043" y2="40.52769206120419" fill="rgb(0, 0, 0)" stroke="rgb(60, 60, 60)" stroke-width="1px" opacity="0.25"></line><line x1="0" y1="27.01846137413611" x2="276.4640007019043" y2="27.01846137413611" fill="rgb(0, 0, 0)" stroke="rgb(60, 60, 60)" stroke-width="1px" opacity="0.25"></line><line x1="0" y1="13.509230687068055" x2="276.4640007019043" y2="13.509230687068055" fill="rgb(0, 0, 0)" stroke="rgb(60, 60, 60)" stroke-width="1px" opacity="0.25"></line><line x1="0" y1="0" x2="276.4640007019043" y2="0" fill="rgb(0, 0, 0)" stroke="rgb(60, 60, 60)" stroke-width="1px" opacity="0.25"></line></g></g></g><g><g><line x1="0" y1="162.1107682448167" x2="276.4640007019043" y2="162.1107682448167" fill="rgb(0, 0, 0)" stroke="rgb(153, 153, 153)" stroke-width="1.5px"></line></g></g><g><g><line x1="23.03866672515869" y1="0" x2="23.03866672515869" y2="175.61999893188477" fill="rgb(0, 0, 0)" stroke="rgb(153, 153, 153)" stroke-width="1.5px"></line></g></g><g><g><g><g><g><path style="fill: none;" stroke="rgb(51, 187, 238)" stroke-width="2px" d="M23.03866672515869,55.527627877008825L27.64640007019043,48.12504000114531L32.25413341522217,46.97695134935498L36.8618667602539,44.727041578795195L41.46960010528564,47.27862436095057L46.07733345031738,42.3683555980754L50.685066795349115,44.606468999704504L55.29280014038086,43.451729289390784L59.9005334854126,43.277376540956794L64.50826683044434,43.201098723291096L69.11600017547607,40.69922978535274L73.7237335205078,42.03483641643146L78.33146686553955,39.76520698204149L82.93920021057129,42.055836368766734L87.54693355560302,40.74373390213077L92.15466690063477,40.15143539987665L96.7624002456665,40.565371193473254L101.37013359069823,39.840848681519105L105.97786693572999,41.061495067394276L110.58560028076172,39.900965876356224L115.19333362579346,39.78047381855515L119.8010669708252,40.424209320624385L124.40880031585694,37.34611392984189L129.01653366088868,39.14877624928553L133.62426700592042,38.88018943559854L138.23200035095215,40.97687524412302L142.8397336959839,38.20960813556698L147.4474670410156,38.69534476312586L152.05520038604737,39.45516780845341L156.6629337310791,38.85430184098277L161.27066707611084,39.61062221021143L165.87840042114257,39.43268626438896L170.48613376617433,40.7001960408283L175.09386711120604,39.23784084774434L179.7016004562378,39.2339355651973L184.30933380126953,38.98604272294503L188.91706714630126,37.688885007664226L193.524800491333,38.326967915201465L198.13253383636476,38.22659812767873L202.74026718139646,37.17290458372065L207.34800052642822,38.48766425291436L211.95573387145998,38.48285713192351L216.5634672164917,38.67704227399315L221.17120056152345,36.60696069956214L225.77893390655518,38.38657782591392L230.3866672515869,36.43334874699275L234.99440059661865,37.513863932526306L239.6021339416504,37.74041863302688L244.2098672866821,39.17199858921458L248.81760063171387,38.42202329760869" fill="none"></path></g><g><path style="fill: none;" stroke="rgb(204, 51, 17)" stroke-width="2px" d="M23.03866672515869,135.09230646807413L27.64640007019043,120.37782385788867L32.25413341522217,72.16352761761524L36.8618667602539,95.12564689496752L41.46960010528564,71.9197011004892L46.07733345031738,44.38881190170795L50.685066795349115,61.9248430348207L55.29280014038086,43.46688339609898L59.9005334854126,79.25539188892884L64.50826683044434,40.726268834410234L69.11600017547607,41.747778018903546L73.7237335205078,40.746254218496176L78.33146686553955,38.50975124265963L82.93920021057129,39.6324515318299L87.54693355560302,39.556310600356596L92.15466690063477,41.19173825336944L96.7624002456665,40.504706453866646L101.37013359069823,45.53371191042899L105.97786693572999,35.86714719470746L110.58560028076172,37.37134930201168L115.19333362579346,38.75590482505595L119.8010669708252,40.593714687422704L124.40880031585694,36.54412188513558L129.01653366088868,45.94404840237914L133.62426700592042,35.606258216309016L138.23200035095215,35.10475552024073L142.8397336959839,36.210087367238L147.4474670410156,36.18063267949165L152.05520038604737,35.28750663918305L156.6629337310791,37.387719280193295L161.27066707611084,38.003103236184074L165.87840042114257,35.22537641210522L170.48613376617433,34.83913994214106L175.09386711120604,33.886057749574576L179.7016004562378,33.60083523745021L184.30933380126953,32.91294186014841L188.91706714630126,33.83085235340485L193.524800491333,33.17847691695843L198.13253383636476,36.45693343272512L202.74026718139646,32.907434203937754L207.34800052642822,32.962075951080095L211.95573387145998,34.694708904933236L216.5634672164917,36.571313924643334L221.17120056152345,33.9782063134262L225.77893390655518,31.979168672834987L230.3866672515869,33.24324019020716L234.99440059661865,33.437393123760984L239.6021339416504,55.89164852316429L244.2098672866821,32.060543488134215L248.81760063171387,30.96133125914878" fill="none"></path></g><g><path style="fill: none;" stroke="rgb(238, 51, 119)" stroke-width="2px" d="M23.03866672515869,42.7049184844673L27.64640007019043,39.31620416681142L32.25413341522217,36.00449235842791L36.8618667602539,36.1040649851833L41.46960010528564,37.98849667424531L46.07733345031738,38.73459889182007L50.685066795349115,36.096890538277336L55.29280014038086,35.928431948244196L59.9005334854126,34.459618947732L64.50826683044434,35.695838151021434L69.11600017547607,34.704580815041794L73.7237335205078,34.24159950393209L78.33146686553955,33.882571177733666L82.93920021057129,34.344940527042155L87.54693355560302,35.64844331994573L92.15466690063477,34.92115087562834L96.7624002456665,35.06840821010212L101.37013359069823,34.05355008413218L105.97786693572999,32.968992729859224L110.58560028076172,34.529905981449275L115.19333362579346,34.86399686424957L119.8010669708252,32.95689038002797L124.40880031585694,34.07294766280384L129.01653366088868,34.14503837340882L133.62426700592042,32.74371831786377L138.23200035095215,35.66956405421544L142.8397336959839,33.84648958785081L147.4474670410156,34.194438184596294L152.05520038604737,32.996579323686205L156.6629337310791,32.551328800552824L161.27066707611084,34.67389415156413L165.87840042114257,33.6253539701423L170.48613376617433,33.16799304504872L175.09386711120604,34.09888357019338L179.7016004562378,33.65638687516537L184.30933380126953,33.83113417791856L188.91706714630126,33.31979178025759L193.524800491333,32.79909280874173L198.13253383636476,32.604827145382444L202.74026718139646,32.406632043089274L207.34800052642822,32.99736843232455L211.95573387145998,33.57859525725465L216.5634672164917,33.554664329976845L221.17120056152345,32.92969834052022L225.77893390655518,33.47055179083026L230.3866672515869,32.370486036174725L234.99440059661865,34.71819696511807L239.6021339416504,32.92621982080823L244.2098672866821,33.57991580640456L248.81760063171387,32.569695706717255" fill="none"></path></g><g><path style="fill: none;" stroke="rgb(0, 119, 187)" stroke-width="2px" d="M23.03866672515869,44.66047462865879L27.64640007019043,58.66785349486915L32.25413341522217,47.50624999460322L36.8618667602539,43.30098538307607L41.46960010528564,51.042680618083764L46.07733345031738,55.883886270844044L50.685066795349115,46.53007429617111L55.29280014038086,43.224047290835415L59.9005334854126,47.316606253268645L64.50826683044434,50.09381774109387L69.11600017547607,49.15716994374071L73.7237335205078,51.54131675624126L78.33146686553955,45.63212503061371L82.93920021057129,54.34852242445332L87.54693355560302,42.14167206351141L92.15466690063477,39.728255762230674L96.7624002456665,41.11684540188537L101.37013359069823,45.62948393231389L105.97786693572999,45.24189470468397L110.58560028076172,49.010081703975146L115.19333362579346,43.577149250117145L119.8010669708252,60.203322018936376L124.40880031585694,45.00674033045101L129.01653366088868,51.58155324466894L133.62426700592042,40.16044573218616L138.23200035095215,55.60335009777609L142.8397336959839,49.57208809707076L147.4474670410156,41.57908591713047L152.05520038604737,56.227575291368126L156.6629337310791,43.36591775103301L161.27066707611084,43.98652753872071L165.87840042114257,44.60491493881466L170.48613376617433,44.232254358282006L175.09386711120604,42.592752328013916L179.7016004562378,46.63375350869762" fill="none"></path></g><g><path style="fill: none;" stroke="rgb(255, 112, 67)" stroke-width="2px" d="M23.03866672515869,36.83572168339856L27.64640007019043,36.07692931057829L32.25413341522217,36.307510075560316L36.8618667602539,35.41919115624256L41.46960010528564,35.63029382126331L46.07733345031738,36.31354112015353L50.685066795349115,35.07889208201186L55.29280014038086,34.696826614850494L59.9005334854126,34.9666937170426L64.50826683044434,34.22886908804173L69.11600017547607,34.87588985872779L73.7237335205078,33.664769141415746L78.33146686553955,33.93472481702645L82.93920021057129,35.09722677966042L87.54693355560302,34.51338301281737L92.15466690063477,33.885751768674L96.7624002456665,34.79329111982622L101.37013359069823,36.39851523709919L105.97786693572999,34.25741388521527L110.58560028076172,34.11213737446636L115.19333362579346,34.130641166823125L119.8010669708252,35.19101797782045L124.40880031585694,35.06658842895652L129.01653366088868,33.24888473261015L133.62426700592042,33.17877484573006L138.23200035095215,33.84164220621517L142.8397336959839,34.83842330266336L147.4474670410156,34.424173476037254L152.05520038604737,33.888094938202215L156.6629337310791,33.655146847305076L161.27066707611084,33.80853185191964L165.87840042114257,34.343547508731575L170.48613376617433,33.351525220500434L175.09386711120604,34.62846403995536L179.7016004562378,35.61981800148257L184.30933380126953,34.02860458860508L188.91706714630126,33.99680673133051L193.524800491333,37.205266090022604L198.13253383636476,33.379490264388664L202.74026718139646,34.563418942192925L207.34800052642822,32.82783890913936L211.95573387145998,36.05546233476315L216.5634672164917,33.85380092094917L221.17120056152345,32.84718817503722L225.77893390655518,33.98017103289314L230.3866672515869,33.71022340941141L234.99440059661865,32.993052491200416L239.6021339416504,33.392317305826566L244.2098672866821,33.36861183815975L248.81760063171387,33.43390655192002" fill="none"></path></g></g></g></g></g></g><g transform="translate(53, 175)" clip-path="url(#clip_1)"><clipPath id="clip_1"><rect width="276" height="24"></rect></clipPath><g><g><line x1="0" y1="0" x2="0" y2="5" style="visibility: inherit;" fill="rgb(0, 0, 0)" stroke="rgb(204, 204, 204)" stroke-width="1px"></line><line x1="23.03866672515869" y1="0" x2="23.03866672515869" y2="5" style="visibility: inherit;" fill="rgb(0, 0, 0)" stroke="rgb(204, 204, 204)" stroke-width="1px"></line><line x1="46.07733345031738" y1="0" x2="46.07733345031738" y2="5" style="visibility: inherit;" fill="rgb(0, 0, 0)" stroke="rgb(204, 204, 204)" stroke-width="1px"></line><line x1="69.11600017547607" y1="0" x2="69.11600017547607" y2="5" style="visibility: inherit;" fill="rgb(0, 0, 0)" stroke="rgb(204, 204, 204)" stroke-width="1px"></line><line x1="92.15466690063477" y1="0" x2="92.15466690063477" y2="5" style="visibility: inherit;" fill="rgb(0, 0, 0)" stroke="rgb(204, 204, 204)" stroke-width="1px"></line><line x1="115.19333362579346" y1="0" x2="115.19333362579346" y2="5" style="visibility: inherit;" fill="rgb(0, 0, 0)" stroke="rgb(204, 204, 204)" stroke-width="1px"></line><line x1="138.23200035095215" y1="0" x2="138.23200035095215" y2="5" style="visibility: inherit;" fill="rgb(0, 0, 0)" stroke="rgb(204, 204, 204)" stroke-width="1px"></line><line x1="161.27066707611084" y1="0" x2="161.27066707611084" y2="5" style="visibility: inherit;" fill="rgb(0, 0, 0)" stroke="rgb(204, 204, 204)" stroke-width="1px"></line><line x1="184.30933380126953" y1="0" x2="184.30933380126953" y2="5" style="visibility: inherit;" fill="rgb(0, 0, 0)" stroke="rgb(204, 204, 204)" stroke-width="1px"></line><line x1="207.34800052642822" y1="0" x2="207.34800052642822" y2="5" style="visibility: inherit;" fill="rgb(0, 0, 0)" stroke="rgb(204, 204, 204)" stroke-width="1px"></line><line x1="230.3866672515869" y1="0" x2="230.3866672515869" y2="5" style="visibility: inherit;" fill="rgb(0, 0, 0)" stroke="rgb(204, 204, 204)" stroke-width="1px"></line><line x1="253.4253339767456" y1="0" x2="253.4253339767456" y2="5" style="visibility: inherit;" fill="rgb(0, 0, 0)" stroke="rgb(204, 204, 204)" stroke-width="1px"></line><line x1="276.4640007019043" y1="0" x2="276.4640007019043" y2="5" style="visibility: inherit;" fill="rgb(0, 0, 0)" stroke="rgb(204, 204, 204)" stroke-width="1px"></line></g><g transform="translate(0, 8)"><text style="text-anchor: middle; visibility: hidden; font-family: &quot;Helvetica Neue&quot;, sans-serif; font-size: 12px; font-weight: 200;" x="0" y="0" dx="0em" dy="0.95em" fill="rgb(50, 49, 63)" stroke="none" stroke-width="1px">-5</text><text style="text-anchor: middle; visibility: inherit; font-family: &quot;Helvetica Neue&quot;, sans-serif; font-size: 12px; font-weight: 200;" x="23.03866672515869" y="0" dx="0em" dy="0.95em" fill="rgb(50, 49, 63)" stroke="none" stroke-width="1px">0</text><text style="text-anchor: middle; visibility: inherit; font-family: &quot;Helvetica Neue&quot;, sans-serif; font-size: 12px; font-weight: 200;" x="46.07733345031738" y="0" dx="0em" dy="0.95em" fill="rgb(50, 49, 63)" stroke="none" stroke-width="1px">5</text><text style="text-anchor: middle; visibility: inherit; font-family: &quot;Helvetica Neue&quot;, sans-serif; font-size: 12px; font-weight: 200;" x="69.11600017547607" y="0" dx="0em" dy="0.95em" fill="rgb(50, 49, 63)" stroke="none" stroke-width="1px">10</text><text style="text-anchor: middle; visibility: inherit; font-family: &quot;Helvetica Neue&quot;, sans-serif; font-size: 12px; font-weight: 200;" x="92.15466690063477" y="0" dx="0em" dy="0.95em" fill="rgb(50, 49, 63)" stroke="none" stroke-width="1px">15</text><text style="text-anchor: middle; visibility: inherit; font-family: &quot;Helvetica Neue&quot;, sans-serif; font-size: 12px; font-weight: 200;" x="115.19333362579346" y="0" dx="0em" dy="0.95em" fill="rgb(50, 49, 63)" stroke="none" stroke-width="1px">20</text><text style="text-anchor: middle; visibility: inherit; font-family: &quot;Helvetica Neue&quot;, sans-serif; font-size: 12px; font-weight: 200;" x="138.23200035095215" y="0" dx="0em" dy="0.95em" fill="rgb(50, 49, 63)" stroke="none" stroke-width="1px">25</text><text style="text-anchor: middle; visibility: inherit; font-family: &quot;Helvetica Neue&quot;, sans-serif; font-size: 12px; font-weight: 200;" x="161.27066707611084" y="0" dx="0em" dy="0.95em" fill="rgb(50, 49, 63)" stroke="none" stroke-width="1px">30</text><text style="text-anchor: middle; visibility: inherit; font-family: &quot;Helvetica Neue&quot;, sans-serif; font-size: 12px; font-weight: 200;" x="184.30933380126953" y="0" dx="0em" dy="0.95em" fill="rgb(50, 49, 63)" stroke="none" stroke-width="1px">35</text><text style="text-anchor: middle; visibility: inherit; font-family: &quot;Helvetica Neue&quot;, sans-serif; font-size: 12px; font-weight: 200;" x="207.34800052642822" y="0" dx="0em" dy="0.95em" fill="rgb(50, 49, 63)" stroke="none" stroke-width="1px">40</text><text style="text-anchor: middle; visibility: inherit; font-family: &quot;Helvetica Neue&quot;, sans-serif; font-size: 12px; font-weight: 200;" x="230.3866672515869" y="0" dx="0em" dy="0.95em" fill="rgb(50, 49, 63)" stroke="none" stroke-width="1px">45</text><text style="text-anchor: middle; visibility: inherit; font-family: &quot;Helvetica Neue&quot;, sans-serif; font-size: 12px; font-weight: 200;" x="253.4253339767456" y="0" dx="0em" dy="0.95em" fill="rgb(50, 49, 63)" stroke="none" stroke-width="1px">50</text><text style="text-anchor: middle; visibility: hidden; font-family: &quot;Helvetica Neue&quot;, sans-serif; font-size: 12px; font-weight: 200;" x="276.4640007019043" y="0" dx="0em" dy="0.95em" fill="rgb(50, 49, 63)" stroke="none" stroke-width="1px">55</text></g><line x1="0" y1="0" x2="276.4640007019043" y2="0" fill="rgb(0, 0, 0)" stroke="rgb(204, 204, 204)" stroke-width="1px"></line></g></g></g></g></svg>