<svg viewBox="0 0 330 200" xmlns="http://www.w3.org/2000/svg"><g><g><g><g><g><line x1="64.41999912261963" y1="175.61999893188477" x2="59.41999912261963" y2="175.61999893188477" style="visibility: inherit;" fill="rgb(0, 0, 0)" stroke="rgb(204, 204, 204)" stroke-width="1px"></line><line x1="64.41999912261963" y1="162.1107682448167" x2="59.41999912261963" y2="162.1107682448167" style="visibility: inherit;" fill="rgb(0, 0, 0)" stroke="rgb(204, 204, 204)" stroke-width="1px"></line><line x1="64.41999912261963" y1="148.60153755774866" x2="59.41999912261963" y2="148.60153755774866" style="visibility: inherit;" fill="rgb(0, 0, 0)" stroke="rgb(204, 204, 204)" stroke-width="1px"></line><line x1="64.41999912261963" y1="135.0923068706806" x2="59.41999912261963" y2="135.0923068706806" style="visibility: inherit;" fill="rgb(0, 0, 0)" stroke="rgb(204, 204, 204)" stroke-width="1px"></line><line x1="64.41999912261963" y1="121.58307618361252" x2="59.41999912261963" y2="121.58307618361252" style="visibility: inherit;" fill="rgb(0, 0, 0)" stroke="rgb(204, 204, 204)" stroke-width="1px"></line><line x1="64.41999912261963" y1="108.07384549654446" x2="59.41999912261963" y2="108.07384549654446" style="visibility: inherit;" fill="rgb(0, 0, 0)" stroke="rgb(204, 204, 204)" stroke-width="1px"></line><line x1="64.41999912261963" y1="94.56461480947641" x2="59.41999912261963" y2="94.56461480947641" style="visibility: inherit;" fill="rgb(0, 0, 0)" stroke="rgb(204, 204, 204)" stroke-width="1px"></line><line x1="64.41999912261963" y1="81.05538412240836" x2="59.41999912261963" y2="81.05538412240836" style="visibility: inherit;" fill="rgb(0, 0, 0)" stroke="rgb(204, 204, 204)" stroke-width="1px"></line><line x1="64.41999912261963" y1="67.54615343534029" x2="59.41999912261963" y2="67.54615343534029" style="visibility: inherit;" fill="rgb(0, 0, 0)" stroke="rgb(204, 204, 204)" stroke-width="1px"></line><line x1="64.41999912261963" y1="54.03692274827223" x2="59.41999912261963" y2="54.03692274827223" style="visibility: inherit;" fill="rgb(0, 0, 0)" stroke="rgb(204, 204, 204)" stroke-width="1px"></line><line x1="64.41999912261963" y1="40.527692061204164" x2="59.41999912261963" y2="40.527692061204164" style="visibility: inherit;" fill="rgb(0, 0, 0)" stroke="rgb(204, 204, 204)" stroke-width="1px"></line><line x1="64.41999912261963" y1="27.01846137413611" x2="59.41999912261963" y2="27.01846137413611" style="visibility: inherit;" fill="rgb(0, 0, 0)" stroke="rgb(204, 204, 204)" stroke-width="1px"></line><line x1="64.41999912261963" y1="13.509230687068055" x2="59.41999912261963" y2="13.509230687068055" style="visibility: inherit;" fill="rgb(0, 0, 0)" stroke="rgb(204, 204, 204)" stroke-width="1px"></line><line x1="64.41999912261963" y1="0" x2="59.41999912261963" y2="0" style="visibility: inherit;" fill="rgb(0, 0, 0)" stroke="rgb(204, 204, 204)" stroke-width="1px"></line></g><g transform="translate(54.41999912261963, 0)"><text style="text-anchor: end; visibility: hidden; font-family: &quot;Helvetica Neue&quot;, sans-serif; font-size: 12px; font-weight: 200;" x="0" y="175.61999893188477" dx="0em" dy="0.3em" fill="rgb(50, 49, 63)" stroke="none" stroke-width="1px">0.978</text><text style="text-anchor: end; visibility: inherit; font-family: &quot;Helvetica Neue&quot;, sans-serif; font-size: 12px; font-weight: 200;" x="0" y="162.1107682448167" dx="0em" dy="0.3em" fill="rgb(50, 49, 63)" stroke="none" stroke-width="1px">0.98</text><text style="text-anchor: end; visibility: hidden; font-family: &quot;Helvetica Neue&quot;, sans-serif; font-size: 12px; font-weight: 200;" x="0" y="148.60153755774866" dx="0em" dy="0.3em" fill="rgb(50, 49, 63)" stroke="none" stroke-width="1px">0.982</text><text style="text-anchor: end; visibility: hidden; font-family: &quot;Helvetica Neue&quot;, sans-serif; font-size: 12px; font-weight: 200;" x="0" y="135.0923068706806" dx="0em" dy="0.3em" fill="rgb(50, 49, 63)" stroke="none" stroke-width="1px">0.984</text><text style="text-anchor: end; visibility: inherit; font-family: &quot;Helvetica Neue&quot;, sans-serif; font-size: 12px; font-weight: 200;" x="0" y="121.58307618361252" dx="0em" dy="0.3em" fill="rgb(50, 49, 63)" stroke="none" stroke-width="1px">0.986</text><text style="text-anchor: end; visibility: hidden; font-family: &quot;Helvetica Neue&quot;, sans-serif; font-size: 12px; font-weight: 200;" x="0" y="108.07384549654446" dx="0em" dy="0.3em" fill="rgb(50, 49, 63)" stroke="none" stroke-width="1px">0.988</text><text style="text-anchor: end; visibility: hidden; font-family: &quot;Helvetica Neue&quot;, sans-serif; font-size: 12px; font-weight: 200;" x="0" y="94.56461480947641" dx="0em" dy="0.3em" fill="rgb(50, 49, 63)" stroke="none" stroke-width="1px">0.99</text><text style="text-anchor: end; visibility: inherit; font-family: &quot;Helvetica Neue&quot;, sans-serif; font-size: 12px; font-weight: 200;" x="0" y="81.05538412240836" dx="0em" dy="0.3em" fill="rgb(50, 49, 63)" stroke="none" stroke-width="1px">0.992</text><text style="text-anchor: end; visibility: hidden; font-family: &quot;Helvetica Neue&quot;, sans-serif; font-size: 12px; font-weight: 200;" x="0" y="67.54615343534029" dx="0em" dy="0.3em" fill="rgb(50, 49, 63)" stroke="none" stroke-width="1px">0.994</text><text style="text-anchor: end; visibility: hidden; font-family: &quot;Helvetica Neue&quot;, sans-serif; font-size: 12px; font-weight: 200;" x="0" y="54.03692274827223" dx="0em" dy="0.3em" fill="rgb(50, 49, 63)" stroke="none" stroke-width="1px">0.996</text><text style="text-anchor: end; visibility: inherit; font-family: &quot;Helvetica Neue&quot;, sans-serif; font-size: 12px; font-weight: 200;" x="0" y="40.527692061204164" dx="0em" dy="0.3em" fill="rgb(50, 49, 63)" stroke="none" stroke-width="1px">0.998</text><text style="text-anchor: end; visibility: hidden; font-family: &quot;Helvetica Neue&quot;, sans-serif; font-size: 12px; font-weight: 200;" x="0" y="27.01846137413611" dx="0em" dy="0.3em" fill="rgb(50, 49, 63)" stroke="none" stroke-width="1px">1</text><text style="text-anchor: end; visibility: hidden; font-family: &quot;Helvetica Neue&quot;, sans-serif; font-size: 12px; font-weight: 200;" x="0" y="13.509230687068055" dx="0em" dy="0.3em" fill="rgb(50, 49, 63)" stroke="none" stroke-width="1px">1</text><text style="text-anchor: end; visibility: hidden; font-family: &quot;Helvetica Neue&quot;, sans-serif; font-size: 12px; font-weight: 200;" x="0" y="0" dx="0em" dy="0.3em" fill="rgb(50, 49, 63)" stroke="none" stroke-width="1px">1</text></g><line x1="64.41999912261963" y1="0" x2="64.41999912261963" y2="175.61999893188477" fill="rgb(0, 0, 0)" stroke="rgb(204, 204, 204)" stroke-width="1px"></line></g></g><g transform="translate(64, 0)" clip-path="url(#clip_0)"><clipPath id="clip_0"><rect width="265" height="175"></rect></clipPath><g><g><g><line x1="0" y1="0" x2="0" y2="175.61999893188477" fill="rgb(0, 0, 0)" stroke="rgb(60, 60, 60)" stroke-width="1px" opacity="0.25"></line><line x1="22.131666739781696" y1="0" x2="22.131666739781696" y2="175.61999893188477" fill="rgb(0, 0, 0)" stroke="rgb(60, 60, 60)" stroke-width="1px" opacity="0.25"></line><line x1="44.26333347956339" y1="0" x2="44.26333347956339" y2="175.61999893188477" fill="rgb(0, 0, 0)" stroke="rgb(60, 60, 60)" stroke-width="1px" opacity="0.25"></line><line x1="66.39500021934509" y1="0" x2="66.39500021934509" y2="175.61999893188477" fill="rgb(0, 0, 0)" stroke="rgb(60, 60, 60)" stroke-width="1px" opacity="0.25"></line><line x1="88.52666695912679" y1="0" x2="88.52666695912679" y2="175.61999893188477" fill="rgb(0, 0, 0)" stroke="rgb(60, 60, 60)" stroke-width="1px" opacity="0.25"></line><line x1="110.65833369890849" y1="0" x2="110.65833369890849" y2="175.61999893188477" fill="rgb(0, 0, 0)" stroke="rgb(60, 60, 60)" stroke-width="1px" opacity="0.25"></line><line x1="132.79000043869019" y1="0" x2="132.79000043869019" y2="175.61999893188477" fill="rgb(0, 0, 0)" stroke="rgb(60, 60, 60)" stroke-width="1px" opacity="0.25"></line><line x1="154.9216671784719" y1="0" x2="154.9216671784719" y2="175.61999893188477" fill="rgb(0, 0, 0)" stroke="rgb(60, 60, 60)" stroke-width="1px" opacity="0.25"></line><line x1="177.05333391825357" y1="0" x2="177.05333391825357" y2="175.61999893188477" fill="rgb(0, 0, 0)" stroke="rgb(60, 60, 60)" stroke-width="1px" opacity="0.25"></line><line x1="199.18500065803528" y1="0" x2="199.18500065803528" y2="175.61999893188477" fill="rgb(0, 0, 0)" stroke="rgb(60, 60, 60)" stroke-width="1px" opacity="0.25"></line><line x1="221.31666739781699" y1="0" x2="221.31666739781699" y2="175.61999893188477" fill="rgb(0, 0, 0)" stroke="rgb(60, 60, 60)" stroke-width="1px" opacity="0.25"></line><line x1="243.44833413759866" y1="0" x2="243.44833413759866" y2="175.61999893188477" fill="rgb(0, 0, 0)" stroke="rgb(60, 60, 60)" stroke-width="1px" opacity="0.25"></line><line x1="265.58000087738037" y1="0" x2="265.58000087738037" y2="175.61999893188477" fill="rgb(0, 0, 0)" stroke="rgb(60, 60, 60)" stroke-width="1px" opacity="0.25"></line></g><g><line x1="0" y1="175.61999893188477" x2="265.58000087738037" y2="175.61999893188477" fill="rgb(0, 0, 0)" stroke="rgb(60, 60, 60)" stroke-width="1px" opacity="0.25"></line><line x1="0" y1="162.1107682448167" x2="265.58000087738037" y2="162.1107682448167" fill="rgb(0, 0, 0)" stroke="rgb(60, 60, 60)" stroke-width="1px" opacity="0.25"></line><line x1="0" y1="148.60153755774866" x2="265.58000087738037" y2="148.60153755774866" fill="rgb(0, 0, 0)" stroke="rgb(60, 60, 60)" stroke-width="1px" opacity="0.25"></line><line x1="0" y1="135.0923068706806" x2="265.58000087738037" y2="135.0923068706806" fill="rgb(0, 0, 0)" stroke="rgb(60, 60, 60)" stroke-width="1px" opacity="0.25"></line><line x1="0" y1="121.58307618361252" x2="265.58000087738037" y2="121.58307618361252" fill="rgb(0, 0, 0)" stroke="rgb(60, 60, 60)" stroke-width="1px" opacity="0.25"></line><line x1="0" y1="108.07384549654446" x2="265.58000087738037" y2="108.07384549654446" fill="rgb(0, 0, 0)" stroke="rgb(60, 60, 60)" stroke-width="1px" opacity="0.25"></line><line x1="0" y1="94.56461480947641" x2="265.58000087738037" y2="94.56461480947641" fill="rgb(0, 0, 0)" stroke="rgb(60, 60, 60)" stroke-width="1px" opacity="0.25"></line><line x1="0" y1="81.05538412240836" x2="265.58000087738037" y2="81.05538412240836" fill="rgb(0, 0, 0)" stroke="rgb(60, 60, 60)" stroke-width="1px" opacity="0.25"></line><line x1="0" y1="67.54615343534029" x2="265.58000087738037" y2="67.54615343534029" fill="rgb(0, 0, 0)" stroke="rgb(60, 60, 60)" stroke-width="1px" opacity="0.25"></line><line x1="0" y1="54.03692274827223" x2="265.58000087738037" y2="54.03692274827223" fill="rgb(0, 0, 0)" stroke="rgb(60, 60, 60)" stroke-width="1px" opacity="0.25"></line><line x1="0" y1="40.527692061204164" x2="265.58000087738037" y2="40.527692061204164" fill="rgb(0, 0, 0)" stroke="rgb(60, 60, 60)" stroke-width="1px" opacity="0.25"></line><line x1="0" y1="27.01846137413611" x2="265.58000087738037" y2="27.01846137413611" fill="rgb(0, 0, 0)" stroke="rgb(60, 60, 60)" stroke-width="1px" opacity="0.25"></line><line x1="0" y1="13.509230687068055" x2="265.58000087738037" y2="13.509230687068055" fill="rgb(0, 0, 0)" stroke="rgb(60, 60, 60)" stroke-width="1px" opacity="0.25"></line><line x1="0" y1="0" x2="265.58000087738037" y2="0" fill="rgb(0, 0, 0)" stroke="rgb(60, 60, 60)" stroke-width="1px" opacity="0.25"></line></g></g></g><g><g><line x1="0" y1="6781.6338049081605" x2="265.58000087738037" y2="6781.6338049081605" fill="rgb(0, 0, 0)" stroke="rgb(153, 153, 153)" stroke-width="1.5px"></line></g></g><g><g><line x1="22.131666739781696" y1="0" x2="22.131666739781696" y2="175.61999893188477" fill="rgb(0, 0, 0)" stroke="rgb(153, 153, 153)" stroke-width="1.5px"></line></g></g><g><g><g><g><g><path style="fill: none;" stroke="rgb(51, 187, 238)" stroke-width="2px" d="M22.131666739781696,145.22411715617605L26.558000087738037,84.43255651840873L30.984333435694378,77.67802813786751L35.41066678365072,64.16897137678507L39.837000131607056,57.4140403897957L44.26333347956339,43.90498362871324L48.68966682751973,57.4140403897957L53.116000175476074,50.65951200925447L57.54233352343242,40.52751813521857L61.968666871388756,33.772989754677354L66.39500021934509,57.4140403897957L70.82133356730144,40.52751813521857L75.24766691525777,50.65951200925447L79.67400026321411,37.15045524817202L84.10033361117044,37.15045524817202L88.52666695912679,54.03697750274915L92.95300030708313,40.52751813521857L97.37933365503946,33.772989754677354L101.80566700299582,37.15045524817202L106.23200035095215,43.90498362871324L110.65833369890849,33.772989754677354L115.08466704686484,43.90498362871324L119.51100039482117,37.15045524817202L123.93733374277751,40.52751813521857L128.36366709073386,33.772989754677354L132.79000043869019,40.52751813521857L137.21633378664654,37.15045524817202L141.64266713460287,37.15045524817202L146.0690004825592,33.772989754677354L150.49533383051553,37.15045524817202L154.9216671784719,33.772989754677354L159.34800052642822,43.90498362871324L163.77433387438458,27.01846137413611L168.20066722234088,33.772989754677354L172.62700057029724,40.52751813521857L177.05333391825357,33.772989754677354L181.47966726620993,30.395926867630806L185.90600061416626,43.90498362871324L190.3323339621226,33.772989754677354L194.75866731007892,30.395926867630806L199.18500065803528,30.395926867630806L203.61133400599164,37.15045524817202L208.03766735394797,60.791505883290384L212.4640007019043,30.395926867630806L216.89033404986063,30.395926867630806L221.31666739781699,30.395926867630806L225.74300074577332,37.15045524817202L230.16933409372967,30.395926867630806L234.59566744168598,40.52751813521857L239.02200078964233,30.395926867630806" fill="none"></path></g><g><path style="fill: none;" stroke="rgb(204, 51, 17)" stroke-width="2px" d="M22.131666739781696,27.01846137413611L26.558000087738037,27.01846137413611L30.984333435694378,27.01846137413611L35.41066678365072,27.01846137413611L39.837000131607056,27.01846137413611L44.26333347956339,27.01846137413611L48.68966682751973,27.01846137413611L53.116000175476074,27.01846137413611L57.54233352343242,27.01846137413611L61.968666871388756,27.01846137413611L66.39500021934509,27.01846137413611L70.82133356730144,27.01846137413611L75.24766691525777,27.01846137413611L79.67400026321411,27.01846137413611L84.10033361117044,27.01846137413611L88.52666695912679,27.01846137413611L92.95300030708313,27.01846137413611L97.37933365503946,27.01846137413611L101.80566700299582,27.01846137413611L106.23200035095215,27.01846137413611L110.65833369890849,27.01846137413611L115.08466704686484,27.01846137413611L119.51100039482117,27.01846137413611L123.93733374277751,27.01846137413611L128.36366709073386,27.01846137413611L132.79000043869019,27.01846137413611L137.21633378664654,27.01846137413611L141.64266713460287,27.01846137413611L146.0690004825592,27.01846137413611L150.49533383051553,27.01846137413611L154.9216671784719,27.01846137413611L159.34800052642822,27.01846137413611L163.77433387438458,27.01846137413611L168.20066722234088,27.01846137413611L172.62700057029724,27.01846137413611L177.05333391825357,27.01846137413611L181.47966726620993,27.01846137413611L185.90600061416626,27.01846137413611L190.3323339621226,27.01846137413611L194.75866731007892,27.01846137413611L199.18500065803528,27.01846137413611L203.61133400599164,27.01846137413611L208.03766735394797,27.01846137413611L212.4640007019043,27.01846137413611L216.89033404986063,27.01846137413611L221.31666739781699,27.01846137413611L225.74300074577332,27.01846137413611L230.16933409372967,27.01846137413611L234.59566744168598,27.01846137413611L239.02200078964233,27.01846137413611" fill="none"></path></g><g><path style="fill: none;" stroke="rgb(238, 51, 119)" stroke-width="2px" d="M22.131666739781696,27.01846137413611L26.558000087738037,27.01846137413611L30.984333435694378,27.01846137413611L35.41066678365072,27.01846137413611L39.837000131607056,27.01846137413611L44.26333347956339,27.01846137413611L48.68966682751973,27.01846137413611L53.116000175476074,27.01846137413611L57.54233352343242,27.01846137413611L61.968666871388756,27.01846137413611L66.39500021934509,27.01846137413611L70.82133356730144,27.01846137413611L75.24766691525777,27.01846137413611L79.67400026321411,27.01846137413611L84.10033361117044,27.01846137413611L88.52666695912679,27.01846137413611L92.95300030708313,27.01846137413611L97.37933365503946,27.01846137413611L101.80566700299582,27.01846137413611L106.23200035095215,27.01846137413611L110.65833369890849,27.01846137413611L115.08466704686484,27.01846137413611L119.51100039482117,27.01846137413611L123.93733374277751,27.01846137413611L128.36366709073386,27.01846137413611L132.79000043869019,27.01846137413611L137.21633378664654,27.01846137413611L141.64266713460287,27.01846137413611L146.0690004825592,27.01846137413611L150.49533383051553,27.01846137413611L154.9216671784719,27.01846137413611L159.34800052642822,27.01846137413611L163.77433387438458,27.01846137413611L168.20066722234088,27.01846137413611L172.62700057029724,27.01846137413611L177.05333391825357,27.01846137413611L181.47966726620993,27.01846137413611L185.90600061416626,27.01846137413611L190.3323339621226,27.01846137413611L194.75866731007892,27.01846137413611L199.18500065803528,27.01846137413611L203.61133400599164,27.01846137413611L208.03766735394797,27.01846137413611L212.4640007019043,27.01846137413611L216.89033404986063,27.01846137413611L221.31666739781699,27.01846137413611L225.74300074577332,27.01846137413611L230.16933409372967,27.01846137413611L234.59566744168598,27.01846137413611L239.02200078964233,27.01846137413611" fill="none"></path></g><g><path style="fill: none;" stroke="rgb(0, 119, 187)" stroke-width="2px" d="M22.131666739781696,27.01846137413611L26.558000087738037,27.01846137413611L30.984333435694378,27.01846137413611L35.41066678365072,27.01846137413611L39.837000131607056,27.01846137413611L44.26333347956339,27.01846137413611L48.68966682751973,27.01846137413611L53.116000175476074,27.01846137413611L57.54233352343242,27.01846137413611L61.968666871388756,27.01846137413611L66.39500021934509,27.01846137413611L70.82133356730144,27.01846137413611L75.24766691525777,27.01846137413611L79.67400026321411,27.01846137413611L84.10033361117044,27.01846137413611L88.52666695912679,27.01846137413611L92.95300030708313,27.01846137413611L97.37933365503946,27.01846137413611L101.80566700299582,27.01846137413611L106.23200035095215,27.01846137413611L110.65833369890849,27.01846137413611L115.08466704686484,27.01846137413611L119.51100039482117,27.01846137413611L123.93733374277751,27.01846137413611L128.36366709073386,27.01846137413611L132.79000043869019,27.01846137413611L137.21633378664654,27.01846137413611L141.64266713460287,27.01846137413611L146.0690004825592,27.01846137413611L150.49533383051553,27.01846137413611L154.9216671784719,27.01846137413611L159.34800052642822,27.01846137413611L163.77433387438458,27.01846137413611L168.20066722234088,27.01846137413611L172.62700057029724,27.01846137413611" fill="none"></path></g><g><path style="fill: none;" stroke="rgb(255, 112, 67)" stroke-width="2px" d="M22.131666739781696,27.01846137413611L26.558000087738037,27.01846137413611L30.984333435694378,27.01846137413611L35.41066678365072,27.01846137413611L39.837000131607056,27.01846137413611L44.26333347956339,27.01846137413611L48.68966682751973,27.01846137413611L53.116000175476074,27.01846137413611L57.54233352343242,27.01846137413611L61.968666871388756,27.01846137413611L66.39500021934509,27.01846137413611L70.82133356730144,27.01846137413611L75.24766691525777,27.01846137413611L79.67400026321411,27.01846137413611L84.10033361117044,27.01846137413611L88.52666695912679,27.01846137413611L92.95300030708313,27.01846137413611L97.37933365503946,27.01846137413611L101.80566700299582,27.01846137413611L106.23200035095215,27.01846137413611L110.65833369890849,27.01846137413611L115.08466704686484,27.01846137413611L119.51100039482117,27.01846137413611L123.93733374277751,27.01846137413611L128.36366709073386,27.01846137413611L132.79000043869019,27.01846137413611L137.21633378664654,27.01846137413611L141.64266713460287,27.01846137413611L146.0690004825592,27.01846137413611L150.49533383051553,27.01846137413611L154.9216671784719,27.01846137413611L159.34800052642822,27.01846137413611L163.77433387438458,27.01846137413611L168.20066722234088,27.01846137413611L172.62700057029724,27.01846137413611L177.05333391825357,27.01846137413611L181.47966726620993,27.01846137413611L185.90600061416626,27.01846137413611L190.3323339621226,27.01846137413611L194.75866731007892,27.01846137413611L199.18500065803528,27.01846137413611L203.61133400599164,27.01846137413611L208.03766735394797,27.01846137413611L212.4640007019043,27.01846137413611L216.89033404986063,27.01846137413611L221.31666739781699,27.01846137413611L225.74300074577332,27.01846137413611L230.16933409372967,27.01846137413611L234.59566744168598,27.01846137413611L239.02200078964233,27.01846137413611" fill="none"></path></g></g></g></g></g></g><g transform="translate(64, 175)" clip-path="url(#clip_1)"><clipPath id="clip_1"><rect width="265" height="24"></rect></clipPath><g><g><line x1="0" y1="0" x2="0" y2="5" style="visibility: inherit;" fill="rgb(0, 0, 0)" stroke="rgb(204, 204, 204)" stroke-width="1px"></line><line x1="22.131666739781696" y1="0" x2="22.131666739781696" y2="5" style="visibility: inherit;" fill="rgb(0, 0, 0)" stroke="rgb(204, 204, 204)" stroke-width="1px"></line><line x1="44.26333347956339" y1="0" x2="44.26333347956339" y2="5" style="visibility: inherit;" fill="rgb(0, 0, 0)" stroke="rgb(204, 204, 204)" stroke-width="1px"></line><line x1="66.39500021934509" y1="0" x2="66.39500021934509" y2="5" style="visibility: inherit;" fill="rgb(0, 0, 0)" stroke="rgb(204, 204, 204)" stroke-width="1px"></line><line x1="88.52666695912679" y1="0" x2="88.52666695912679" y2="5" style="visibility: inherit;" fill="rgb(0, 0, 0)" stroke="rgb(204, 204, 204)" stroke-width="1px"></line><line x1="110.65833369890849" y1="0" x2="110.65833369890849" y2="5" style="visibility: inherit;" fill="rgb(0, 0, 0)" stroke="rgb(204, 204, 204)" stroke-width="1px"></line><line x1="132.79000043869019" y1="0" x2="132.79000043869019" y2="5" style="visibility: inherit;" fill="rgb(0, 0, 0)" stroke="rgb(204, 204, 204)" stroke-width="1px"></line><line x1="154.9216671784719" y1="0" x2="154.9216671784719" y2="5" style="visibility: inherit;" fill="rgb(0, 0, 0)" stroke="rgb(204, 204, 204)" stroke-width="1px"></line><line x1="177.05333391825357" y1="0" x2="177.05333391825357" y2="5" style="visibility: inherit;" fill="rgb(0, 0, 0)" stroke="rgb(204, 204, 204)" stroke-width="1px"></line><line x1="199.18500065803528" y1="0" x2="199.18500065803528" y2="5" style="visibility: inherit;" fill="rgb(0, 0, 0)" stroke="rgb(204, 204, 204)" stroke-width="1px"></line><line x1="221.31666739781699" y1="0" x2="221.31666739781699" y2="5" style="visibility: inherit;" fill="rgb(0, 0, 0)" stroke="rgb(204, 204, 204)" stroke-width="1px"></line><line x1="243.44833413759866" y1="0" x2="243.44833413759866" y2="5" style="visibility: inherit;" fill="rgb(0, 0, 0)" stroke="rgb(204, 204, 204)" stroke-width="1px"></line><line x1="265.58000087738037" y1="0" x2="265.58000087738037" y2="5" style="visibility: inherit;" fill="rgb(0, 0, 0)" stroke="rgb(204, 204, 204)" stroke-width="1px"></line></g><g transform="translate(0, 8)"><text style="text-anchor: middle; visibility: hidden; font-family: &quot;Helvetica Neue&quot;, sans-serif; font-size: 12px; font-weight: 200;" x="0" y="0" dx="0em" dy="0.95em" fill="rgb(50, 49, 63)" stroke="none" stroke-width="1px">-5</text><text style="text-anchor: middle; visibility: inherit; font-family: &quot;Helvetica Neue&quot;, sans-serif; font-size: 12px; font-weight: 200;" x="22.131666739781696" y="0" dx="0em" dy="0.95em" fill="rgb(50, 49, 63)" stroke="none" stroke-width="1px">0</text><text style="text-anchor: middle; visibility: inherit; font-family: &quot;Helvetica Neue&quot;, sans-serif; font-size: 12px; font-weight: 200;" x="44.26333347956339" y="0" dx="0em" dy="0.95em" fill="rgb(50, 49, 63)" stroke="none" stroke-width="1px">5</text><text style="text-anchor: middle; visibility: inherit; font-family: &quot;Helvetica Neue&quot;, sans-serif; font-size: 12px; font-weight: 200;" x="66.39500021934509" y="0" dx="0em" dy="0.95em" fill="rgb(50, 49, 63)" stroke="none" stroke-width="1px">10</text><text style="text-anchor: middle; visibility: inherit; font-family: &quot;Helvetica Neue&quot;, sans-serif; font-size: 12px; font-weight: 200;" x="88.52666695912679" y="0" dx="0em" dy="0.95em" fill="rgb(50, 49, 63)" stroke="none" stroke-width="1px">15</text><text style="text-anchor: middle; visibility: inherit; font-family: &quot;Helvetica Neue&quot;, sans-serif; font-size: 12px; font-weight: 200;" x="110.65833369890849" y="0" dx="0em" dy="0.95em" fill="rgb(50, 49, 63)" stroke="none" stroke-width="1px">20</text><text style="text-anchor: middle; visibility: inherit; font-family: &quot;Helvetica Neue&quot;, sans-serif; font-size: 12px; font-weight: 200;" x="132.79000043869019" y="0" dx="0em" dy="0.95em" fill="rgb(50, 49, 63)" stroke="none" stroke-width="1px">25</text><text style="text-anchor: middle; visibility: inherit; font-family: &quot;Helvetica Neue&quot;, sans-serif; font-size: 12px; font-weight: 200;" x="154.9216671784719" y="0" dx="0em" dy="0.95em" fill="rgb(50, 49, 63)" stroke="none" stroke-width="1px">30</text><text style="text-anchor: middle; visibility: inherit; font-family: &quot;Helvetica Neue&quot;, sans-serif; font-size: 12px; font-weight: 200;" x="177.05333391825357" y="0" dx="0em" dy="0.95em" fill="rgb(50, 49, 63)" stroke="none" stroke-width="1px">35</text><text style="text-anchor: middle; visibility: inherit; font-family: &quot;Helvetica Neue&quot;, sans-serif; font-size: 12px; font-weight: 200;" x="199.18500065803528" y="0" dx="0em" dy="0.95em" fill="rgb(50, 49, 63)" stroke="none" stroke-width="1px">40</text><text style="text-anchor: middle; visibility: inherit; font-family: &quot;Helvetica Neue&quot;, sans-serif; font-size: 12px; font-weight: 200;" x="221.31666739781699" y="0" dx="0em" dy="0.95em" fill="rgb(50, 49, 63)" stroke="none" stroke-width="1px">45</text><text style="text-anchor: middle; visibility: inherit; font-family: &quot;Helvetica Neue&quot;, sans-serif; font-size: 12px; font-weight: 200;" x="243.44833413759866" y="0" dx="0em" dy="0.95em" fill="rgb(50, 49, 63)" stroke="none" stroke-width="1px">50</text><text style="text-anchor: middle; visibility: hidden; font-family: &quot;Helvetica Neue&quot;, sans-serif; font-size: 12px; font-weight: 200;" x="265.58000087738037" y="0" dx="0em" dy="0.95em" fill="rgb(50, 49, 63)" stroke="none" stroke-width="1px">55</text></g><line x1="0" y1="0" x2="265.58000087738037" y2="0" fill="rgb(0, 0, 0)" stroke="rgb(204, 204, 204)" stroke-width="1px"></line></g></g></g></g></svg>