<svg viewBox="0 0 330 200" xmlns="http://www.w3.org/2000/svg"><g><g><g><g><g><line x1="53.5359992980957" y1="175.61999893188477" x2="48.5359992980957" y2="175.61999893188477" style="visibility: inherit;" fill="rgb(0, 0, 0)" stroke="rgb(204, 204, 204)" stroke-width="1px"></line><line x1="53.5359992980957" y1="159.6545444835316" x2="48.5359992980957" y2="159.6545444835316" style="visibility: inherit;" fill="rgb(0, 0, 0)" stroke="rgb(204, 204, 204)" stroke-width="1px"></line><line x1="53.5359992980957" y1="143.68909003517845" x2="48.5359992980957" y2="143.68909003517845" style="visibility: inherit;" fill="rgb(0, 0, 0)" stroke="rgb(204, 204, 204)" stroke-width="1px"></line><line x1="53.5359992980957" y1="127.72363558682528" x2="48.5359992980957" y2="127.72363558682528" style="visibility: inherit;" fill="rgb(0, 0, 0)" stroke="rgb(204, 204, 204)" stroke-width="1px"></line><line x1="53.5359992980957" y1="111.75818113847212" x2="48.5359992980957" y2="111.75818113847212" style="visibility: inherit;" fill="rgb(0, 0, 0)" stroke="rgb(204, 204, 204)" stroke-width="1px"></line><line x1="53.5359992980957" y1="95.79272669011897" x2="48.5359992980957" y2="95.79272669011897" style="visibility: inherit;" fill="rgb(0, 0, 0)" stroke="rgb(204, 204, 204)" stroke-width="1px"></line><line x1="53.5359992980957" y1="79.82727224176581" x2="48.5359992980957" y2="79.82727224176581" style="visibility: inherit;" fill="rgb(0, 0, 0)" stroke="rgb(204, 204, 204)" stroke-width="1px"></line><line x1="53.5359992980957" y1="63.86181779341267" x2="48.5359992980957" y2="63.86181779341267" style="visibility: inherit;" fill="rgb(0, 0, 0)" stroke="rgb(204, 204, 204)" stroke-width="1px"></line><line x1="53.5359992980957" y1="47.8963633450595" x2="48.5359992980957" y2="47.8963633450595" style="visibility: inherit;" fill="rgb(0, 0, 0)" stroke="rgb(204, 204, 204)" stroke-width="1px"></line><line x1="53.5359992980957" y1="31.93090889670634" x2="48.5359992980957" y2="31.93090889670634" style="visibility: inherit;" fill="rgb(0, 0, 0)" stroke="rgb(204, 204, 204)" stroke-width="1px"></line><line x1="53.5359992980957" y1="15.96545444835317" x2="48.5359992980957" y2="15.96545444835317" style="visibility: inherit;" fill="rgb(0, 0, 0)" stroke="rgb(204, 204, 204)" stroke-width="1px"></line><line x1="53.5359992980957" y1="0" x2="48.5359992980957" y2="0" style="visibility: inherit;" fill="rgb(0, 0, 0)" stroke="rgb(204, 204, 204)" stroke-width="1px"></line></g><g transform="translate(43.5359992980957, 0)"><text style="text-anchor: end; visibility: hidden; font-family: &quot;Helvetica Neue&quot;, sans-serif; font-size: 12px; font-weight: 200;" x="0" y="175.61999893188477" dx="0em" dy="0.3em" fill="rgb(50, 49, 63)" stroke="none" stroke-width="1px">-0.1</text><text style="text-anchor: end; visibility: inherit; font-family: &quot;Helvetica Neue&quot;, sans-serif; font-size: 12px; font-weight: 200;" x="0" y="159.6545444835316" dx="0em" dy="0.3em" fill="rgb(50, 49, 63)" stroke="none" stroke-width="1px">0</text><text style="text-anchor: end; visibility: hidden; font-family: &quot;Helvetica Neue&quot;, sans-serif; font-size: 12px; font-weight: 200;" x="0" y="143.68909003517845" dx="0em" dy="0.3em" fill="rgb(50, 49, 63)" stroke="none" stroke-width="1px">0.1</text><text style="text-anchor: end; visibility: inherit; font-family: &quot;Helvetica Neue&quot;, sans-serif; font-size: 12px; font-weight: 200;" x="0" y="127.72363558682528" dx="0em" dy="0.3em" fill="rgb(50, 49, 63)" stroke="none" stroke-width="1px">0.2</text><text style="text-anchor: end; visibility: hidden; font-family: &quot;Helvetica Neue&quot;, sans-serif; font-size: 12px; font-weight: 200;" x="0" y="111.75818113847212" dx="0em" dy="0.3em" fill="rgb(50, 49, 63)" stroke="none" stroke-width="1px">0.3</text><text style="text-anchor: end; visibility: inherit; font-family: &quot;Helvetica Neue&quot;, sans-serif; font-size: 12px; font-weight: 200;" x="0" y="95.79272669011897" dx="0em" dy="0.3em" fill="rgb(50, 49, 63)" stroke="none" stroke-width="1px">0.4</text><text style="text-anchor: end; visibility: hidden; font-family: &quot;Helvetica Neue&quot;, sans-serif; font-size: 12px; font-weight: 200;" x="0" y="79.82727224176581" dx="0em" dy="0.3em" fill="rgb(50, 49, 63)" stroke="none" stroke-width="1px">0.5</text><text style="text-anchor: end; visibility: inherit; font-family: &quot;Helvetica Neue&quot;, sans-serif; font-size: 12px; font-weight: 200;" x="0" y="63.86181779341267" dx="0em" dy="0.3em" fill="rgb(50, 49, 63)" stroke="none" stroke-width="1px">0.6</text><text style="text-anchor: end; visibility: hidden; font-family: &quot;Helvetica Neue&quot;, sans-serif; font-size: 12px; font-weight: 200;" x="0" y="47.8963633450595" dx="0em" dy="0.3em" fill="rgb(50, 49, 63)" stroke="none" stroke-width="1px">0.7</text><text style="text-anchor: end; visibility: inherit; font-family: &quot;Helvetica Neue&quot;, sans-serif; font-size: 12px; font-weight: 200;" x="0" y="31.93090889670634" dx="0em" dy="0.3em" fill="rgb(50, 49, 63)" stroke="none" stroke-width="1px">0.8</text><text style="text-anchor: end; visibility: hidden; font-family: &quot;Helvetica Neue&quot;, sans-serif; font-size: 12px; font-weight: 200;" x="0" y="15.96545444835317" dx="0em" dy="0.3em" fill="rgb(50, 49, 63)" stroke="none" stroke-width="1px">0.9</text><text style="text-anchor: end; visibility: hidden; font-family: &quot;Helvetica Neue&quot;, sans-serif; font-size: 12px; font-weight: 200;" x="0" y="0" dx="0em" dy="0.3em" fill="rgb(50, 49, 63)" stroke="none" stroke-width="1px">1</text></g><line x1="53.5359992980957" y1="0" x2="53.5359992980957" y2="175.61999893188477" fill="rgb(0, 0, 0)" stroke="rgb(204, 204, 204)" stroke-width="1px"></line></g></g><g transform="translate(53, 0)" clip-path="url(#clip_0)"><clipPath id="clip_0"><rect width="276" height="175"></rect></clipPath><g><g><g><line x1="0" y1="0" x2="0" y2="175.61999893188477" fill="rgb(0, 0, 0)" stroke="rgb(60, 60, 60)" stroke-width="1px" opacity="0.25"></line><line x1="23.03866672515869" y1="0" x2="23.03866672515869" y2="175.61999893188477" fill="rgb(0, 0, 0)" stroke="rgb(60, 60, 60)" stroke-width="1px" opacity="0.25"></line><line x1="46.07733345031738" y1="0" x2="46.07733345031738" y2="175.61999893188477" fill="rgb(0, 0, 0)" stroke="rgb(60, 60, 60)" stroke-width="1px" opacity="0.25"></line><line x1="69.11600017547607" y1="0" x2="69.11600017547607" y2="175.61999893188477" fill="rgb(0, 0, 0)" stroke="rgb(60, 60, 60)" stroke-width="1px" opacity="0.25"></line><line x1="92.15466690063477" y1="0" x2="92.15466690063477" y2="175.61999893188477" fill="rgb(0, 0, 0)" stroke="rgb(60, 60, 60)" stroke-width="1px" opacity="0.25"></line><line x1="115.19333362579346" y1="0" x2="115.19333362579346" y2="175.61999893188477" fill="rgb(0, 0, 0)" stroke="rgb(60, 60, 60)" stroke-width="1px" opacity="0.25"></line><line x1="138.23200035095215" y1="0" x2="138.23200035095215" y2="175.61999893188477" fill="rgb(0, 0, 0)" stroke="rgb(60, 60, 60)" stroke-width="1px" opacity="0.25"></line><line x1="161.27066707611084" y1="0" x2="161.27066707611084" y2="175.61999893188477" fill="rgb(0, 0, 0)" stroke="rgb(60, 60, 60)" stroke-width="1px" opacity="0.25"></line><line x1="184.30933380126953" y1="0" x2="184.30933380126953" y2="175.61999893188477" fill="rgb(0, 0, 0)" stroke="rgb(60, 60, 60)" stroke-width="1px" opacity="0.25"></line><line x1="207.34800052642822" y1="0" x2="207.34800052642822" y2="175.61999893188477" fill="rgb(0, 0, 0)" stroke="rgb(60, 60, 60)" stroke-width="1px" opacity="0.25"></line><line x1="230.3866672515869" y1="0" x2="230.3866672515869" y2="175.61999893188477" fill="rgb(0, 0, 0)" stroke="rgb(60, 60, 60)" stroke-width="1px" opacity="0.25"></line><line x1="253.4253339767456" y1="0" x2="253.4253339767456" y2="175.61999893188477" fill="rgb(0, 0, 0)" stroke="rgb(60, 60, 60)" stroke-width="1px" opacity="0.25"></line><line x1="276.4640007019043" y1="0" x2="276.4640007019043" y2="175.61999893188477" fill="rgb(0, 0, 0)" stroke="rgb(60, 60, 60)" stroke-width="1px" opacity="0.25"></line></g><g><line x1="0" y1="175.61999893188477" x2="276.4640007019043" y2="175.61999893188477" fill="rgb(0, 0, 0)" stroke="rgb(60, 60, 60)" stroke-width="1px" opacity="0.25"></line><line x1="0" y1="159.6545444835316" x2="276.4640007019043" y2="159.6545444835316" fill="rgb(0, 0, 0)" stroke="rgb(60, 60, 60)" stroke-width="1px" opacity="0.25"></line><line x1="0" y1="143.68909003517845" x2="276.4640007019043" y2="143.68909003517845" fill="rgb(0, 0, 0)" stroke="rgb(60, 60, 60)" stroke-width="1px" opacity="0.25"></line><line x1="0" y1="127.72363558682528" x2="276.4640007019043" y2="127.72363558682528" fill="rgb(0, 0, 0)" stroke="rgb(60, 60, 60)" stroke-width="1px" opacity="0.25"></line><line x1="0" y1="111.75818113847212" x2="276.4640007019043" y2="111.75818113847212" fill="rgb(0, 0, 0)" stroke="rgb(60, 60, 60)" stroke-width="1px" opacity="0.25"></line><line x1="0" y1="95.79272669011897" x2="276.4640007019043" y2="95.79272669011897" fill="rgb(0, 0, 0)" stroke="rgb(60, 60, 60)" stroke-width="1px" opacity="0.25"></line><line x1="0" y1="79.82727224176581" x2="276.4640007019043" y2="79.82727224176581" fill="rgb(0, 0, 0)" stroke="rgb(60, 60, 60)" stroke-width="1px" opacity="0.25"></line><line x1="0" y1="63.86181779341267" x2="276.4640007019043" y2="63.86181779341267" fill="rgb(0, 0, 0)" stroke="rgb(60, 60, 60)" stroke-width="1px" opacity="0.25"></line><line x1="0" y1="47.8963633450595" x2="276.4640007019043" y2="47.8963633450595" fill="rgb(0, 0, 0)" stroke="rgb(60, 60, 60)" stroke-width="1px" opacity="0.25"></line><line x1="0" y1="31.93090889670634" x2="276.4640007019043" y2="31.93090889670634" fill="rgb(0, 0, 0)" stroke="rgb(60, 60, 60)" stroke-width="1px" opacity="0.25"></line><line x1="0" y1="15.96545444835317" x2="276.4640007019043" y2="15.96545444835317" fill="rgb(0, 0, 0)" stroke="rgb(60, 60, 60)" stroke-width="1px" opacity="0.25"></line><line x1="0" y1="0" x2="276.4640007019043" y2="0" fill="rgb(0, 0, 0)" stroke="rgb(60, 60, 60)" stroke-width="1px" opacity="0.25"></line></g></g></g><g><g><line x1="0" y1="159.6545444835316" x2="276.4640007019043" y2="159.6545444835316" fill="rgb(0, 0, 0)" stroke="rgb(153, 153, 153)" stroke-width="1.5px"></line></g></g><g><g><line x1="23.03866672515869" y1="0" x2="23.03866672515869" y2="175.61999893188477" fill="rgb(0, 0, 0)" stroke="rgb(153, 153, 153)" stroke-width="1.5px"></line></g></g><g><g><g><g><g><path style="fill: none;" stroke="rgb(51, 187, 238)" stroke-width="2px" d="M23.03866672515869,125.96189316195478L27.64640007019043,134.71041086423332L32.25413341522217,136.06723577014395L36.8618667602539,138.72622242347998L41.46960010528564,135.71072025719073L46.07733345031738,141.51375921117523L50.685066795349115,138.86871491063997L55.29280014038086,140.23340967459427L59.9005334854126,140.4394641122626L64.50826683044434,140.52960705549216L69.11600017547607,143.48636363391196L73.7237335205078,141.90791824402717L78.33146686553955,144.59021233365513L82.93920021057129,141.88309773950192L87.54693355560302,143.43377023857602L92.15466690063477,144.1337569985655L96.7624002456665,143.6445589620687L101.37013359069823,144.5008164083898L105.97786693572999,143.05822955791567L110.58560028076172,144.42976643545327L115.19333362579346,144.57216851916536L119.8010669708252,143.81139019853813L124.40880031585694,147.4491369176975L129.01653366088868,145.31871662338142L133.62426700592042,145.63614216126953L138.23200035095215,143.15824075119517L142.8397336959839,146.42864614451506L147.4474670410156,145.85458781889565L152.05520038604737,144.95661750800122L156.6629337310791,145.66673183319378L161.27066707611084,144.77290223811704L165.87840042114257,144.98318779505098L170.48613376617433,143.48522288514172L175.09386711120604,145.21345608252838L179.7016004562378,145.2180761745238L184.30933380126953,145.5110416321592L188.91706714630126,147.04404858380187L193.524800491333,146.28995060216695L198.13253383636476,146.40856111533319L202.74026718139646,147.65383768268538L207.34800052642822,146.100030800911L211.95573387145998,146.1057119439002L216.5634672164917,145.87622398092049L221.17120056152345,148.32268164439174L225.77893390655518,146.21949657827514L230.3866672515869,148.52786297507637L234.99440059661865,147.25088929356312L239.6021339416504,146.98314045029707L244.2098672866821,145.29127798742417L248.81760063171387,146.1776100439203" fill="none"></path></g><g><path style="fill: none;" stroke="rgb(204, 51, 17)" stroke-width="2px" d="M23.03866672515869,31.930906993475844L27.64640007019043,49.320752457278616L32.25413341522217,106.30128437760175L36.8618667602539,79.16423432254906L41.46960010528564,106.58944298875069L46.07733345031738,139.1259507845303L50.685066795349115,118.40154797544983L55.29280014038086,140.21550146527636L59.9005334854126,97.91999499685281L64.50826683044434,143.45440958363582L69.11600017547607,142.24716907746927L73.7237335205078,143.43078573527623L78.33146686553955,146.07393156340555L82.93920021057129,144.74710513845065L87.54693355560302,144.83709106516545L92.15466690063477,142.90430936122948L96.7624002456665,143.71625127529293L101.37013359069823,137.77288237978377L105.97786693572999,149.19700907462175L110.58560028076172,147.4193132960423L115.19333362579346,145.7830156470956L119.8010669708252,143.61106448462107L124.40880031585694,148.39694212924783L129.01653366088868,137.2879416319717L133.62426700592042,149.50533360224807L138.23200035095215,150.09801146957807L142.8397336959839,148.79171138537308L147.4474670410156,148.82651909185338L152.05520038604737,149.88203882205968L156.6629337310791,147.39997052674846L161.27066707611084,146.67269857875937L165.87840042114257,149.95546723833937L170.48613376617433,150.41192614198616L175.09386711120604,151.5382948164093L179.7016004562378,151.8753753723422L184.30933380126953,152.68834086754936L188.91706714630126,151.60353993637528L193.524800491333,152.3745308728178L198.13253383636476,148.49998302755108L202.74026718139646,152.6948457524816L207.34800052642822,152.63027092650105L211.95573387145998,150.5826155834986L216.5634672164917,148.3648072720759L221.17120056152345,151.42938780490437L225.77893390655518,153.7918927822892L230.3866672515869,152.29799186421886L234.99440059661865,152.06853720777258L239.6021339416504,125.53168932280916L244.2098672866821,153.69572195126696L248.81760063171387,154.99479184129817" fill="none"></path></g><g><path style="fill: none;" stroke="rgb(238, 51, 119)" stroke-width="2px" d="M23.03866672515869,141.1159995041549L27.64640007019043,145.12085083486252L32.25413341522217,149.03468730487594L36.8618667602539,148.9170153222412L41.46960010528564,146.68995731067525L46.07733345031738,145.80819776541247L50.685066795349115,148.9254882664439L55.29280014038086,149.1245792595857L59.9005334854126,150.86044797976288L64.50826683044434,149.39946045908357L69.11600017547607,150.57095294395975L73.7237335205078,151.118107917195L78.33146686553955,151.5424170946817L82.93920021057129,150.99597702239632L87.54693355560302,149.45547491121116L92.15466690063477,150.31500234540442L96.7624002456665,150.14097392391483L101.37013359069823,151.34034516679728L105.97786693572999,152.62209833585882L110.58560028076172,150.77737910633164L115.19333362579346,150.38254740045616L119.8010669708252,152.63640111293213L124.40880031585694,151.31742016088032L129.01653366088868,151.23222323786624L133.62426700592042,152.8883281632963L138.23200035095215,149.43051404343785L142.8397336959839,151.58506016315317L147.4474670410156,151.17384818518124L152.05520038604737,152.58949778197828L156.6629337310791,153.1157029456813L161.27066707611084,150.6072142427208L165.87840042114257,151.84640106728966L170.48613376617433,152.3869149556613L175.09386711120604,151.28677279728208L179.7016004562378,151.80972046306303L184.30933380126953,151.60320330248373L188.91706714630126,152.20751882945254L193.524800491333,152.82289331504163L198.13253383636476,153.0524728709883L202.74026718139646,153.28670582546383L207.34800052642822,152.58856282000392L211.95573387145998,151.9016583905411L216.5634672164917,151.9299368269486L221.17120056152345,152.66853715962313L225.77893390655518,152.02934552882857L230.3866672515869,153.32942680743315L234.99440059661865,150.55485518263797L239.6021339416504,152.67264873222408L244.2098672866821,151.90010249962194L248.81760063171387,153.09399779155152" fill="none"></path></g><g><path style="fill: none;" stroke="rgb(0, 119, 187)" stroke-width="2px" d="M23.03866672515869,138.8048924554594L27.64640007019043,122.2507150527181L32.25413341522217,135.44170576565406L36.8618667602539,140.41155918483722L41.46960010528564,131.26228537704802L46.07733345031738,125.540860514695L50.685066795349115,136.59536319663397L55.29280014038086,140.5024895896788L59.9005334854126,135.66582305011696L64.50826683044434,132.3836663980889L69.11600017547607,133.49061141592273L73.7237335205078,130.6729857438238L78.33146686553955,137.65657358598187L82.93920021057129,127.35538380310392L87.54693355560302,141.78165555480365L92.15466690063477,144.63387600947266L96.7624002456665,142.9928202843206L101.37013359069823,137.65969488397258L105.97786693572999,138.11776439641488L110.58560028076172,133.6644477300855L115.19333362579346,140.08518489512588L119.8010669708252,120.43607519144214L124.40880031585694,138.3956669743032L129.01653366088868,130.62543828830366L133.62426700592042,144.12310723449886L138.23200035095215,125.87239850660819L142.8397336959839,133.00025359835084L147.4474670410156,142.44653722855L152.05520038604737,125.13467782327211L156.6629337310791,140.3348233108353L161.27066707611084,139.60137775896973L165.87840042114257,138.87055866516954L170.48613376617433,139.31097571488996L175.09386711120604,141.2485595072362L179.7016004562378,136.47283797626977" fill="none"></path></g><g><path style="fill: none;" stroke="rgb(255, 112, 67)" stroke-width="2px" d="M23.03866672515869,148.0523241858461L27.64640007019043,148.94908356634627L32.25413341522217,148.6765778363939L36.8618667602539,149.7264116655348L41.46960010528564,149.47692788730208L46.07733345031738,148.66944785920018L50.685066795349115,150.12857675636178L55.29280014038086,150.58010926685745L59.9005334854126,150.26117660833128L64.50826683044434,151.1331541436754L69.11600017547607,150.3684956119027L73.7237335205078,151.79981295888442L78.33146686553955,151.48077562268176L82.93920021057129,150.10691739871547L87.54693355560302,150.7969104143951L92.15466690063477,151.53865286164375L96.7624002456665,150.46610754525562L101.37013359069823,148.5690286608861L105.97786693572999,151.0994187886199L110.58560028076172,151.27110921041404L115.19333362579346,151.24923692885753L119.8010669708252,149.99606671308064L124.40880031585694,150.1431233848406L129.01653366088868,152.29131687806228L133.62426700592042,152.37417699090003L138.23200035095215,151.5907853183473L142.8397336959839,150.4127724847912L147.4474670410156,150.90234046171295L152.05520038604737,151.53588841936843L156.6629337310791,151.81118476101523L161.27066707611084,151.62991752133874L165.87840042114257,150.99762748008007L170.48613376617433,152.17001448328284L175.09386711120604,150.66090377986254L179.7016004562378,149.4893084015884L184.30933380126953,151.36982620696568L188.91706714630126,151.40740787187372L193.524800491333,147.61559702422292L198.13253383636476,152.13696072264375L202.74026718139646,150.73778001711253L207.34800052642822,152.7889188666568L211.95573387145998,148.9744524391542L216.5634672164917,151.576413549169L221.17120056152345,152.76604501005906L225.77893390655518,151.42707240607092L230.3866672515869,151.74609725232355L234.99440059661865,152.5936640724556L239.6021339416504,152.12180624992968L244.2098672866821,152.1498229921459L248.81760063171387,152.0726571070069" fill="none"></path></g></g></g></g></g></g><g transform="translate(53, 175)" clip-path="url(#clip_1)"><clipPath id="clip_1"><rect width="276" height="24"></rect></clipPath><g><g><line x1="0" y1="0" x2="0" y2="5" style="visibility: inherit;" fill="rgb(0, 0, 0)" stroke="rgb(204, 204, 204)" stroke-width="1px"></line><line x1="23.03866672515869" y1="0" x2="23.03866672515869" y2="5" style="visibility: inherit;" fill="rgb(0, 0, 0)" stroke="rgb(204, 204, 204)" stroke-width="1px"></line><line x1="46.07733345031738" y1="0" x2="46.07733345031738" y2="5" style="visibility: inherit;" fill="rgb(0, 0, 0)" stroke="rgb(204, 204, 204)" stroke-width="1px"></line><line x1="69.11600017547607" y1="0" x2="69.11600017547607" y2="5" style="visibility: inherit;" fill="rgb(0, 0, 0)" stroke="rgb(204, 204, 204)" stroke-width="1px"></line><line x1="92.15466690063477" y1="0" x2="92.15466690063477" y2="5" style="visibility: inherit;" fill="rgb(0, 0, 0)" stroke="rgb(204, 204, 204)" stroke-width="1px"></line><line x1="115.19333362579346" y1="0" x2="115.19333362579346" y2="5" style="visibility: inherit;" fill="rgb(0, 0, 0)" stroke="rgb(204, 204, 204)" stroke-width="1px"></line><line x1="138.23200035095215" y1="0" x2="138.23200035095215" y2="5" style="visibility: inherit;" fill="rgb(0, 0, 0)" stroke="rgb(204, 204, 204)" stroke-width="1px"></line><line x1="161.27066707611084" y1="0" x2="161.27066707611084" y2="5" style="visibility: inherit;" fill="rgb(0, 0, 0)" stroke="rgb(204, 204, 204)" stroke-width="1px"></line><line x1="184.30933380126953" y1="0" x2="184.30933380126953" y2="5" style="visibility: inherit;" fill="rgb(0, 0, 0)" stroke="rgb(204, 204, 204)" stroke-width="1px"></line><line x1="207.34800052642822" y1="0" x2="207.34800052642822" y2="5" style="visibility: inherit;" fill="rgb(0, 0, 0)" stroke="rgb(204, 204, 204)" stroke-width="1px"></line><line x1="230.3866672515869" y1="0" x2="230.3866672515869" y2="5" style="visibility: inherit;" fill="rgb(0, 0, 0)" stroke="rgb(204, 204, 204)" stroke-width="1px"></line><line x1="253.4253339767456" y1="0" x2="253.4253339767456" y2="5" style="visibility: inherit;" fill="rgb(0, 0, 0)" stroke="rgb(204, 204, 204)" stroke-width="1px"></line><line x1="276.4640007019043" y1="0" x2="276.4640007019043" y2="5" style="visibility: inherit;" fill="rgb(0, 0, 0)" stroke="rgb(204, 204, 204)" stroke-width="1px"></line></g><g transform="translate(0, 8)"><text style="text-anchor: middle; visibility: hidden; font-family: &quot;Helvetica Neue&quot;, sans-serif; font-size: 12px; font-weight: 200;" x="0" y="0" dx="0em" dy="0.95em" fill="rgb(50, 49, 63)" stroke="none" stroke-width="1px">-5</text><text style="text-anchor: middle; visibility: inherit; font-family: &quot;Helvetica Neue&quot;, sans-serif; font-size: 12px; font-weight: 200;" x="23.03866672515869" y="0" dx="0em" dy="0.95em" fill="rgb(50, 49, 63)" stroke="none" stroke-width="1px">0</text><text style="text-anchor: middle; visibility: inherit; font-family: &quot;Helvetica Neue&quot;, sans-serif; font-size: 12px; font-weight: 200;" x="46.07733345031738" y="0" dx="0em" dy="0.95em" fill="rgb(50, 49, 63)" stroke="none" stroke-width="1px">5</text><text style="text-anchor: middle; visibility: inherit; font-family: &quot;Helvetica Neue&quot;, sans-serif; font-size: 12px; font-weight: 200;" x="69.11600017547607" y="0" dx="0em" dy="0.95em" fill="rgb(50, 49, 63)" stroke="none" stroke-width="1px">10</text><text style="text-anchor: middle; visibility: inherit; font-family: &quot;Helvetica Neue&quot;, sans-serif; font-size: 12px; font-weight: 200;" x="92.15466690063477" y="0" dx="0em" dy="0.95em" fill="rgb(50, 49, 63)" stroke="none" stroke-width="1px">15</text><text style="text-anchor: middle; visibility: inherit; font-family: &quot;Helvetica Neue&quot;, sans-serif; font-size: 12px; font-weight: 200;" x="115.19333362579346" y="0" dx="0em" dy="0.95em" fill="rgb(50, 49, 63)" stroke="none" stroke-width="1px">20</text><text style="text-anchor: middle; visibility: inherit; font-family: &quot;Helvetica Neue&quot;, sans-serif; font-size: 12px; font-weight: 200;" x="138.23200035095215" y="0" dx="0em" dy="0.95em" fill="rgb(50, 49, 63)" stroke="none" stroke-width="1px">25</text><text style="text-anchor: middle; visibility: inherit; font-family: &quot;Helvetica Neue&quot;, sans-serif; font-size: 12px; font-weight: 200;" x="161.27066707611084" y="0" dx="0em" dy="0.95em" fill="rgb(50, 49, 63)" stroke="none" stroke-width="1px">30</text><text style="text-anchor: middle; visibility: inherit; font-family: &quot;Helvetica Neue&quot;, sans-serif; font-size: 12px; font-weight: 200;" x="184.30933380126953" y="0" dx="0em" dy="0.95em" fill="rgb(50, 49, 63)" stroke="none" stroke-width="1px">35</text><text style="text-anchor: middle; visibility: inherit; font-family: &quot;Helvetica Neue&quot;, sans-serif; font-size: 12px; font-weight: 200;" x="207.34800052642822" y="0" dx="0em" dy="0.95em" fill="rgb(50, 49, 63)" stroke="none" stroke-width="1px">40</text><text style="text-anchor: middle; visibility: inherit; font-family: &quot;Helvetica Neue&quot;, sans-serif; font-size: 12px; font-weight: 200;" x="230.3866672515869" y="0" dx="0em" dy="0.95em" fill="rgb(50, 49, 63)" stroke="none" stroke-width="1px">45</text><text style="text-anchor: middle; visibility: inherit; font-family: &quot;Helvetica Neue&quot;, sans-serif; font-size: 12px; font-weight: 200;" x="253.4253339767456" y="0" dx="0em" dy="0.95em" fill="rgb(50, 49, 63)" stroke="none" stroke-width="1px">50</text><text style="text-anchor: middle; visibility: hidden; font-family: &quot;Helvetica Neue&quot;, sans-serif; font-size: 12px; font-weight: 200;" x="276.4640007019043" y="0" dx="0em" dy="0.95em" fill="rgb(50, 49, 63)" stroke="none" stroke-width="1px">55</text></g><line x1="0" y1="0" x2="276.4640007019043" y2="0" fill="rgb(0, 0, 0)" stroke="rgb(204, 204, 204)" stroke-width="1px"></line></g></g></g></g></svg>