<svg viewBox="0 0 330 200" xmlns="http://www.w3.org/2000/svg"><g><g><g><g><g><line x1="53.5359992980957" y1="161.51442402154055" x2="48.5359992980957" y2="161.51442402154055" style="visibility: inherit;" fill="rgb(0, 0, 0)" stroke="rgb(204, 204, 204)" stroke-width="1px"></line><line x1="53.5359992980957" y1="147.82416977841712" x2="48.5359992980957" y2="147.82416977841712" style="visibility: inherit;" fill="rgb(0, 0, 0)" stroke="rgb(204, 204, 204)" stroke-width="1px"></line><line x1="53.5359992980957" y1="137.20518360326352" x2="48.5359992980957" y2="137.20518360326352" style="visibility: inherit;" fill="rgb(0, 0, 0)" stroke="rgb(204, 204, 204)" stroke-width="1px"></line><line x1="53.5359992980957" y1="128.5288401480082" x2="48.5359992980957" y2="128.5288401480082" style="visibility: inherit;" fill="rgb(0, 0, 0)" stroke="rgb(204, 204, 204)" stroke-width="1px"></line><line x1="53.5359992980957" y1="121.1930962811768" x2="48.5359992980957" y2="121.1930962811768" style="visibility: inherit;" fill="rgb(0, 0, 0)" stroke="rgb(204, 204, 204)" stroke-width="1px"></line><line x1="53.5359992980957" y1="114.83858590488472" x2="48.5359992980957" y2="114.83858590488472" style="visibility: inherit;" fill="rgb(0, 0, 0)" stroke="rgb(204, 204, 204)" stroke-width="1px"></line><line x1="53.5359992980957" y1="109.23351051759921" x2="48.5359992980957" y2="109.23351051759921" style="visibility: inherit;" fill="rgb(0, 0, 0)" stroke="rgb(204, 204, 204)" stroke-width="1px"></line><line x1="53.5359992980957" y1="104.21959972973114" x2="48.5359992980957" y2="104.21959972973114" style="visibility: inherit;" fill="rgb(0, 0, 0)" stroke="rgb(204, 204, 204)" stroke-width="1px"></line><line x1="53.5359992980957" y1="71.23401585619878" x2="48.5359992980957" y2="71.23401585619878" style="visibility: inherit;" fill="rgb(0, 0, 0)" stroke="rgb(204, 204, 204)" stroke-width="1px"></line><line x1="53.5359992980957" y1="51.93868622578982" x2="48.5359992980957" y2="51.93868622578982" style="visibility: inherit;" fill="rgb(0, 0, 0)" stroke="rgb(204, 204, 204)" stroke-width="1px"></line><line x1="53.5359992980957" y1="38.248431982666375" x2="48.5359992980957" y2="38.248431982666375" style="visibility: inherit;" fill="rgb(0, 0, 0)" stroke="rgb(204, 204, 204)" stroke-width="1px"></line><line x1="53.5359992980957" y1="27.62944580751278" x2="48.5359992980957" y2="27.62944580751278" style="visibility: inherit;" fill="rgb(0, 0, 0)" stroke="rgb(204, 204, 204)" stroke-width="1px"></line><line x1="53.5359992980957" y1="18.953102352257417" x2="48.5359992980957" y2="18.953102352257417" style="visibility: inherit;" fill="rgb(0, 0, 0)" stroke="rgb(204, 204, 204)" stroke-width="1px"></line><line x1="53.5359992980957" y1="11.617358485426053" x2="48.5359992980957" y2="11.617358485426053" style="visibility: inherit;" fill="rgb(0, 0, 0)" stroke="rgb(204, 204, 204)" stroke-width="1px"></line><line x1="53.5359992980957" y1="5.262848109134012" x2="48.5359992980957" y2="5.262848109134012" style="visibility: inherit;" fill="rgb(0, 0, 0)" stroke="rgb(204, 204, 204)" stroke-width="1px"></line></g><g transform="translate(43.5359992980957, 0)"><text style="text-anchor: end; visibility: inherit; font-family: &quot;Helvetica Neue&quot;, sans-serif; font-size: 12px; font-weight: 200;" x="0" y="161.51442402154055" dx="0em" dy="0.3em" fill="rgb(50, 49, 63)" stroke="none" stroke-width="1px">0.03</text><text style="text-anchor: end; visibility: hidden; font-family: &quot;Helvetica Neue&quot;, sans-serif; font-size: 12px; font-weight: 200;" x="0" y="147.82416977841712" dx="0em" dy="0.3em" fill="rgb(50, 49, 63)" stroke="none" stroke-width="1px">0.04</text><text style="text-anchor: end; visibility: hidden; font-family: &quot;Helvetica Neue&quot;, sans-serif; font-size: 12px; font-weight: 200;" x="0" y="137.20518360326352" dx="0em" dy="0.3em" fill="rgb(50, 49, 63)" stroke="none" stroke-width="1px">0.05</text><text style="text-anchor: end; visibility: hidden; font-family: &quot;Helvetica Neue&quot;, sans-serif; font-size: 12px; font-weight: 200;" x="0" y="128.5288401480082" dx="0em" dy="0.3em" fill="rgb(50, 49, 63)" stroke="none" stroke-width="1px">0.06</text><text style="text-anchor: end; visibility: inherit; font-family: &quot;Helvetica Neue&quot;, sans-serif; font-size: 12px; font-weight: 200;" x="0" y="121.1930962811768" dx="0em" dy="0.3em" fill="rgb(50, 49, 63)" stroke="none" stroke-width="1px">0.07</text><text style="text-anchor: end; visibility: hidden; font-family: &quot;Helvetica Neue&quot;, sans-serif; font-size: 12px; font-weight: 200;" x="0" y="114.83858590488472" dx="0em" dy="0.3em" fill="rgb(50, 49, 63)" stroke="none" stroke-width="1px">0.08</text><text style="text-anchor: end; visibility: hidden; font-family: &quot;Helvetica Neue&quot;, sans-serif; font-size: 12px; font-weight: 200;" x="0" y="109.23351051759921" dx="0em" dy="0.3em" fill="rgb(50, 49, 63)" stroke="none" stroke-width="1px">0.09</text><text style="text-anchor: end; visibility: hidden; font-family: &quot;Helvetica Neue&quot;, sans-serif; font-size: 12px; font-weight: 200;" x="0" y="104.21959972973114" dx="0em" dy="0.3em" fill="rgb(50, 49, 63)" stroke="none" stroke-width="1px">0.1</text><text style="text-anchor: end; visibility: inherit; font-family: &quot;Helvetica Neue&quot;, sans-serif; font-size: 12px; font-weight: 200;" x="0" y="71.23401585619878" dx="0em" dy="0.3em" fill="rgb(50, 49, 63)" stroke="none" stroke-width="1px">0.2</text><text style="text-anchor: end; visibility: hidden; font-family: &quot;Helvetica Neue&quot;, sans-serif; font-size: 12px; font-weight: 200;" x="0" y="51.93868622578982" dx="0em" dy="0.3em" fill="rgb(50, 49, 63)" stroke="none" stroke-width="1px">0.3</text><text style="text-anchor: end; visibility: hidden; font-family: &quot;Helvetica Neue&quot;, sans-serif; font-size: 12px; font-weight: 200;" x="0" y="38.248431982666375" dx="0em" dy="0.3em" fill="rgb(50, 49, 63)" stroke="none" stroke-width="1px">0.4</text><text style="text-anchor: end; visibility: hidden; font-family: &quot;Helvetica Neue&quot;, sans-serif; font-size: 12px; font-weight: 200;" x="0" y="27.62944580751278" dx="0em" dy="0.3em" fill="rgb(50, 49, 63)" stroke="none" stroke-width="1px">0.5</text><text style="text-anchor: end; visibility: inherit; font-family: &quot;Helvetica Neue&quot;, sans-serif; font-size: 12px; font-weight: 200;" x="0" y="18.953102352257417" dx="0em" dy="0.3em" fill="rgb(50, 49, 63)" stroke="none" stroke-width="1px">0.6</text><text style="text-anchor: end; visibility: hidden; font-family: &quot;Helvetica Neue&quot;, sans-serif; font-size: 12px; font-weight: 200;" x="0" y="11.617358485426053" dx="0em" dy="0.3em" fill="rgb(50, 49, 63)" stroke="none" stroke-width="1px">0.7</text><text style="text-anchor: end; visibility: hidden; font-family: &quot;Helvetica Neue&quot;, sans-serif; font-size: 12px; font-weight: 200;" x="0" y="5.262848109134012" dx="0em" dy="0.3em" fill="rgb(50, 49, 63)" stroke="none" stroke-width="1px">0.8</text></g><line x1="53.5359992980957" y1="0" x2="53.5359992980957" y2="175.61999893188477" fill="rgb(0, 0, 0)" stroke="rgb(204, 204, 204)" stroke-width="1px"></line></g></g><g transform="translate(53, 0)" clip-path="url(#clip_0)"><clipPath id="clip_0"><rect width="276" height="175"></rect></clipPath><g><g><g><line x1="0" y1="0" x2="0" y2="175.61999893188477" fill="rgb(0, 0, 0)" stroke="rgb(60, 60, 60)" stroke-width="1px" opacity="0.25"></line><line x1="23.03866672515869" y1="0" x2="23.03866672515869" y2="175.61999893188477" fill="rgb(0, 0, 0)" stroke="rgb(60, 60, 60)" stroke-width="1px" opacity="0.25"></line><line x1="46.07733345031738" y1="0" x2="46.07733345031738" y2="175.61999893188477" fill="rgb(0, 0, 0)" stroke="rgb(60, 60, 60)" stroke-width="1px" opacity="0.25"></line><line x1="69.11600017547607" y1="0" x2="69.11600017547607" y2="175.61999893188477" fill="rgb(0, 0, 0)" stroke="rgb(60, 60, 60)" stroke-width="1px" opacity="0.25"></line><line x1="92.15466690063477" y1="0" x2="92.15466690063477" y2="175.61999893188477" fill="rgb(0, 0, 0)" stroke="rgb(60, 60, 60)" stroke-width="1px" opacity="0.25"></line><line x1="115.19333362579346" y1="0" x2="115.19333362579346" y2="175.61999893188477" fill="rgb(0, 0, 0)" stroke="rgb(60, 60, 60)" stroke-width="1px" opacity="0.25"></line><line x1="138.23200035095215" y1="0" x2="138.23200035095215" y2="175.61999893188477" fill="rgb(0, 0, 0)" stroke="rgb(60, 60, 60)" stroke-width="1px" opacity="0.25"></line><line x1="161.27066707611084" y1="0" x2="161.27066707611084" y2="175.61999893188477" fill="rgb(0, 0, 0)" stroke="rgb(60, 60, 60)" stroke-width="1px" opacity="0.25"></line><line x1="184.30933380126953" y1="0" x2="184.30933380126953" y2="175.61999893188477" fill="rgb(0, 0, 0)" stroke="rgb(60, 60, 60)" stroke-width="1px" opacity="0.25"></line><line x1="207.34800052642822" y1="0" x2="207.34800052642822" y2="175.61999893188477" fill="rgb(0, 0, 0)" stroke="rgb(60, 60, 60)" stroke-width="1px" opacity="0.25"></line><line x1="230.3866672515869" y1="0" x2="230.3866672515869" y2="175.61999893188477" fill="rgb(0, 0, 0)" stroke="rgb(60, 60, 60)" stroke-width="1px" opacity="0.25"></line><line x1="253.4253339767456" y1="0" x2="253.4253339767456" y2="175.61999893188477" fill="rgb(0, 0, 0)" stroke="rgb(60, 60, 60)" stroke-width="1px" opacity="0.25"></line><line x1="276.4640007019043" y1="0" x2="276.4640007019043" y2="175.61999893188477" fill="rgb(0, 0, 0)" stroke="rgb(60, 60, 60)" stroke-width="1px" opacity="0.25"></line></g><g><line x1="0" y1="161.51442402154055" x2="276.4640007019043" y2="161.51442402154055" fill="rgb(0, 0, 0)" stroke="rgb(60, 60, 60)" stroke-width="1px" opacity="0.25"></line><line x1="0" y1="147.82416977841712" x2="276.4640007019043" y2="147.82416977841712" fill="rgb(0, 0, 0)" stroke="rgb(60, 60, 60)" stroke-width="1px" opacity="0.25"></line><line x1="0" y1="137.20518360326352" x2="276.4640007019043" y2="137.20518360326352" fill="rgb(0, 0, 0)" stroke="rgb(60, 60, 60)" stroke-width="1px" opacity="0.25"></line><line x1="0" y1="128.5288401480082" x2="276.4640007019043" y2="128.5288401480082" fill="rgb(0, 0, 0)" stroke="rgb(60, 60, 60)" stroke-width="1px" opacity="0.25"></line><line x1="0" y1="121.1930962811768" x2="276.4640007019043" y2="121.1930962811768" fill="rgb(0, 0, 0)" stroke="rgb(60, 60, 60)" stroke-width="1px" opacity="0.25"></line><line x1="0" y1="114.83858590488472" x2="276.4640007019043" y2="114.83858590488472" fill="rgb(0, 0, 0)" stroke="rgb(60, 60, 60)" stroke-width="1px" opacity="0.25"></line><line x1="0" y1="109.23351051759921" x2="276.4640007019043" y2="109.23351051759921" fill="rgb(0, 0, 0)" stroke="rgb(60, 60, 60)" stroke-width="1px" opacity="0.25"></line><line x1="0" y1="104.21959972973114" x2="276.4640007019043" y2="104.21959972973114" fill="rgb(0, 0, 0)" stroke="rgb(60, 60, 60)" stroke-width="1px" opacity="0.25"></line><line x1="0" y1="71.23401585619878" x2="276.4640007019043" y2="71.23401585619878" fill="rgb(0, 0, 0)" stroke="rgb(60, 60, 60)" stroke-width="1px" opacity="0.25"></line><line x1="0" y1="51.93868622578982" x2="276.4640007019043" y2="51.93868622578982" fill="rgb(0, 0, 0)" stroke="rgb(60, 60, 60)" stroke-width="1px" opacity="0.25"></line><line x1="0" y1="38.248431982666375" x2="276.4640007019043" y2="38.248431982666375" fill="rgb(0, 0, 0)" stroke="rgb(60, 60, 60)" stroke-width="1px" opacity="0.25"></line><line x1="0" y1="27.62944580751278" x2="276.4640007019043" y2="27.62944580751278" fill="rgb(0, 0, 0)" stroke="rgb(60, 60, 60)" stroke-width="1px" opacity="0.25"></line><line x1="0" y1="18.953102352257417" x2="276.4640007019043" y2="18.953102352257417" fill="rgb(0, 0, 0)" stroke="rgb(60, 60, 60)" stroke-width="1px" opacity="0.25"></line><line x1="0" y1="11.617358485426053" x2="276.4640007019043" y2="11.617358485426053" fill="rgb(0, 0, 0)" stroke="rgb(60, 60, 60)" stroke-width="1px" opacity="0.25"></line><line x1="0" y1="5.262848109134012" x2="276.4640007019043" y2="5.262848109134012" fill="rgb(0, 0, 0)" stroke="rgb(60, 60, 60)" stroke-width="1px" opacity="0.25"></line></g></g></g><g><g><line x1="23.03866672515869" y1="0" x2="23.03866672515869" y2="175.61999893188477" fill="rgb(0, 0, 0)" stroke="rgb(153, 153, 153)" stroke-width="1.5px"></line></g></g><g><g><g><g><g><path style="fill: none;" stroke="rgb(51, 187, 238)" stroke-width="2px" d="M23.03866672515869,60.35777731161963L27.64640007019043,98.17173516186301L32.25413341522217,104.74200940371911L36.8618667602539,109.23213768394785L41.46960010528564,111.7832138430087L46.07733345031738,112.18186306162747L50.685066795349115,116.25759275551214L55.29280014038086,116.95193761130682L59.9005334854126,117.26104102130421L64.50826683044434,116.02453346242946L69.11600017547607,118.14361654884678L73.7237335205078,121.91748077425311L78.33146686553955,121.31521595528469L82.93920021057129,123.5334703933733L87.54693355560302,122.1403673162933L92.15466690063477,122.12737933373764L96.7624002456665,124.43637825085838L101.37013359069823,124.6563237313733L105.97786693572999,124.81282574940865L110.58560028076172,124.91917618191208L115.19333362579346,126.68250233709104L119.8010669708252,122.95600453798389L124.40880031585694,127.73236367816779L129.01653366088868,125.07771158899313L133.62426700592042,126.86466166616151L138.23200035095215,125.111017663378L142.8397336959839,128.18794791942076L147.4474670410156,127.67268480689376L152.05520038604737,129.3812984157265L156.6629337310791,126.88653300686515L161.27066707611084,127.62295347474907L165.87840042114257,130.22476998519338L170.48613376617433,128.1657782229829L175.09386711120604,128.45193448161248L179.7016004562378,130.08003894981334L184.30933380126953,132.04104940582263L188.91706714630126,132.46996851341012L193.524800491333,127.6622533368705L198.13253383636476,131.59825950111724L202.74026718139646,130.32626539472415L207.34800052642822,129.03337016032086L211.95573387145998,131.2460574172687L216.5634672164917,131.96998223698367L221.17120056152345,130.50846208325234L225.77893390655518,131.8574196823536L230.3866672515869,133.30040282762047L234.99440059661865,132.10758784205086L239.6021339416504,129.10776855272096L244.2098672866821,134.2688202095939L248.81760063171387,134.27720785713115" fill="none"></path></g><g><path style="fill: none;" stroke="rgb(204, 51, 17)" stroke-width="2px" d="M23.03866672515869,25.088571275983554L27.64640007019043,48.16080287964357L32.25413341522217,56.33159510062168L36.8618667602539,68.89806476861511L41.46960010528564,73.52767424810487L46.07733345031738,79.9935676513569L50.685066795349115,86.7398667740592L55.29280014038086,84.9111182410804L59.9005334854126,88.20502022521555L64.50826683044434,91.62093771971098L69.11600017547607,90.34436246629615L73.7237335205078,95.9583693831172L78.33146686553955,95.87054222967717L82.93920021057129,102.62901559374058L87.54693355560302,102.96451002273153L92.15466690063477,102.14429413062489L96.7624002456665,102.50481668720109L101.37013359069823,103.7518624765894L105.97786693572999,103.30291859993368L110.58560028076172,104.58783643280546L115.19333362579346,108.99576874000861L119.8010669708252,109.94801153070247L124.40880031585694,113.71375333971275L129.01653366088868,113.99511099797081L133.62426700592042,109.72417485796409L138.23200035095215,114.27781791288024L142.8397336959839,112.64393568193796L147.4474670410156,113.54338744514934L152.05520038604737,115.17252751485148L156.6629337310791,120.28665135671008L161.27066707611084,120.082299892827L165.87840042114257,119.25844984826703L170.48613376617433,125.25368137424717L175.09386711120604,121.45200435910255L179.7016004562378,125.1955860467185L184.30933380126953,124.53553738497709L188.91706714630126,128.7771564540642L193.524800491333,127.91291814687244L198.13253383636476,124.9604518431768L202.74026718139646,132.5027676774634L207.34800052642822,130.55467773564573L211.95573387145998,135.50291979444523L216.5634672164917,135.64465080356504L221.17120056152345,139.22930760325946L225.77893390655518,141.42505676772626L230.3866672515869,143.6837413573111L234.99440059661865,140.07688039745727L239.6021339416504,137.90965102453214L244.2098672866821,136.8785764877943L248.81760063171387,150.53142765590124" fill="none"></path></g><g><path style="fill: none;" stroke="rgb(238, 51, 119)" stroke-width="2px" d="M23.03866672515869,38.50479680183909L27.64640007019043,84.63829078268776L32.25413341522217,93.63931879694967L36.8618667602539,95.78800857203767L41.46960010528564,101.15250230348626L46.07733345031738,104.44591254690224L50.685066795349115,104.45254281079345L55.29280014038086,106.42390091219491L59.9005334854126,106.78803996116804L64.50826683044434,109.53953753993474L69.11600017547607,107.74001279543295L73.7237335205078,110.35512512245458L78.33146686553955,109.10265934550702L82.93920021057129,111.07204032582145L87.54693355560302,114.46718552107923L92.15466690063477,112.49163282157076L96.7624002456665,116.33966215486946L101.37013359069823,116.09450076152635L105.97786693572999,114.00252665588522L110.58560028076172,114.28402925983717L115.19333362579346,116.60015514076196L119.8010669708252,117.45903765267862L124.40880031585694,117.90220367174317L129.01653366088868,119.09281572290865L133.62426700592042,116.88300313815806L138.23200035095215,120.10530501971635L142.8397336959839,119.20635305276839L147.4474670410156,118.35552869033141L152.05520038604737,117.81971399303457L156.6629337310791,121.43659105659043L161.27066707611084,120.6724679207444L165.87840042114257,120.95400047216256L170.48613376617433,124.00596148873566L175.09386711120604,122.02828838058983L179.7016004562378,124.2878529086125L184.30933380126953,123.89787178483739L188.91706714630126,123.12561678610868L193.524800491333,125.56622213003382L198.13253383636476,121.79388451594167L202.74026718139646,120.18865309370668L207.34800052642822,122.35842127382713L211.95573387145998,125.27403536897276L216.5634672164917,123.93974633030668L221.17120056152345,121.60335730691234L225.77893390655518,126.57397946636193L230.3866672515869,123.0655190965603L234.99440059661865,126.7627489872942L239.6021339416504,124.39434090377591L244.2098672866821,127.39024506733988L248.81760063171387,122.45886857211107" fill="none"></path></g><g><path style="fill: none;" stroke="rgb(0, 119, 187)" stroke-width="2px" d="M23.03866672515869,93.09249826249824L27.64640007019043,106.33588993257786L32.25413341522217,107.51198274446433L36.8618667602539,108.0581060869128L41.46960010528564,108.67733598242648L46.07733345031738,109.63715983692181L50.685066795349115,110.146004500163L55.29280014038086,109.93619153199441L59.9005334854126,110.5036321770595L64.50826683044434,110.93227980103345L69.11600017547607,108.68775685950034L73.7237335205078,110.8882761944645L78.33146686553955,110.90591682362708L82.93920021057129,109.67983024647698L87.54693355560302,111.34176952767878L92.15466690063477,109.9734448771929L96.7624002456665,109.8311801284927L101.37013359069823,109.78440022759845L105.97786693572999,110.11225148938676L110.58560028076172,111.64093359469535L115.19333362579346,110.0570209555013L119.8010669708252,110.20788427005695L124.40880031585694,110.16465358903737L129.01653366088868,110.76014561681203L133.62426700592042,110.29276368823294L138.23200035095215,111.45395247856877L142.8397336959839,110.90686349923537L147.4474670410156,110.6007285385207L152.05520038604737,110.80984970799749L156.6629337310791,110.31897850667382L161.27066707611084,109.62745055824274L165.87840042114257,111.26941773259023L170.48613376617433,111.18255009373902L175.09386711120604,111.54159033947523L179.7016004562378,111.15209811931092" fill="none"></path></g><g><path style="fill: none;" stroke="rgb(255, 112, 67)" stroke-width="2px" d="M23.03866672515869,77.87873047144936L27.64640007019043,103.5668987935699L32.25413341522217,107.96986966467689L36.8618667602539,109.73239106475918L41.46960010528564,111.43224149268927L46.07733345031738,111.7830226499376L50.685066795349115,112.45058133200946L55.29280014038086,113.60072871205985L59.9005334854126,112.90994608101934L64.50826683044434,113.14596603280991L69.11600017547607,114.60173346635162L73.7237335205078,116.24950681543534L78.33146686553955,117.31859935340671L82.93920021057129,116.99551008159709L87.54693355560302,115.68992819358516L92.15466690063477,117.24946776960903L96.7624002456665,114.20875927451684L101.37013359069823,119.81406428265767L105.97786693572999,115.79930264163264L110.58560028076172,118.37982883276675L115.19333362579346,114.50642331670215L119.8010669708252,118.93217061968555L124.40880031585694,117.493488046046L129.01653366088868,117.80069747659465L133.62426700592042,119.89452271626442L138.23200035095215,119.38199311470956L142.8397336959839,118.48619658084326L147.4474670410156,118.6145468987729L152.05520038604737,121.17525496241697L156.6629337310791,119.34504748451255L161.27066707611084,120.83950422415798L165.87840042114257,116.70322727144918L170.48613376617433,114.96834626452281L175.09386711120604,118.60724013218994L179.7016004562378,119.01672437799023L184.30933380126953,118.15897815794492L188.91706714630126,119.56660450594649L193.524800491333,119.494375788671L198.13253383636476,118.82358323655258L202.74026718139646,118.23261449547172L207.34800052642822,117.96500144210961L211.95573387145998,116.61074350199732L216.5634672164917,118.98398246201884L221.17120056152345,120.60803260318309L225.77893390655518,119.47363280978479L230.3866672515869,115.77981068096284L234.99440059661865,120.0172844482048L239.6021339416504,119.92439559847402L244.2098672866821,119.09438115081099L248.81760063171387,121.65997812807382" fill="none"></path></g></g></g></g></g></g><g transform="translate(53, 175)" clip-path="url(#clip_1)"><clipPath id="clip_1"><rect width="276" height="24"></rect></clipPath><g><g><line x1="0" y1="0" x2="0" y2="5" style="visibility: inherit;" fill="rgb(0, 0, 0)" stroke="rgb(204, 204, 204)" stroke-width="1px"></line><line x1="23.03866672515869" y1="0" x2="23.03866672515869" y2="5" style="visibility: inherit;" fill="rgb(0, 0, 0)" stroke="rgb(204, 204, 204)" stroke-width="1px"></line><line x1="46.07733345031738" y1="0" x2="46.07733345031738" y2="5" style="visibility: inherit;" fill="rgb(0, 0, 0)" stroke="rgb(204, 204, 204)" stroke-width="1px"></line><line x1="69.11600017547607" y1="0" x2="69.11600017547607" y2="5" style="visibility: inherit;" fill="rgb(0, 0, 0)" stroke="rgb(204, 204, 204)" stroke-width="1px"></line><line x1="92.15466690063477" y1="0" x2="92.15466690063477" y2="5" style="visibility: inherit;" fill="rgb(0, 0, 0)" stroke="rgb(204, 204, 204)" stroke-width="1px"></line><line x1="115.19333362579346" y1="0" x2="115.19333362579346" y2="5" style="visibility: inherit;" fill="rgb(0, 0, 0)" stroke="rgb(204, 204, 204)" stroke-width="1px"></line><line x1="138.23200035095215" y1="0" x2="138.23200035095215" y2="5" style="visibility: inherit;" fill="rgb(0, 0, 0)" stroke="rgb(204, 204, 204)" stroke-width="1px"></line><line x1="161.27066707611084" y1="0" x2="161.27066707611084" y2="5" style="visibility: inherit;" fill="rgb(0, 0, 0)" stroke="rgb(204, 204, 204)" stroke-width="1px"></line><line x1="184.30933380126953" y1="0" x2="184.30933380126953" y2="5" style="visibility: inherit;" fill="rgb(0, 0, 0)" stroke="rgb(204, 204, 204)" stroke-width="1px"></line><line x1="207.34800052642822" y1="0" x2="207.34800052642822" y2="5" style="visibility: inherit;" fill="rgb(0, 0, 0)" stroke="rgb(204, 204, 204)" stroke-width="1px"></line><line x1="230.3866672515869" y1="0" x2="230.3866672515869" y2="5" style="visibility: inherit;" fill="rgb(0, 0, 0)" stroke="rgb(204, 204, 204)" stroke-width="1px"></line><line x1="253.4253339767456" y1="0" x2="253.4253339767456" y2="5" style="visibility: inherit;" fill="rgb(0, 0, 0)" stroke="rgb(204, 204, 204)" stroke-width="1px"></line><line x1="276.4640007019043" y1="0" x2="276.4640007019043" y2="5" style="visibility: inherit;" fill="rgb(0, 0, 0)" stroke="rgb(204, 204, 204)" stroke-width="1px"></line></g><g transform="translate(0, 8)"><text style="text-anchor: middle; visibility: hidden; font-family: &quot;Helvetica Neue&quot;, sans-serif; font-size: 12px; font-weight: 200;" x="0" y="0" dx="0em" dy="0.95em" fill="rgb(50, 49, 63)" stroke="none" stroke-width="1px">-5</text><text style="text-anchor: middle; visibility: inherit; font-family: &quot;Helvetica Neue&quot;, sans-serif; font-size: 12px; font-weight: 200;" x="23.03866672515869" y="0" dx="0em" dy="0.95em" fill="rgb(50, 49, 63)" stroke="none" stroke-width="1px">0</text><text style="text-anchor: middle; visibility: inherit; font-family: &quot;Helvetica Neue&quot;, sans-serif; font-size: 12px; font-weight: 200;" x="46.07733345031738" y="0" dx="0em" dy="0.95em" fill="rgb(50, 49, 63)" stroke="none" stroke-width="1px">5</text><text style="text-anchor: middle; visibility: inherit; font-family: &quot;Helvetica Neue&quot;, sans-serif; font-size: 12px; font-weight: 200;" x="69.11600017547607" y="0" dx="0em" dy="0.95em" fill="rgb(50, 49, 63)" stroke="none" stroke-width="1px">10</text><text style="text-anchor: middle; visibility: inherit; font-family: &quot;Helvetica Neue&quot;, sans-serif; font-size: 12px; font-weight: 200;" x="92.15466690063477" y="0" dx="0em" dy="0.95em" fill="rgb(50, 49, 63)" stroke="none" stroke-width="1px">15</text><text style="text-anchor: middle; visibility: inherit; font-family: &quot;Helvetica Neue&quot;, sans-serif; font-size: 12px; font-weight: 200;" x="115.19333362579346" y="0" dx="0em" dy="0.95em" fill="rgb(50, 49, 63)" stroke="none" stroke-width="1px">20</text><text style="text-anchor: middle; visibility: inherit; font-family: &quot;Helvetica Neue&quot;, sans-serif; font-size: 12px; font-weight: 200;" x="138.23200035095215" y="0" dx="0em" dy="0.95em" fill="rgb(50, 49, 63)" stroke="none" stroke-width="1px">25</text><text style="text-anchor: middle; visibility: inherit; font-family: &quot;Helvetica Neue&quot;, sans-serif; font-size: 12px; font-weight: 200;" x="161.27066707611084" y="0" dx="0em" dy="0.95em" fill="rgb(50, 49, 63)" stroke="none" stroke-width="1px">30</text><text style="text-anchor: middle; visibility: inherit; font-family: &quot;Helvetica Neue&quot;, sans-serif; font-size: 12px; font-weight: 200;" x="184.30933380126953" y="0" dx="0em" dy="0.95em" fill="rgb(50, 49, 63)" stroke="none" stroke-width="1px">35</text><text style="text-anchor: middle; visibility: inherit; font-family: &quot;Helvetica Neue&quot;, sans-serif; font-size: 12px; font-weight: 200;" x="207.34800052642822" y="0" dx="0em" dy="0.95em" fill="rgb(50, 49, 63)" stroke="none" stroke-width="1px">40</text><text style="text-anchor: middle; visibility: inherit; font-family: &quot;Helvetica Neue&quot;, sans-serif; font-size: 12px; font-weight: 200;" x="230.3866672515869" y="0" dx="0em" dy="0.95em" fill="rgb(50, 49, 63)" stroke="none" stroke-width="1px">45</text><text style="text-anchor: middle; visibility: inherit; font-family: &quot;Helvetica Neue&quot;, sans-serif; font-size: 12px; font-weight: 200;" x="253.4253339767456" y="0" dx="0em" dy="0.95em" fill="rgb(50, 49, 63)" stroke="none" stroke-width="1px">50</text><text style="text-anchor: middle; visibility: hidden; font-family: &quot;Helvetica Neue&quot;, sans-serif; font-size: 12px; font-weight: 200;" x="276.4640007019043" y="0" dx="0em" dy="0.95em" fill="rgb(50, 49, 63)" stroke="none" stroke-width="1px">55</text></g><line x1="0" y1="0" x2="276.4640007019043" y2="0" fill="rgb(0, 0, 0)" stroke="rgb(204, 204, 204)" stroke-width="1px"></line></g></g></g></g></svg>