<svg viewBox="0 0 330 200" xmlns="http://www.w3.org/2000/svg"><g><g><g><g><g><line x1="42.65199947357178" y1="175.61999893188477" x2="37.65199947357178" y2="175.61999893188477" style="visibility: inherit;" fill="rgb(0, 0, 0)" stroke="rgb(204, 204, 204)" stroke-width="1px"></line><line x1="42.65199947357178" y1="156.1066657172309" x2="37.65199947357178" y2="156.1066657172309" style="visibility: inherit;" fill="rgb(0, 0, 0)" stroke="rgb(204, 204, 204)" stroke-width="1px"></line><line x1="42.65199947357178" y1="136.59333250257703" x2="37.65199947357178" y2="136.59333250257703" style="visibility: inherit;" fill="rgb(0, 0, 0)" stroke="rgb(204, 204, 204)" stroke-width="1px"></line><line x1="42.65199947357178" y1="117.07999928792319" x2="37.65199947357178" y2="117.07999928792319" style="visibility: inherit;" fill="rgb(0, 0, 0)" stroke="rgb(204, 204, 204)" stroke-width="1px"></line><line x1="42.65199947357178" y1="97.56666607326932" x2="37.65199947357178" y2="97.56666607326932" style="visibility: inherit;" fill="rgb(0, 0, 0)" stroke="rgb(204, 204, 204)" stroke-width="1px"></line><line x1="42.65199947357178" y1="78.05333285861545" x2="37.65199947357178" y2="78.05333285861545" style="visibility: inherit;" fill="rgb(0, 0, 0)" stroke="rgb(204, 204, 204)" stroke-width="1px"></line><line x1="42.65199947357178" y1="58.53999964396159" x2="37.65199947357178" y2="58.53999964396159" style="visibility: inherit;" fill="rgb(0, 0, 0)" stroke="rgb(204, 204, 204)" stroke-width="1px"></line><line x1="42.65199947357178" y1="39.02666642930771" x2="37.65199947357178" y2="39.02666642930771" style="visibility: inherit;" fill="rgb(0, 0, 0)" stroke="rgb(204, 204, 204)" stroke-width="1px"></line><line x1="42.65199947357178" y1="19.51333321465387" x2="37.65199947357178" y2="19.51333321465387" style="visibility: inherit;" fill="rgb(0, 0, 0)" stroke="rgb(204, 204, 204)" stroke-width="1px"></line><line x1="42.65199947357178" y1="0" x2="37.65199947357178" y2="0" style="visibility: inherit;" fill="rgb(0, 0, 0)" stroke="rgb(204, 204, 204)" stroke-width="1px"></line></g><g transform="translate(32.65199947357178, 0)"><text style="text-anchor: end; visibility: hidden; font-family: &quot;Helvetica Neue&quot;, sans-serif; font-size: 12px; font-weight: 200;" x="0" y="175.61999893188477" dx="0em" dy="0.3em" fill="rgb(50, 49, 63)" stroke="none" stroke-width="1px">-20</text><text style="text-anchor: end; visibility: inherit; font-family: &quot;Helvetica Neue&quot;, sans-serif; font-size: 12px; font-weight: 200;" x="0" y="156.1066657172309" dx="0em" dy="0.3em" fill="rgb(50, 49, 63)" stroke="none" stroke-width="1px">0</text><text style="text-anchor: end; visibility: hidden; font-family: &quot;Helvetica Neue&quot;, sans-serif; font-size: 12px; font-weight: 200;" x="0" y="136.59333250257703" dx="0em" dy="0.3em" fill="rgb(50, 49, 63)" stroke="none" stroke-width="1px">20</text><text style="text-anchor: end; visibility: inherit; font-family: &quot;Helvetica Neue&quot;, sans-serif; font-size: 12px; font-weight: 200;" x="0" y="117.07999928792319" dx="0em" dy="0.3em" fill="rgb(50, 49, 63)" stroke="none" stroke-width="1px">40</text><text style="text-anchor: end; visibility: hidden; font-family: &quot;Helvetica Neue&quot;, sans-serif; font-size: 12px; font-weight: 200;" x="0" y="97.56666607326932" dx="0em" dy="0.3em" fill="rgb(50, 49, 63)" stroke="none" stroke-width="1px">60</text><text style="text-anchor: end; visibility: inherit; font-family: &quot;Helvetica Neue&quot;, sans-serif; font-size: 12px; font-weight: 200;" x="0" y="78.05333285861545" dx="0em" dy="0.3em" fill="rgb(50, 49, 63)" stroke="none" stroke-width="1px">80</text><text style="text-anchor: end; visibility: hidden; font-family: &quot;Helvetica Neue&quot;, sans-serif; font-size: 12px; font-weight: 200;" x="0" y="58.53999964396159" dx="0em" dy="0.3em" fill="rgb(50, 49, 63)" stroke="none" stroke-width="1px">100</text><text style="text-anchor: end; visibility: inherit; font-family: &quot;Helvetica Neue&quot;, sans-serif; font-size: 12px; font-weight: 200;" x="0" y="39.02666642930771" dx="0em" dy="0.3em" fill="rgb(50, 49, 63)" stroke="none" stroke-width="1px">120</text><text style="text-anchor: end; visibility: hidden; font-family: &quot;Helvetica Neue&quot;, sans-serif; font-size: 12px; font-weight: 200;" x="0" y="19.51333321465387" dx="0em" dy="0.3em" fill="rgb(50, 49, 63)" stroke="none" stroke-width="1px">140</text><text style="text-anchor: end; visibility: hidden; font-family: &quot;Helvetica Neue&quot;, sans-serif; font-size: 12px; font-weight: 200;" x="0" y="0" dx="0em" dy="0.3em" fill="rgb(50, 49, 63)" stroke="none" stroke-width="1px">160</text></g><line x1="42.65199947357178" y1="0" x2="42.65199947357178" y2="175.61999893188477" fill="rgb(0, 0, 0)" stroke="rgb(204, 204, 204)" stroke-width="1px"></line></g></g><g transform="translate(42, 0)" clip-path="url(#clip_0)"><clipPath id="clip_0"><rect width="287" height="175"></rect></clipPath><g><g><g><line x1="0" y1="0" x2="0" y2="175.61999893188477" fill="rgb(0, 0, 0)" stroke="rgb(60, 60, 60)" stroke-width="1px" opacity="0.25"></line><line x1="23.945666710535683" y1="0" x2="23.945666710535683" y2="175.61999893188477" fill="rgb(0, 0, 0)" stroke="rgb(60, 60, 60)" stroke-width="1px" opacity="0.25"></line><line x1="47.891333421071366" y1="0" x2="47.891333421071366" y2="175.61999893188477" fill="rgb(0, 0, 0)" stroke="rgb(60, 60, 60)" stroke-width="1px" opacity="0.25"></line><line x1="71.83700013160706" y1="0" x2="71.83700013160706" y2="175.61999893188477" fill="rgb(0, 0, 0)" stroke="rgb(60, 60, 60)" stroke-width="1px" opacity="0.25"></line><line x1="95.78266684214273" y1="0" x2="95.78266684214273" y2="175.61999893188477" fill="rgb(0, 0, 0)" stroke="rgb(60, 60, 60)" stroke-width="1px" opacity="0.25"></line><line x1="119.72833355267844" y1="0" x2="119.72833355267844" y2="175.61999893188477" fill="rgb(0, 0, 0)" stroke="rgb(60, 60, 60)" stroke-width="1px" opacity="0.25"></line><line x1="143.6740002632141" y1="0" x2="143.6740002632141" y2="175.61999893188477" fill="rgb(0, 0, 0)" stroke="rgb(60, 60, 60)" stroke-width="1px" opacity="0.25"></line><line x1="167.61966697374982" y1="0" x2="167.61966697374982" y2="175.61999893188477" fill="rgb(0, 0, 0)" stroke="rgb(60, 60, 60)" stroke-width="1px" opacity="0.25"></line><line x1="191.56533368428546" y1="0" x2="191.56533368428546" y2="175.61999893188477" fill="rgb(0, 0, 0)" stroke="rgb(60, 60, 60)" stroke-width="1px" opacity="0.25"></line><line x1="215.51100039482117" y1="0" x2="215.51100039482117" y2="175.61999893188477" fill="rgb(0, 0, 0)" stroke="rgb(60, 60, 60)" stroke-width="1px" opacity="0.25"></line><line x1="239.45666710535687" y1="0" x2="239.45666710535687" y2="175.61999893188477" fill="rgb(0, 0, 0)" stroke="rgb(60, 60, 60)" stroke-width="1px" opacity="0.25"></line><line x1="263.4023338158925" y1="0" x2="263.4023338158925" y2="175.61999893188477" fill="rgb(0, 0, 0)" stroke="rgb(60, 60, 60)" stroke-width="1px" opacity="0.25"></line><line x1="287.3480005264282" y1="0" x2="287.3480005264282" y2="175.61999893188477" fill="rgb(0, 0, 0)" stroke="rgb(60, 60, 60)" stroke-width="1px" opacity="0.25"></line></g><g><line x1="0" y1="175.61999893188477" x2="287.3480005264282" y2="175.61999893188477" fill="rgb(0, 0, 0)" stroke="rgb(60, 60, 60)" stroke-width="1px" opacity="0.25"></line><line x1="0" y1="156.1066657172309" x2="287.3480005264282" y2="156.1066657172309" fill="rgb(0, 0, 0)" stroke="rgb(60, 60, 60)" stroke-width="1px" opacity="0.25"></line><line x1="0" y1="136.59333250257703" x2="287.3480005264282" y2="136.59333250257703" fill="rgb(0, 0, 0)" stroke="rgb(60, 60, 60)" stroke-width="1px" opacity="0.25"></line><line x1="0" y1="117.07999928792319" x2="287.3480005264282" y2="117.07999928792319" fill="rgb(0, 0, 0)" stroke="rgb(60, 60, 60)" stroke-width="1px" opacity="0.25"></line><line x1="0" y1="97.56666607326932" x2="287.3480005264282" y2="97.56666607326932" fill="rgb(0, 0, 0)" stroke="rgb(60, 60, 60)" stroke-width="1px" opacity="0.25"></line><line x1="0" y1="78.05333285861545" x2="287.3480005264282" y2="78.05333285861545" fill="rgb(0, 0, 0)" stroke="rgb(60, 60, 60)" stroke-width="1px" opacity="0.25"></line><line x1="0" y1="58.53999964396159" x2="287.3480005264282" y2="58.53999964396159" fill="rgb(0, 0, 0)" stroke="rgb(60, 60, 60)" stroke-width="1px" opacity="0.25"></line><line x1="0" y1="39.02666642930771" x2="287.3480005264282" y2="39.02666642930771" fill="rgb(0, 0, 0)" stroke="rgb(60, 60, 60)" stroke-width="1px" opacity="0.25"></line><line x1="0" y1="19.51333321465387" x2="287.3480005264282" y2="19.51333321465387" fill="rgb(0, 0, 0)" stroke="rgb(60, 60, 60)" stroke-width="1px" opacity="0.25"></line><line x1="0" y1="0" x2="287.3480005264282" y2="0" fill="rgb(0, 0, 0)" stroke="rgb(60, 60, 60)" stroke-width="1px" opacity="0.25"></line></g></g></g><g><g><line x1="0" y1="156.1066657172309" x2="287.3480005264282" y2="156.1066657172309" fill="rgb(0, 0, 0)" stroke="rgb(153, 153, 153)" stroke-width="1.5px"></line></g></g><g><g><line x1="23.945666710535683" y1="0" x2="23.945666710535683" y2="175.61999893188477" fill="rgb(0, 0, 0)" stroke="rgb(153, 153, 153)" stroke-width="1.5px"></line></g></g><g><g><g><g><g><path style="fill: none;" stroke="rgb(51, 187, 238)" stroke-width="2px" d="M23.945666710535683,139.88132996805825L28.734800052642825,141.93022939731597L33.52393339474996,141.81314950968425L38.313066736857095,142.60343898381552L43.10220007896423,142.49611598610346L47.891333421071366,142.6522225029458L52.6804667631785,142.50587287602318L57.46960010528565,142.01803954565685L62.258733447392785,142.4375755770535L67.04786678949992,142.41806272768233L71.83700013160706,142.62295276365492L76.62613347371419,142.21317269170973L81.41526681582133,142.31073879950208L86.20440015792846,142.57416924452463L90.9935335000356,142.46684624681262L95.78266684214273,142.5936820938958L100.57180018424987,142.8180859097078L105.360933526357,142.55465546468523L110.15006686846417,142.87662538828957L114.9392002105713,142.78881617041694L119.72833355267844,142.34976542871263L124.51746689478557,142.97419242655013L129.3066002368927,142.50587287602318L134.09573357899984,142.54489950523376L138.88486692110698,142.53514261531404L143.6740002632141,142.26195621084003L148.46313360532127,142.4473324669732L153.25226694742838,142.60343898381552L158.04140028953555,142.48635909618378L162.83053363164265,142.52538572539436L167.61966697374982,142.49611598610346L172.40880031585692,142.74978954120635L177.1979336579641,142.50587287602318L181.9870670000712,142.34976542871263L186.77620034217836,142.74978954120635L191.56533368428546,142.4570893568929L196.35446702639263,142.5936820938958L201.14360036849973,142.4375755770535L205.9327337106069,142.34976542871263L210.721867052714,142.41806272768233L215.51100039482117,142.20341580179002L220.30013373692833,142.53514261531404L225.08926707903544,142.57416924452463L229.8784004211426,142.8571125389184L234.6675337632497,142.78881617041694L239.45666710535687,142.7985721298684L244.24580044746398,142.8473556489987L249.03493378957114,142.92540890741984L253.82406713167825,142.6327087231064L258.6132004737854,143.13029894339243" fill="none"></path></g><g><path style="fill: none;" stroke="rgb(204, 51, 17)" stroke-width="2px" d="M23.945666710535683,150.5160957326232L28.734800052642825,150.5453659371482L33.52393339474996,150.73074219328137L38.313066736857095,150.95514554385926L43.10220007896423,151.20881909896215L47.891333421071366,151.16979246975157L52.6804667631785,151.25760261809242L57.46960010528565,151.1405222652266L62.258733447392785,151.03319926751453L67.04786678949992,150.8868491753578L71.83700013160706,151.26735904277803L76.62613347371419,151.2771159326977L81.41526681582133,151.15027915514628L86.20440015792846,151.130765840541L90.9935335000356,151.130765840541L95.78266684214273,151.33565587651358L100.57180018424987,151.20881909896215L105.360933526357,151.296629247303L110.15006686846417,151.23808930348713L114.9392002105713,151.38443893040974L119.72833355267844,151.19906220904244L124.51746689478557,151.26735904277803L129.3066002368927,151.25760261809242L134.09573357899984,151.36492561580445L138.88486692110698,151.21857552364773L143.6740002632141,151.3161425619083L148.46313360532127,151.23808930348713L153.25226694742838,151.20881909896215L158.04140028953555,151.04295569220014L162.83053363164265,150.78928260233135L167.61966697374982,150.73074219328137L172.40880031585692,151.01368595290924L177.1979336579641,151.25760261809242L181.9870670000712,151.1405222652266L186.77620034217836,151.0819823214107L191.56533368428546,151.05271258211985L196.35446702639263,151.16979246975157L201.14360036849973,151.18930578435686L205.9327337106069,151.24784572817273L210.721867052714,151.17954889443715L215.51100039482117,151.1405222652266L220.30013373692833,151.37468250572417L225.08926707903544,151.03319926751453L229.8784004211426,150.9063624899631L234.6675337632497,151.00392906298956L239.45666710535687,151.101495636016L244.24580044746398,151.39419582032946L249.03493378957114,151.20881909896215L253.82406713167825,151.0917392113304L258.6132004737854,151.21857552364773" fill="none"></path></g><g><path style="fill: none;" stroke="rgb(238, 51, 119)" stroke-width="2px" d="M23.945666710535683,153.2186923642434L28.734800052642825,153.24796233615132L33.52393339474996,153.25771899345398L38.313066736857095,153.25771899345398L43.10220007896423,153.26747565075664L47.891333421071366,153.24796233615132L52.6804667631785,153.2382056788487L57.46960010528565,153.25771899345398L62.258733447392785,153.25771899345398L67.04786678949992,153.24796233615132L71.83700013160706,153.25771899345398L76.62613347371419,153.20893570694076L81.41526681582133,153.26747565075664L86.20440015792846,153.26747565075664L90.9935335000356,151.130765840541L95.78266684214273,150.61366230564965L100.57180018424987,150.65268893486024L105.360933526357,151.00392906298956L110.15006686846417,151.05271258211985L114.9392002105713,151.17954889443715L119.72833355267844,153.27723230805927L124.51746689478557,153.26747565075664L129.3066002368927,153.28698896536193L134.09573357899984,153.25771899345398L138.88486692110698,152.2430257035107L143.6740002632141,153.24796233615132L148.46313360532127,151.1405222652266L153.25226694742838,153.26747565075664L158.04140028953555,153.25771899345398L162.83053363164265,153.28698896536193L167.61966697374982,153.25771899345398L172.40880031585692,153.29674562266456L177.1979336579641,153.26747565075664L181.9870670000712,153.27723230805927L186.77620034217836,153.26747565075664L191.56533368428546,150.86733586075252L196.35446702639263,152.50645568329918L201.14360036849973,153.24796233615132L205.9327337106069,153.26747565075664L210.721867052714,153.27723230805927L215.51100039482117,153.26747565075664L220.30013373692833,153.27723230805927L225.08926707903544,153.2382056788487L229.8784004211426,153.25771899345398L234.6675337632497,153.25771899345398L239.45666710535687,153.26747565075664L244.24580044746398,153.28698896536193L249.03493378957114,153.2382056788487L253.82406713167825,153.27723230805927L258.6132004737854,153.24796233615132" fill="none"></path></g><g><path style="fill: none;" stroke="rgb(0, 119, 187)" stroke-width="2px" d="M23.945666710535683,39.953546779505416L28.734800052642825,47.914990304082224L33.52393339474996,47.19299905938888L38.313066736857095,47.19299905938888L43.10220007896423,48.24671339573332L47.891333421071366,47.9247490549384L52.6804667631785,48.05158304108514L57.46960010528565,47.739370007400495L62.258733447392785,47.31983304553563L67.04786678949992,47.99304542343985L71.83700013160706,48.08085184990779L76.62613347371419,48.12963816044278L81.41526681582133,48.402823634448566L86.20440015792846,60.481574214570784L90.9935335000356,98.97162472485013L95.78266684214273,98.89357332736544L100.57180018424987,98.90332835634868L105.360933526357,98.9228421361881L110.15006686846417,99.03016606436836L114.9392002105713,99.01065228452894L119.72833355267844,98.88381457650927L124.51746689478557,98.73746681052313L129.3066002368927,98.89357332736544L134.09573357899984,98.87405954752604L138.88486692110698,99.08870740388657L143.6740002632141,99.02041103538512L148.46313360532127,98.9423559160275L153.25226694742838,99.0789486530304L158.04140028953555,98.93260088704426L162.83053363164265,98.80576317902458L167.61966697374982,98.86430451854281L172.40880031585692,98.87405954752604L177.1979336579641,98.98138347570631L181.9870670000712,98.90332835634868L186.77620034217836,98.98138347570631" fill="none"></path></g><g><path style="fill: none;" stroke="rgb(255, 112, 67)" stroke-width="2px" d="M23.945666710535683,129.92952928421022L28.734800052642825,126.78788330658807L33.52393339474996,125.75367530633716L38.313066736857095,126.61226300990634L43.10220007896423,127.14887892893474L47.891333421071366,126.89520537383186L52.6804667631785,127.49036263237846L57.46960010528565,126.40737204346551L62.258733447392785,125.99759197152032L67.04786678949992,126.33907567496405L71.83700013160706,126.45615649306403L76.62613347371419,126.8269090053304L81.41526681582133,126.07564522994147L86.20440015792846,126.22199671780055L90.9935335000356,126.50493908172606L95.78266684214273,126.14394345937941L100.57180018424987,126.2707793064626L105.360933526357,126.58299234014723L110.15006686846417,125.85124234459771L114.9392002105713,126.42688582330491L119.72833355267844,126.12442967953999L124.51746689478557,127.00252930201212L129.3066002368927,127.01228619193182L134.09573357899984,126.17321226820204L138.88486692110698,126.72934196706984L143.6740002632141,126.65128870864868L148.46313360532127,126.64153181872898L153.25226694742838,126.42688582330491L158.04140028953555,126.1146727896203L162.83053363164265,126.44639960314433L167.61966697374982,126.02686264127944L172.40880031585692,126.15369848836264L177.1979336579641,126.6903162683275L181.9870670000712,127.04155500075447L186.77620034217836,126.7098300481669L191.56533368428546,126.12442967953999L196.35446702639263,126.49518219180638L201.14360036849973,126.77812641666836L205.9327337106069,126.38786012456258L210.721867052714,127.10985323019239L215.51100039482117,126.48542530188666L220.30013373692833,126.21223982788086L225.08926707903544,126.28053619638231L229.8784004211426,126.22199671780055L234.6675337632497,126.40737204346551L239.45666710535687,126.18296915812175L244.24580044746398,126.63177678974574L249.03493378957114,126.40737204346551L253.82406713167825,126.34883256488376L258.6132004737854,126.1341865694597" fill="none"></path></g></g></g></g></g></g><g transform="translate(42, 175)" clip-path="url(#clip_1)"><clipPath id="clip_1"><rect width="287" height="24"></rect></clipPath><g><g><line x1="0" y1="0" x2="0" y2="5" style="visibility: inherit;" fill="rgb(0, 0, 0)" stroke="rgb(204, 204, 204)" stroke-width="1px"></line><line x1="23.945666710535683" y1="0" x2="23.945666710535683" y2="5" style="visibility: inherit;" fill="rgb(0, 0, 0)" stroke="rgb(204, 204, 204)" stroke-width="1px"></line><line x1="47.891333421071366" y1="0" x2="47.891333421071366" y2="5" style="visibility: inherit;" fill="rgb(0, 0, 0)" stroke="rgb(204, 204, 204)" stroke-width="1px"></line><line x1="71.83700013160706" y1="0" x2="71.83700013160706" y2="5" style="visibility: inherit;" fill="rgb(0, 0, 0)" stroke="rgb(204, 204, 204)" stroke-width="1px"></line><line x1="95.78266684214273" y1="0" x2="95.78266684214273" y2="5" style="visibility: inherit;" fill="rgb(0, 0, 0)" stroke="rgb(204, 204, 204)" stroke-width="1px"></line><line x1="119.72833355267844" y1="0" x2="119.72833355267844" y2="5" style="visibility: inherit;" fill="rgb(0, 0, 0)" stroke="rgb(204, 204, 204)" stroke-width="1px"></line><line x1="143.6740002632141" y1="0" x2="143.6740002632141" y2="5" style="visibility: inherit;" fill="rgb(0, 0, 0)" stroke="rgb(204, 204, 204)" stroke-width="1px"></line><line x1="167.61966697374982" y1="0" x2="167.61966697374982" y2="5" style="visibility: inherit;" fill="rgb(0, 0, 0)" stroke="rgb(204, 204, 204)" stroke-width="1px"></line><line x1="191.56533368428546" y1="0" x2="191.56533368428546" y2="5" style="visibility: inherit;" fill="rgb(0, 0, 0)" stroke="rgb(204, 204, 204)" stroke-width="1px"></line><line x1="215.51100039482117" y1="0" x2="215.51100039482117" y2="5" style="visibility: inherit;" fill="rgb(0, 0, 0)" stroke="rgb(204, 204, 204)" stroke-width="1px"></line><line x1="239.45666710535687" y1="0" x2="239.45666710535687" y2="5" style="visibility: inherit;" fill="rgb(0, 0, 0)" stroke="rgb(204, 204, 204)" stroke-width="1px"></line><line x1="263.4023338158925" y1="0" x2="263.4023338158925" y2="5" style="visibility: inherit;" fill="rgb(0, 0, 0)" stroke="rgb(204, 204, 204)" stroke-width="1px"></line><line x1="287.3480005264282" y1="0" x2="287.3480005264282" y2="5" style="visibility: inherit;" fill="rgb(0, 0, 0)" stroke="rgb(204, 204, 204)" stroke-width="1px"></line></g><g transform="translate(0, 8)"><text style="text-anchor: middle; visibility: hidden; font-family: &quot;Helvetica Neue&quot;, sans-serif; font-size: 12px; font-weight: 200;" x="0" y="0" dx="0em" dy="0.95em" fill="rgb(50, 49, 63)" stroke="none" stroke-width="1px">-5</text><text style="text-anchor: middle; visibility: inherit; font-family: &quot;Helvetica Neue&quot;, sans-serif; font-size: 12px; font-weight: 200;" x="23.945666710535683" y="0" dx="0em" dy="0.95em" fill="rgb(50, 49, 63)" stroke="none" stroke-width="1px">0</text><text style="text-anchor: middle; visibility: inherit; font-family: &quot;Helvetica Neue&quot;, sans-serif; font-size: 12px; font-weight: 200;" x="47.891333421071366" y="0" dx="0em" dy="0.95em" fill="rgb(50, 49, 63)" stroke="none" stroke-width="1px">5</text><text style="text-anchor: middle; visibility: inherit; font-family: &quot;Helvetica Neue&quot;, sans-serif; font-size: 12px; font-weight: 200;" x="71.83700013160706" y="0" dx="0em" dy="0.95em" fill="rgb(50, 49, 63)" stroke="none" stroke-width="1px">10</text><text style="text-anchor: middle; visibility: inherit; font-family: &quot;Helvetica Neue&quot;, sans-serif; font-size: 12px; font-weight: 200;" x="95.78266684214273" y="0" dx="0em" dy="0.95em" fill="rgb(50, 49, 63)" stroke="none" stroke-width="1px">15</text><text style="text-anchor: middle; visibility: inherit; font-family: &quot;Helvetica Neue&quot;, sans-serif; font-size: 12px; font-weight: 200;" x="119.72833355267844" y="0" dx="0em" dy="0.95em" fill="rgb(50, 49, 63)" stroke="none" stroke-width="1px">20</text><text style="text-anchor: middle; visibility: inherit; font-family: &quot;Helvetica Neue&quot;, sans-serif; font-size: 12px; font-weight: 200;" x="143.6740002632141" y="0" dx="0em" dy="0.95em" fill="rgb(50, 49, 63)" stroke="none" stroke-width="1px">25</text><text style="text-anchor: middle; visibility: inherit; font-family: &quot;Helvetica Neue&quot;, sans-serif; font-size: 12px; font-weight: 200;" x="167.61966697374982" y="0" dx="0em" dy="0.95em" fill="rgb(50, 49, 63)" stroke="none" stroke-width="1px">30</text><text style="text-anchor: middle; visibility: inherit; font-family: &quot;Helvetica Neue&quot;, sans-serif; font-size: 12px; font-weight: 200;" x="191.56533368428546" y="0" dx="0em" dy="0.95em" fill="rgb(50, 49, 63)" stroke="none" stroke-width="1px">35</text><text style="text-anchor: middle; visibility: inherit; font-family: &quot;Helvetica Neue&quot;, sans-serif; font-size: 12px; font-weight: 200;" x="215.51100039482117" y="0" dx="0em" dy="0.95em" fill="rgb(50, 49, 63)" stroke="none" stroke-width="1px">40</text><text style="text-anchor: middle; visibility: inherit; font-family: &quot;Helvetica Neue&quot;, sans-serif; font-size: 12px; font-weight: 200;" x="239.45666710535687" y="0" dx="0em" dy="0.95em" fill="rgb(50, 49, 63)" stroke="none" stroke-width="1px">45</text><text style="text-anchor: middle; visibility: inherit; font-family: &quot;Helvetica Neue&quot;, sans-serif; font-size: 12px; font-weight: 200;" x="263.4023338158925" y="0" dx="0em" dy="0.95em" fill="rgb(50, 49, 63)" stroke="none" stroke-width="1px">50</text><text style="text-anchor: middle; visibility: hidden; font-family: &quot;Helvetica Neue&quot;, sans-serif; font-size: 12px; font-weight: 200;" x="287.3480005264282" y="0" dx="0em" dy="0.95em" fill="rgb(50, 49, 63)" stroke="none" stroke-width="1px">55</text></g><line x1="0" y1="0" x2="287.3480005264282" y2="0" fill="rgb(0, 0, 0)" stroke="rgb(204, 204, 204)" stroke-width="1px"></line></g></g></g></g></svg>