<svg viewBox="0 0 330 200" xmlns="http://www.w3.org/2000/svg"><g><g><g><g><g><line x1="42.65199947357178" y1="175.61999893188477" x2="37.65199947357178" y2="175.61999893188477" style="visibility: inherit;" fill="rgb(0, 0, 0)" stroke="rgb(204, 204, 204)" stroke-width="1px"></line><line x1="42.65199947357178" y1="159.6545444835316" x2="37.65199947357178" y2="159.6545444835316" style="visibility: inherit;" fill="rgb(0, 0, 0)" stroke="rgb(204, 204, 204)" stroke-width="1px"></line><line x1="42.65199947357178" y1="143.68909003517845" x2="37.65199947357178" y2="143.68909003517845" style="visibility: inherit;" fill="rgb(0, 0, 0)" stroke="rgb(204, 204, 204)" stroke-width="1px"></line><line x1="42.65199947357178" y1="127.72363558682528" x2="37.65199947357178" y2="127.72363558682528" style="visibility: inherit;" fill="rgb(0, 0, 0)" stroke="rgb(204, 204, 204)" stroke-width="1px"></line><line x1="42.65199947357178" y1="111.75818113847212" x2="37.65199947357178" y2="111.75818113847212" style="visibility: inherit;" fill="rgb(0, 0, 0)" stroke="rgb(204, 204, 204)" stroke-width="1px"></line><line x1="42.65199947357178" y1="95.79272669011897" x2="37.65199947357178" y2="95.79272669011897" style="visibility: inherit;" fill="rgb(0, 0, 0)" stroke="rgb(204, 204, 204)" stroke-width="1px"></line><line x1="42.65199947357178" y1="79.82727224176581" x2="37.65199947357178" y2="79.82727224176581" style="visibility: inherit;" fill="rgb(0, 0, 0)" stroke="rgb(204, 204, 204)" stroke-width="1px"></line><line x1="42.65199947357178" y1="63.86181779341264" x2="37.65199947357178" y2="63.86181779341264" style="visibility: inherit;" fill="rgb(0, 0, 0)" stroke="rgb(204, 204, 204)" stroke-width="1px"></line><line x1="42.65199947357178" y1="47.896363345059484" x2="37.65199947357178" y2="47.896363345059484" style="visibility: inherit;" fill="rgb(0, 0, 0)" stroke="rgb(204, 204, 204)" stroke-width="1px"></line><line x1="42.65199947357178" y1="31.930908896706313" x2="37.65199947357178" y2="31.930908896706313" style="visibility: inherit;" fill="rgb(0, 0, 0)" stroke="rgb(204, 204, 204)" stroke-width="1px"></line><line x1="42.65199947357178" y1="15.96545444835317" x2="37.65199947357178" y2="15.96545444835317" style="visibility: inherit;" fill="rgb(0, 0, 0)" stroke="rgb(204, 204, 204)" stroke-width="1px"></line><line x1="42.65199947357178" y1="0" x2="37.65199947357178" y2="0" style="visibility: inherit;" fill="rgb(0, 0, 0)" stroke="rgb(204, 204, 204)" stroke-width="1px"></line></g><g transform="translate(32.65199947357178, 0)"><text style="text-anchor: end; visibility: hidden; font-family: &quot;Helvetica Neue&quot;, sans-serif; font-size: 12px; font-weight: 200;" x="0" y="175.61999893188477" dx="0em" dy="0.3em" fill="rgb(50, 49, 63)" stroke="none" stroke-width="1px">-20</text><text style="text-anchor: end; visibility: inherit; font-family: &quot;Helvetica Neue&quot;, sans-serif; font-size: 12px; font-weight: 200;" x="0" y="159.6545444835316" dx="0em" dy="0.3em" fill="rgb(50, 49, 63)" stroke="none" stroke-width="1px">0</text><text style="text-anchor: end; visibility: hidden; font-family: &quot;Helvetica Neue&quot;, sans-serif; font-size: 12px; font-weight: 200;" x="0" y="143.68909003517845" dx="0em" dy="0.3em" fill="rgb(50, 49, 63)" stroke="none" stroke-width="1px">20</text><text style="text-anchor: end; visibility: inherit; font-family: &quot;Helvetica Neue&quot;, sans-serif; font-size: 12px; font-weight: 200;" x="0" y="127.72363558682528" dx="0em" dy="0.3em" fill="rgb(50, 49, 63)" stroke="none" stroke-width="1px">40</text><text style="text-anchor: end; visibility: hidden; font-family: &quot;Helvetica Neue&quot;, sans-serif; font-size: 12px; font-weight: 200;" x="0" y="111.75818113847212" dx="0em" dy="0.3em" fill="rgb(50, 49, 63)" stroke="none" stroke-width="1px">60</text><text style="text-anchor: end; visibility: inherit; font-family: &quot;Helvetica Neue&quot;, sans-serif; font-size: 12px; font-weight: 200;" x="0" y="95.79272669011897" dx="0em" dy="0.3em" fill="rgb(50, 49, 63)" stroke="none" stroke-width="1px">80</text><text style="text-anchor: end; visibility: hidden; font-family: &quot;Helvetica Neue&quot;, sans-serif; font-size: 12px; font-weight: 200;" x="0" y="79.82727224176581" dx="0em" dy="0.3em" fill="rgb(50, 49, 63)" stroke="none" stroke-width="1px">100</text><text style="text-anchor: end; visibility: inherit; font-family: &quot;Helvetica Neue&quot;, sans-serif; font-size: 12px; font-weight: 200;" x="0" y="63.86181779341264" dx="0em" dy="0.3em" fill="rgb(50, 49, 63)" stroke="none" stroke-width="1px">120</text><text style="text-anchor: end; visibility: hidden; font-family: &quot;Helvetica Neue&quot;, sans-serif; font-size: 12px; font-weight: 200;" x="0" y="47.896363345059484" dx="0em" dy="0.3em" fill="rgb(50, 49, 63)" stroke="none" stroke-width="1px">140</text><text style="text-anchor: end; visibility: inherit; font-family: &quot;Helvetica Neue&quot;, sans-serif; font-size: 12px; font-weight: 200;" x="0" y="31.930908896706313" dx="0em" dy="0.3em" fill="rgb(50, 49, 63)" stroke="none" stroke-width="1px">160</text><text style="text-anchor: end; visibility: hidden; font-family: &quot;Helvetica Neue&quot;, sans-serif; font-size: 12px; font-weight: 200;" x="0" y="15.96545444835317" dx="0em" dy="0.3em" fill="rgb(50, 49, 63)" stroke="none" stroke-width="1px">180</text><text style="text-anchor: end; visibility: hidden; font-family: &quot;Helvetica Neue&quot;, sans-serif; font-size: 12px; font-weight: 200;" x="0" y="0" dx="0em" dy="0.3em" fill="rgb(50, 49, 63)" stroke="none" stroke-width="1px">200</text></g><line x1="42.65199947357178" y1="0" x2="42.65199947357178" y2="175.61999893188477" fill="rgb(0, 0, 0)" stroke="rgb(204, 204, 204)" stroke-width="1px"></line></g></g><g transform="translate(42, 0)" clip-path="url(#clip_0)"><clipPath id="clip_0"><rect width="287" height="175"></rect></clipPath><g><g><g><line x1="0" y1="0" x2="0" y2="175.61999893188477" fill="rgb(0, 0, 0)" stroke="rgb(60, 60, 60)" stroke-width="1px" opacity="0.25"></line><line x1="23.945666710535683" y1="0" x2="23.945666710535683" y2="175.61999893188477" fill="rgb(0, 0, 0)" stroke="rgb(60, 60, 60)" stroke-width="1px" opacity="0.25"></line><line x1="47.891333421071366" y1="0" x2="47.891333421071366" y2="175.61999893188477" fill="rgb(0, 0, 0)" stroke="rgb(60, 60, 60)" stroke-width="1px" opacity="0.25"></line><line x1="71.83700013160706" y1="0" x2="71.83700013160706" y2="175.61999893188477" fill="rgb(0, 0, 0)" stroke="rgb(60, 60, 60)" stroke-width="1px" opacity="0.25"></line><line x1="95.78266684214273" y1="0" x2="95.78266684214273" y2="175.61999893188477" fill="rgb(0, 0, 0)" stroke="rgb(60, 60, 60)" stroke-width="1px" opacity="0.25"></line><line x1="119.72833355267844" y1="0" x2="119.72833355267844" y2="175.61999893188477" fill="rgb(0, 0, 0)" stroke="rgb(60, 60, 60)" stroke-width="1px" opacity="0.25"></line><line x1="143.6740002632141" y1="0" x2="143.6740002632141" y2="175.61999893188477" fill="rgb(0, 0, 0)" stroke="rgb(60, 60, 60)" stroke-width="1px" opacity="0.25"></line><line x1="167.61966697374982" y1="0" x2="167.61966697374982" y2="175.61999893188477" fill="rgb(0, 0, 0)" stroke="rgb(60, 60, 60)" stroke-width="1px" opacity="0.25"></line><line x1="191.56533368428546" y1="0" x2="191.56533368428546" y2="175.61999893188477" fill="rgb(0, 0, 0)" stroke="rgb(60, 60, 60)" stroke-width="1px" opacity="0.25"></line><line x1="215.51100039482117" y1="0" x2="215.51100039482117" y2="175.61999893188477" fill="rgb(0, 0, 0)" stroke="rgb(60, 60, 60)" stroke-width="1px" opacity="0.25"></line><line x1="239.45666710535687" y1="0" x2="239.45666710535687" y2="175.61999893188477" fill="rgb(0, 0, 0)" stroke="rgb(60, 60, 60)" stroke-width="1px" opacity="0.25"></line><line x1="263.4023338158925" y1="0" x2="263.4023338158925" y2="175.61999893188477" fill="rgb(0, 0, 0)" stroke="rgb(60, 60, 60)" stroke-width="1px" opacity="0.25"></line><line x1="287.3480005264282" y1="0" x2="287.3480005264282" y2="175.61999893188477" fill="rgb(0, 0, 0)" stroke="rgb(60, 60, 60)" stroke-width="1px" opacity="0.25"></line></g><g><line x1="0" y1="175.61999893188477" x2="287.3480005264282" y2="175.61999893188477" fill="rgb(0, 0, 0)" stroke="rgb(60, 60, 60)" stroke-width="1px" opacity="0.25"></line><line x1="0" y1="159.6545444835316" x2="287.3480005264282" y2="159.6545444835316" fill="rgb(0, 0, 0)" stroke="rgb(60, 60, 60)" stroke-width="1px" opacity="0.25"></line><line x1="0" y1="143.68909003517845" x2="287.3480005264282" y2="143.68909003517845" fill="rgb(0, 0, 0)" stroke="rgb(60, 60, 60)" stroke-width="1px" opacity="0.25"></line><line x1="0" y1="127.72363558682528" x2="287.3480005264282" y2="127.72363558682528" fill="rgb(0, 0, 0)" stroke="rgb(60, 60, 60)" stroke-width="1px" opacity="0.25"></line><line x1="0" y1="111.75818113847212" x2="287.3480005264282" y2="111.75818113847212" fill="rgb(0, 0, 0)" stroke="rgb(60, 60, 60)" stroke-width="1px" opacity="0.25"></line><line x1="0" y1="95.79272669011897" x2="287.3480005264282" y2="95.79272669011897" fill="rgb(0, 0, 0)" stroke="rgb(60, 60, 60)" stroke-width="1px" opacity="0.25"></line><line x1="0" y1="79.82727224176581" x2="287.3480005264282" y2="79.82727224176581" fill="rgb(0, 0, 0)" stroke="rgb(60, 60, 60)" stroke-width="1px" opacity="0.25"></line><line x1="0" y1="63.86181779341264" x2="287.3480005264282" y2="63.86181779341264" fill="rgb(0, 0, 0)" stroke="rgb(60, 60, 60)" stroke-width="1px" opacity="0.25"></line><line x1="0" y1="47.896363345059484" x2="287.3480005264282" y2="47.896363345059484" fill="rgb(0, 0, 0)" stroke="rgb(60, 60, 60)" stroke-width="1px" opacity="0.25"></line><line x1="0" y1="31.930908896706313" x2="287.3480005264282" y2="31.930908896706313" fill="rgb(0, 0, 0)" stroke="rgb(60, 60, 60)" stroke-width="1px" opacity="0.25"></line><line x1="0" y1="15.96545444835317" x2="287.3480005264282" y2="15.96545444835317" fill="rgb(0, 0, 0)" stroke="rgb(60, 60, 60)" stroke-width="1px" opacity="0.25"></line><line x1="0" y1="0" x2="287.3480005264282" y2="0" fill="rgb(0, 0, 0)" stroke="rgb(60, 60, 60)" stroke-width="1px" opacity="0.25"></line></g></g></g><g><g><line x1="0" y1="159.6545444835316" x2="287.3480005264282" y2="159.6545444835316" fill="rgb(0, 0, 0)" stroke="rgb(153, 153, 153)" stroke-width="1.5px"></line></g></g><g><g><line x1="23.945666710535683" y1="0" x2="23.945666710535683" y2="175.61999893188477" fill="rgb(0, 0, 0)" stroke="rgb(153, 153, 153)" stroke-width="1.5px"></line></g></g><g><g><g><g><g><path style="fill: none;" stroke="rgb(51, 187, 238)" stroke-width="2px" d="M23.945666710535683,142.2122851941889L28.734800052642825,144.19998409029876L33.52393339474996,144.34367342394742L38.313066736857095,145.0062397226507L43.10220007896423,144.89448202873925L47.891333421071366,144.8465860917178L52.6804667631785,144.79868863211198L57.46960010528565,144.32770760407882L62.258733447392785,144.8146544519806L67.04786678949992,144.75877560502485L71.83700013160706,144.79868863211198L76.62613347371419,144.55920742442044L81.41526681582133,144.69491384813483L86.20440015792846,144.74280978515625L90.9935335000356,145.01422263258502L95.78266684214273,144.77474142489348L100.57180018424987,145.11001602921226L105.360933526357,144.79868863211198L110.15006686846417,145.1978249933208L114.9392002105713,145.10203311927796L119.72833355267844,144.55920742442044L124.51746689478557,145.1419461463651L129.3066002368927,144.88649911880492L134.09573357899984,144.75079269509055L138.88486692110698,144.77474142489348L143.6740002632141,144.62306918131048L148.46313360532127,144.75877560502485L153.25226694742838,144.79868863211198L158.04140028953555,144.86255038900202L162.83053363164265,144.8226373619149L167.61966697374982,144.79070572217768L172.40880031585692,144.91843075854214L177.1979336579641,144.8306202718492L181.9870670000712,144.75877560502485L186.77620034217836,144.92641214589207L191.56533368428546,144.70289675806913L196.35446702639263,144.8226373619149L201.14360036849973,144.6869309382005L205.9327337106069,144.78272433482778L210.721867052714,144.76675851495915L215.51100039482117,144.55920742442044L220.30013373692833,144.88649911880492L225.08926707903544,144.93439505582637L229.8784004211426,145.16589487616798L234.6675337632497,145.1419461463651L239.45666710535687,145.23773954299233L244.24580044746398,145.23773954299233L249.03493378957114,145.1818606960366L253.82406713167825,144.88649911880492L258.6132004737854,145.38941026399092" fill="none"></path></g><g><path style="fill: none;" stroke="rgb(204, 51, 17)" stroke-width="2px" d="M23.945666710535683,153.61960274773165L28.734800052642825,153.5637235201298L33.52393339474996,153.9069810343829L38.313066736857095,154.14646262272055L43.10220007896423,154.2422552580556L47.891333421071366,154.2422552580556L52.6804667631785,154.34603080332496L57.46960010528565,154.2183072895449L62.258733447392785,154.2342727287674L67.04786678949992,154.0826008658305L71.83700013160706,154.33006536410244L76.62613347371419,154.44182343866L81.41526681582133,154.29813448565744L86.20440015792846,154.29015195636921L90.9935335000356,154.17041097187735L95.78266684214273,154.3859445917043L100.57180018424987,154.29015195636921L105.360933526357,154.40191003092679L110.15006686846417,154.29015195636921L114.9392002105713,154.46577178781683L119.72833355267844,154.31409992487994L124.51746689478557,154.35401371325926L129.3066002368927,154.36997915248176L134.09573357899984,154.48972013697363L138.88486692110698,154.29813448565744L143.6740002632141,154.40989256021498L148.46313360532127,154.32208283481424L153.25226694742838,154.25822069727812L158.04140028953555,154.066635426608L162.83053363164265,153.8670672460036L167.61966697374982,153.73934373222352L172.40880031585692,154.13848009343235L177.1979336579641,154.37796168177L181.9870670000712,154.19435894038807L186.77620034217836,154.18637641109987L191.56533368428546,154.15444553265485L196.35446702639263,154.2422552580556L201.14360036849973,154.29813448565744L205.9327337106069,154.33804827403674L210.721867052714,154.35401371325926L215.51100039482117,154.33006536410244L220.30013373692833,154.48972013697363L225.08926707903544,154.20234185032237L229.8784004211426,154.01075619900615L234.6675337632497,154.01873910894048L239.45666710535687,154.29015195636921L244.24580044746398,154.47375469775113L249.03493378957114,154.2422552580556L253.82406713167825,154.0746183365423L258.6132004737854,154.32208283481424" fill="none"></path></g><g><path style="fill: none;" stroke="rgb(238, 51, 119)" stroke-width="2px" d="M23.945666710535683,156.51733263113977L28.734800052642825,156.52531535075101L33.52393339474996,156.5412807899735L38.313066736857095,156.53329807036226L43.10220007896423,156.5412807899735L47.891333421071366,156.5412807899735L52.6804667631785,156.53329807036226L57.46960010528565,156.5412807899735L62.258733447392785,156.5412807899735L67.04786678949992,156.5412807899735L71.83700013160706,156.52531535075101L76.62613347371419,156.53329807036226L81.41526681582133,156.54926350958476L86.20440015792846,156.55724622919604L90.9935335000356,154.12251465420982L95.78266684214273,153.69144741455597L100.57180018424987,153.723378293001L105.360933526357,154.0586525166737L110.15006686846417,154.11453174427552L114.9392002105713,154.84894270980314L119.72833355267844,156.56522913913034L124.51746689478557,156.56522913913034L129.3066002368927,156.55724622919604L134.09573357899984,156.55724622919604L138.88486692110698,155.72704262833335L143.6740002632141,156.5412807899735L148.46313360532127,154.66533996842125L153.25226694742838,156.56522913913034L158.04140028953555,156.55724622919604L162.83053363164265,156.54926350958476L167.61966697374982,156.55724622919604L172.40880031585692,156.55724622919604L177.1979336579641,156.55724622919604L181.9870670000712,156.5412807899735L186.77620034217836,156.11819646025398L191.56533368428546,153.82715345762426L196.35446702639263,155.91862827964957L201.14360036849973,156.54926350958476L205.9327337106069,156.55724622919604L210.721867052714,156.55724622919604L215.51100039482117,156.5412807899735L220.30013373692833,156.53329807036226L225.08926707903544,156.54926350958476L229.8784004211426,156.53329807036226L234.6675337632497,156.55724622919604L239.45666710535687,156.55724622919604L244.24580044746398,156.55724622919604L249.03493378957114,156.53329807036226L253.82406713167825,156.54926350958476L258.6132004737854,156.5412807899735" fill="none"></path></g><g><path style="fill: none;" stroke="rgb(0, 119, 187)" stroke-width="2px" d="M23.945666710535683,33.37578057537428L28.734800052642825,41.286666177895285L33.52393339474996,40.95139309616087L38.313066736857095,40.91945536608611L43.10220007896423,41.781591367978194L47.891333421071366,41.59799205241114L52.6804667631785,41.957212341364084L57.46960010528565,41.230781240602L62.258733447392785,41.41439273684412L67.04786678949992,42.01309727865737L71.83700013160706,41.98915007143884L76.62613347371419,41.81352909805295L81.41526681582133,41.84545464745261L86.20440015792846,65.84153682475696L90.9935335000356,97.2136511615684L95.78266684214273,97.2136511615684L100.57180018424987,97.29347721574264L105.360933526357,97.27751444104281L110.15006686846417,97.30146164826132L114.9392002105713,97.36532492773576L119.72833355267844,97.26953000852411L124.51746689478557,97.22163559408708L129.3066002368927,97.2854988735615L134.09573357899984,97.27751444104281L138.88486692110698,97.36532492773576L143.6740002632141,97.35734049521707L148.46313360532127,97.37330936025445L153.25226694742838,97.26953000852411L158.04140028953555,97.22962002660576L162.83053363164265,97.2455828013056L167.61966697374982,97.22163559408708L172.40880031585692,97.2375983687869L177.1979336579641,97.22163559408708L181.9870670000712,97.3174305132987L186.77620034217836,97.37330936025445" fill="none"></path></g><g><path style="fill: none;" stroke="rgb(255, 112, 67)" stroke-width="2px" d="M23.945666710535683,130.15038539381547L28.734800052642825,127.54801461343939L33.52393339474996,126.65395001697887L38.313066736857095,127.30853340574785L43.10220007896423,127.84337771325545L47.891333421071366,127.83539328073675L52.6804667631785,128.22654825459566L57.46960010528565,127.05308637818771L62.258733447392785,126.89343122467042L67.04786678949992,127.22870735157359L71.83700013160706,127.3803780725722L76.62613347371419,127.74758279404381L81.41526681582133,126.94931007162614L86.20440015792846,127.13291243236196L90.9935335000356,127.2446731714422L95.78266684214273,127.10896522514344L100.57180018424987,127.34844643283498L105.360933526357,127.42827553217802L110.15006686846417,126.74176050367183L114.9392002105713,127.15686268474926L119.72833355267844,127.01317335110056L124.51746689478557,127.59591207304521L129.3066002368927,127.84337771325545L134.09573357899984,127.17282850461785L138.88486692110698,127.47616994661504L143.6740002632141,127.50810158635227L148.46313360532127,127.47616994661504L153.25226694742838,127.57196486582669L158.04140028953555,127.02913917096917L162.83053363164265,127.22870735157359L167.61966697374982,126.9014156571891L172.40880031585692,126.98922614388204L177.1979336579641,127.65179092000093L181.9870670000712,127.66775673986955L186.77620034217836,127.69968837960677L191.56533368428546,127.18879432448647L196.35446702639263,127.45222273939653L201.14360036849973,127.42827553217802L205.9327337106069,127.28458619852933L210.721867052714,127.63582510013234L215.51100039482117,127.4123097123094L220.30013373692833,127.08501801792491L225.08926707903544,127.09299940527484L229.8784004211426,127.07703358540623L234.6675337632497,127.33248061296636L239.45666710535687,127.30055201839792L244.24580044746398,127.5799462531766L249.03493378957114,127.2446731714422L253.82406713167825,127.11694965766213L258.6132004737854,126.98922614388204" fill="none"></path></g></g></g></g></g></g><g transform="translate(42, 175)" clip-path="url(#clip_1)"><clipPath id="clip_1"><rect width="287" height="24"></rect></clipPath><g><g><line x1="0" y1="0" x2="0" y2="5" style="visibility: inherit;" fill="rgb(0, 0, 0)" stroke="rgb(204, 204, 204)" stroke-width="1px"></line><line x1="23.945666710535683" y1="0" x2="23.945666710535683" y2="5" style="visibility: inherit;" fill="rgb(0, 0, 0)" stroke="rgb(204, 204, 204)" stroke-width="1px"></line><line x1="47.891333421071366" y1="0" x2="47.891333421071366" y2="5" style="visibility: inherit;" fill="rgb(0, 0, 0)" stroke="rgb(204, 204, 204)" stroke-width="1px"></line><line x1="71.83700013160706" y1="0" x2="71.83700013160706" y2="5" style="visibility: inherit;" fill="rgb(0, 0, 0)" stroke="rgb(204, 204, 204)" stroke-width="1px"></line><line x1="95.78266684214273" y1="0" x2="95.78266684214273" y2="5" style="visibility: inherit;" fill="rgb(0, 0, 0)" stroke="rgb(204, 204, 204)" stroke-width="1px"></line><line x1="119.72833355267844" y1="0" x2="119.72833355267844" y2="5" style="visibility: inherit;" fill="rgb(0, 0, 0)" stroke="rgb(204, 204, 204)" stroke-width="1px"></line><line x1="143.6740002632141" y1="0" x2="143.6740002632141" y2="5" style="visibility: inherit;" fill="rgb(0, 0, 0)" stroke="rgb(204, 204, 204)" stroke-width="1px"></line><line x1="167.61966697374982" y1="0" x2="167.61966697374982" y2="5" style="visibility: inherit;" fill="rgb(0, 0, 0)" stroke="rgb(204, 204, 204)" stroke-width="1px"></line><line x1="191.56533368428546" y1="0" x2="191.56533368428546" y2="5" style="visibility: inherit;" fill="rgb(0, 0, 0)" stroke="rgb(204, 204, 204)" stroke-width="1px"></line><line x1="215.51100039482117" y1="0" x2="215.51100039482117" y2="5" style="visibility: inherit;" fill="rgb(0, 0, 0)" stroke="rgb(204, 204, 204)" stroke-width="1px"></line><line x1="239.45666710535687" y1="0" x2="239.45666710535687" y2="5" style="visibility: inherit;" fill="rgb(0, 0, 0)" stroke="rgb(204, 204, 204)" stroke-width="1px"></line><line x1="263.4023338158925" y1="0" x2="263.4023338158925" y2="5" style="visibility: inherit;" fill="rgb(0, 0, 0)" stroke="rgb(204, 204, 204)" stroke-width="1px"></line><line x1="287.3480005264282" y1="0" x2="287.3480005264282" y2="5" style="visibility: inherit;" fill="rgb(0, 0, 0)" stroke="rgb(204, 204, 204)" stroke-width="1px"></line></g><g transform="translate(0, 8)"><text style="text-anchor: middle; visibility: hidden; font-family: &quot;Helvetica Neue&quot;, sans-serif; font-size: 12px; font-weight: 200;" x="0" y="0" dx="0em" dy="0.95em" fill="rgb(50, 49, 63)" stroke="none" stroke-width="1px">-5</text><text style="text-anchor: middle; visibility: inherit; font-family: &quot;Helvetica Neue&quot;, sans-serif; font-size: 12px; font-weight: 200;" x="23.945666710535683" y="0" dx="0em" dy="0.95em" fill="rgb(50, 49, 63)" stroke="none" stroke-width="1px">0</text><text style="text-anchor: middle; visibility: inherit; font-family: &quot;Helvetica Neue&quot;, sans-serif; font-size: 12px; font-weight: 200;" x="47.891333421071366" y="0" dx="0em" dy="0.95em" fill="rgb(50, 49, 63)" stroke="none" stroke-width="1px">5</text><text style="text-anchor: middle; visibility: inherit; font-family: &quot;Helvetica Neue&quot;, sans-serif; font-size: 12px; font-weight: 200;" x="71.83700013160706" y="0" dx="0em" dy="0.95em" fill="rgb(50, 49, 63)" stroke="none" stroke-width="1px">10</text><text style="text-anchor: middle; visibility: inherit; font-family: &quot;Helvetica Neue&quot;, sans-serif; font-size: 12px; font-weight: 200;" x="95.78266684214273" y="0" dx="0em" dy="0.95em" fill="rgb(50, 49, 63)" stroke="none" stroke-width="1px">15</text><text style="text-anchor: middle; visibility: inherit; font-family: &quot;Helvetica Neue&quot;, sans-serif; font-size: 12px; font-weight: 200;" x="119.72833355267844" y="0" dx="0em" dy="0.95em" fill="rgb(50, 49, 63)" stroke="none" stroke-width="1px">20</text><text style="text-anchor: middle; visibility: inherit; font-family: &quot;Helvetica Neue&quot;, sans-serif; font-size: 12px; font-weight: 200;" x="143.6740002632141" y="0" dx="0em" dy="0.95em" fill="rgb(50, 49, 63)" stroke="none" stroke-width="1px">25</text><text style="text-anchor: middle; visibility: inherit; font-family: &quot;Helvetica Neue&quot;, sans-serif; font-size: 12px; font-weight: 200;" x="167.61966697374982" y="0" dx="0em" dy="0.95em" fill="rgb(50, 49, 63)" stroke="none" stroke-width="1px">30</text><text style="text-anchor: middle; visibility: inherit; font-family: &quot;Helvetica Neue&quot;, sans-serif; font-size: 12px; font-weight: 200;" x="191.56533368428546" y="0" dx="0em" dy="0.95em" fill="rgb(50, 49, 63)" stroke="none" stroke-width="1px">35</text><text style="text-anchor: middle; visibility: inherit; font-family: &quot;Helvetica Neue&quot;, sans-serif; font-size: 12px; font-weight: 200;" x="215.51100039482117" y="0" dx="0em" dy="0.95em" fill="rgb(50, 49, 63)" stroke="none" stroke-width="1px">40</text><text style="text-anchor: middle; visibility: inherit; font-family: &quot;Helvetica Neue&quot;, sans-serif; font-size: 12px; font-weight: 200;" x="239.45666710535687" y="0" dx="0em" dy="0.95em" fill="rgb(50, 49, 63)" stroke="none" stroke-width="1px">45</text><text style="text-anchor: middle; visibility: inherit; font-family: &quot;Helvetica Neue&quot;, sans-serif; font-size: 12px; font-weight: 200;" x="263.4023338158925" y="0" dx="0em" dy="0.95em" fill="rgb(50, 49, 63)" stroke="none" stroke-width="1px">50</text><text style="text-anchor: middle; visibility: hidden; font-family: &quot;Helvetica Neue&quot;, sans-serif; font-size: 12px; font-weight: 200;" x="287.3480005264282" y="0" dx="0em" dy="0.95em" fill="rgb(50, 49, 63)" stroke="none" stroke-width="1px">55</text></g><line x1="0" y1="0" x2="287.3480005264282" y2="0" fill="rgb(0, 0, 0)" stroke="rgb(204, 204, 204)" stroke-width="1px"></line></g></g></g></g></svg>